<?xml version="1.0" standalone="no"?>
<!DOCTYPE svg PUBLIC "-//W3C//DTD SVG 1.1//EN" "http://www.w3.org/Graphics/SVG/1.1/DTD/svg11.dtd" >
<svg>
<metadata>
Created by FontForge 20090914 at Sat Nov 21 15:22:32 2020
 By www-data
Copyright 2020 The Texturina Project Authors (https://github.com/Omnibus-Type/Texturina)
</metadata>
<defs>
<font id="Texturina-Medium" horiz-adv-x="0" >
  <font-face 
    font-family="Texturina Medium"
    font-weight="500"
    font-stretch="normal"
    units-per-em="1000"
    panose-1="0 0 0 0 0 0 0 0 0 0"
    ascent="800"
    descent="-200"
    x-height="499.998"
    cap-height="703.999"
    bbox="-94 -282 1383 1201"
    underline-thickness="60"
    underline-position="-130"
    unicode-range="U+0020-U+FB02"
  />
<missing-glyph horiz-adv-x="500" 
d="M64 0v704h372v-704h-372zM114 50h235l-235 560v-560zM386 89v565h-237z" />
    <glyph glyph-name="fi" unicode="fi" horiz-adv-x="613" 
d="M216 0c-4 0 -11.8271 0.833008 -23.4941 2.5l-40 6c-15 2.33301 -30.333 5 -46 8s-29.834 6 -42.501 9s-22.334 5.83301 -29.001 8.5c0 5.33301 1.16699 10.333 3.5 15s4.5 8.33398 6.5 11.001l28 5c11.333 2 20.333 7.83301 27 17.5s10 30.5 10 62.5v298l-70 8
c0 10 1.33301 18.833 4 26.5s5 12.834 7 15.501l59 8l-27 207c3.33301 6 11 12.833 23 20.5s26.667 15.667 44 24s35.333 16.166 54 23.499s36 13.166 52 17.499s28.667 6.5 38 6.5c10 0 25.667 -3.33301 47 -10s44 -15.334 68 -26.001s45.833 -21.834 65.5 -33.501
s32.834 -22.5 39.501 -32.5c0 -8 -5 -18.333 -15 -31s-21.167 -23.834 -33.5 -33.501s-22.833 -14.5 -31.5 -14.5c-4.66699 0 -11.834 5 -21.501 15s-20 21.667 -31 35s-21.5 25.5 -31.5 36.5s-18 17.167 -24 18.5c-12 0 -25.167 -0.666992 -39.5 -2
s-28.5 -2.83301 -42.5 -4.5s-26.5 -3.5 -37.5 -5.5s-19.5 -4 -25.5 -6l25 -205h232c19.333 0 36.166 -7.5 50.499 -22.5s21.5 -32.833 21.5 -53.5v-300c0 -13.333 -1.33301 -25.333 -4 -36s-5.33398 -17.667 -8.00098 -21l86 -9c1.33301 -2 3 -5 5 -9s3 -9 3 -15
c-3.33301 -5.33301 -9.83301 -10.666 -19.5 -15.999s-19.834 -9.83301 -30.501 -13.5s-19.334 -5.5 -26.001 -5.5c-5.33301 0 -15.833 1.16699 -31.5 3.5s-33 5.33301 -52 9s-36.833 7.5 -53.5 11.5s-29 7.33301 -37 10c0 4.66699 1 9.33398 3 14.001s4.33301 8.66699 7 12
l26 5c6 1.33301 11.667 3.66602 17 6.99902s9.5 10.5 12.5 21.5s4.5 28.167 4.5 51.5v281c-7.33301 2.66699 -20.333 5 -39 7s-42 3.83301 -70 5.5s-59.667 2.83398 -95 3.50098v-317c0 -13.333 -1.16699 -25 -3.5 -35s-4.83301 -17.333 -7.5 -22l85 -9
c1.33301 -2 2.83301 -5 4.5 -9s2.5 -9 2.5 -15c-3.33301 -5.33301 -9.5 -10.666 -18.5 -15.999s-18.667 -9.83301 -29 -13.5s-18.833 -5.5 -25.5 -5.5z" />
    <glyph glyph-name="fl" unicode="fl" horiz-adv-x="607" 
d="M216 0c-4 0 -11.8271 0.824219 -23.4941 2.49121l-40 6c-15 2.33301 -30.333 5 -46 8s-29.834 6 -42.501 9s-22.334 5.83301 -29.001 8.5c0 5.33301 1.16699 10.333 3.5 15s4.5 8.33398 6.5 11.001l28 5c11.333 2 20.333 7.83301 27 17.5s10 30.5 10 62.5v298l-70 8
c0 10 1.33301 18.833 4 26.5s5 12.834 7 15.501l62 12l-30 212c7.33301 6.66699 18.833 13.834 34.5 21.501s34.667 15.167 57 22.5s47.166 13.833 74.499 19.5s56 10.334 86 14.001s60.667 5.5 92 5.5c26 0 46.333 -6.66699 61 -20s22 -31.666 22 -54.999v-600
c0 -13.333 -1.33301 -25.333 -4 -36s-5.33398 -17.667 -8.00098 -21l86 -9c1.33301 -2 3 -5 5 -9s3 -9 3 -15c-3.33301 -5.33301 -9.83301 -10.666 -19.5 -15.999s-19.834 -9.83301 -30.501 -13.5s-19.334 -5.5 -26.001 -5.5c-5.33301 0 -15.833 1.16699 -31.5 3.5
s-33 5.33301 -52 9s-36.833 7.5 -53.5 11.5s-29 7.33301 -37 10c0 4.66699 1 9.33398 3 14.001s4.33301 8.66699 7 12l26 5c6 1.33301 11.667 3.66602 17 6.99902s9.5 10.5 12.5 21.5s4.5 28.167 4.5 51.5v568c-20.667 7.33301 -51.167 10 -91.5 8s-88.5 -7 -144.5 -15
l30 -204l127 -2l11 -13c-0.666992 -7.33301 -2.5 -15.666 -5.5 -24.999s-6.16699 -16.666 -9.5 -21.999l-121 2v-317c0 -13.333 -1.16699 -25 -3.5 -35s-4.83301 -17.333 -7.5 -22l85 -9c1.33301 -2 2.83301 -5 4.5 -9s2.5 -9 2.5 -15
c-3.33301 -5.33301 -9.5 -10.666 -18.5 -15.999s-18.667 -9.83301 -29 -13.5s-18.833 -5.5 -25.5 -5.5z" />
    <glyph glyph-name="f_f" unicode="ff" horiz-adv-x="647" 
d="M211 0c-5.33301 0 -15.8291 1.16797 -31.4961 3.50098s-33.167 5.33301 -52.5 9s-37.5 7.5 -54.5 11.5s-29.5 7.33301 -37.5 10c0 5.33301 1.16699 10.333 3.5 15s4.5 8.33398 6.5 11.001l28 5c7.33301 1.33301 13.833 4.16602 19.5 8.49902s10 12 13 23
s4.5 27.167 4.5 48.5v298l-71 8c0 9.33301 1.33301 17.833 4 25.5s5 13.167 7 16.5l63 7l-50 208c3.33301 7.33301 12.166 16.166 26.499 26.499s31.166 20.5 50.499 30.5s38.166 18.333 56.499 25s33.166 10 44.499 10c10 0 21.167 -4 33.5 -12s24 -17.667 35 -29
s20 -22 27 -32s10.5 -16.667 10.5 -20c0 -4 -2.5 -9.66699 -7.5 -17s-11 -14.833 -18 -22.5s-13.5 -13.5 -19.5 -17.5c-7.33301 0 -14.166 1.5 -20.499 4.5s-11.166 5.83301 -14.499 8.5c-2.66699 8 -6.66699 16.667 -12 26s-11 17.166 -17 23.499s-11.333 9.5 -16 9.5
c-10 0 -22 -1.33301 -36 -4s-25.667 -5.66699 -35 -9l52 -209h253l10 -13l-15 -46l-243 11v-326c0 -12.667 -1.33301 -24.5 -4 -35.5s-5.33398 -18.5 -8.00098 -22.5l85 -9c1.33301 -2 2.83301 -5 4.5 -9s2.5 -9 2.5 -15c-3.33301 -5.33301 -9.83301 -10.666 -19.5 -15.999
s-19.834 -9.83301 -30.501 -13.5s-19.667 -5.5 -27 -5.5zM521.004 0.000976562c-5.33301 0 -16.1631 1.16113 -32.4961 3.49414s-34.5 5.33301 -54.5 9s-38.833 7.5 -56.5 11.5s-30.5 7.33301 -38.5 10c0 5.33301 1.16699 10.333 3.5 15s4.5 8.33398 6.5 11.001l28 5
c11.333 2 20.333 7.83301 27 17.5s10 30.5 10 62.5v298l-70 8c0 9.33301 1.16699 17.666 3.5 24.999s4.83301 13 7.5 17l62 7l-50 208c3.33301 7.33301 12.666 16.166 27.999 26.499s33.166 20.5 53.499 30.5s40.166 18.333 59.499 25s34.333 10 45 10
s22.334 -4.33301 35.001 -13s24.667 -19 36 -31s20.666 -23.5 27.999 -34.5s11 -18.5 11 -22.5c0 -3.33301 -1.66699 -7.66602 -5 -12.999s-7.5 -11.166 -12.5 -17.499s-10.333 -12 -16 -17l-14.5 -12.5c-6.66699 0 -13.334 1.33301 -20.001 4s-11.667 5.33398 -15 8.00098
c-3.33301 9.33301 -7.83301 19.5 -13.5 30.5s-11.167 20.333 -16.5 28s-10.333 11.5 -15 11.5c-7.33301 0 -16 -1 -26 -3s-19.5 -4.33301 -28.5 -7s-16.5 -5.33398 -22.5 -8.00098l51 -203h115l11 -13c-0.666992 -7.33301 -2.5 -15.666 -5.5 -24.999
s-6.16699 -16.666 -9.5 -21.999l-106 1v-316c0 -13.333 -1.33301 -25.166 -4 -35.499s-5.33398 -17.5 -8.00098 -21.5l88 -9c1.33301 -2 2.83301 -5.16699 4.5 -9.5s2.5 -9.16602 2.5 -14.499c-3.33301 -5.33301 -9.83301 -10.666 -19.5 -15.999s-19.667 -9.83301 -30 -13.5
s-19.166 -5.5 -26.499 -5.5z" />
    <glyph glyph-name="f_f_i" unicode="ffi" horiz-adv-x="913" 
d="M212 0c-5.33301 0 -15.835 1.16504 -31.502 3.49805s-33.334 5.33301 -53.001 9s-38 7.5 -55 11.5s-29.5 7.33301 -37.5 10c0 5.33301 1.16699 10.333 3.5 15s4.5 8.33398 6.5 11.001l28 5c11.333 2 20.333 7.83301 27 17.5s10 30.5 10 62.5v298l-70 8
c0 10 1.33301 18.833 4 26.5s5 12.834 7 15.501l63 7l-39 208c3.33301 7.33301 13.333 16.166 30 26.499s36.167 20.5 58.5 30.5s44 18.333 65 25s37.167 10 48.5 10c12 0 27.667 -2.83301 47 -8.5s39.333 -12.5 60 -20.5s38.667 -15.667 54 -23c17.333 8.66699 36 17 56 25
s39.167 14.5 57.5 19.5s32.833 7.5 43.5 7.5c10 0 25.667 -3.33301 47 -10s43.833 -15.334 67.5 -26.001s45.334 -21.834 65.001 -33.501s32.834 -22.5 39.501 -32.5c0 -6 -2.83301 -13.5 -8.5 -22.5s-12.834 -17.833 -21.501 -26.5s-17.5 -15.834 -26.5 -21.501
s-16.833 -8.5 -23.5 -8.5c-4.66699 0 -11.334 5.16699 -20.001 15.5l-29.5 35.5c-11 13.333 -21.667 25.333 -32 36s-19.166 16.334 -26.499 17.001c-14.667 1.33301 -32.334 0.833008 -53.001 -1.5s-39.667 -5 -57 -8s-28.666 -5.5 -33.999 -7.5l25 -205h232
c18.667 0 35.167 -7.5 49.5 -22.5s21.5 -32.833 21.5 -53.5v-300c0 -14.667 -1.33301 -27 -4 -37s-5 -16.667 -7 -20l86 -9c1.33301 -2 2.83301 -5 4.5 -9s2.5 -9 2.5 -15c-3.33301 -5.33301 -9.83301 -10.666 -19.5 -15.999s-19.667 -9.83301 -30 -13.5
s-19.166 -5.5 -26.499 -5.5c-5.33301 0 -15.666 1.16699 -30.999 3.5s-32.5 5.33301 -51.5 9s-36.833 7.5 -53.5 11.5s-29 7.33301 -37 10c0 5.33301 1.16699 10.333 3.5 15s4.5 8.33398 6.5 11.001l25 5c7.33301 1.33301 13.5 4.16602 18.5 8.49902s8.83301 12 11.5 23
s4 27.167 4 48.5v281c-4.66699 2.66699 -15.334 5 -32.001 7s-39.334 3.83301 -68.001 5.5s-63 2.83398 -103 3.50098v-316c0 -14 -1.33301 -26.167 -4 -36.5s-5.33398 -17.5 -8.00098 -21.5l83 -9c1.33301 -2 2.83301 -5.16699 4.5 -9.5s2.5 -9.16602 2.5 -14.499
c-3.33301 -4.66699 -9.5 -9.83398 -18.5 -15.501s-18.667 -10.334 -29 -14.001s-19.166 -5.5 -26.499 -5.5c-5.33301 0 -15.666 1.16699 -30.999 3.5s-32.333 5.33301 -51 9s-36.167 7.5 -52.5 11.5s-28.5 7.33301 -36.5 10c0 5.33301 1.16699 10.333 3.5 15
s4.5 8.33398 6.5 11.001l25 5c7.33301 1.33301 13.5 4.16602 18.5 8.49902s8.83301 12 11.5 23s4 27.167 4 48.5v295l-203 5v-319c0 -14 -1.33301 -26.167 -4 -36.5s-5.33398 -17.5 -8.00098 -21.5l83 -9c1.33301 -2 2.83301 -5.16699 4.5 -9.5s2.5 -9.16602 2.5 -14.499
c-3.33301 -5.33301 -9.66602 -10.666 -18.999 -15.999s-19.166 -9.83301 -29.499 -13.5s-18.833 -5.5 -25.5 -5.5zM203.998 500.998l207 0.000976562l-20 154c-8.66699 10.667 -17.667 21.167 -27 31.5l-24.5 26.5c-7 7.33301 -12.5 11 -16.5 11
c-13.333 0 -28 -0.5 -44 -1.5s-31.667 -2.33301 -47 -4s-28.833 -3.33398 -40.5 -5.00098s-19.5 -3.16699 -23.5 -4.5z" />
    <glyph glyph-name="f_f_l" unicode="ffl" horiz-adv-x="910" 
d="M212 0c-5.33301 0 -15.834 1.16309 -31.501 3.49609s-33.334 5.33301 -53.001 9s-38 7.5 -55 11.5s-29.5 7.33301 -37.5 10c0 5.33301 1.16699 10.333 3.5 15s4.5 8.33398 6.5 11.001l28 5c11.333 2 20.333 7.83301 27 17.5s10 30.5 10 62.5v298l-70 8
c0 10 1.33301 18.833 4 26.5s5 12.834 7 15.501l63 7l-39 208c3.33301 7.33301 13.333 16.166 30 26.499s36.167 20.5 58.5 30.5s44 18.333 65 25s37.167 10 48.5 10c12 0 27.5 -2.83301 46.5 -8.5s38.833 -12.5 59.5 -20.5s38.667 -15.667 54 -23
c21.333 8.66699 47.166 17 77.499 25s63.833 14.5 100.5 19.5s74.334 7.5 113.001 7.5c25.333 0 45.333 -6.66699 60 -20s22 -31.666 22 -54.999v-600c0 -14.667 -1.33301 -27 -4 -37s-5 -16.667 -7 -20l86 -9c2 -2 4.16699 -4.83301 6.5 -8.5s3.5 -8.83398 3.5 -15.501
c-4.66699 -5.33301 -12 -10.666 -22 -15.999s-20.333 -9.83301 -31 -13.5s-19.334 -5.5 -26.001 -5.5c-5.33301 0 -15.666 1.16699 -30.999 3.5s-32.5 5.33301 -51.5 9s-36.833 7.5 -53.5 11.5s-29 7.33301 -37 10c0 5.33301 1.16699 10.333 3.5 15s4.5 8.33398 6.5 11.001
l25 5c7.33301 1.33301 13.5 4.16602 18.5 8.49902s8.83301 12 11.5 23s4 27.167 4 48.5v568c-13.333 4.66699 -30.666 7.33398 -51.999 8.00098s-46.666 -0.166016 -75.999 -2.49902s-63.333 -6.5 -102 -12.5l25 -205h126l10 -13c0 -7.33301 -1.5 -16.166 -4.5 -26.499
s-6.16699 -18.166 -9.5 -23.499l-120 4v-316c0 -14 -1.33301 -26.167 -4 -36.5s-5.33398 -17.5 -8.00098 -21.5l83 -9c1.33301 -2 2.83301 -5.16699 4.5 -9.5s2.5 -9.16602 2.5 -14.499c-3.33301 -4.66699 -9.5 -9.83398 -18.5 -15.501s-18.667 -10.334 -29 -14.001
s-19.166 -5.5 -26.499 -5.5c-6 0 -16.5 1.16699 -31.5 3.5s-31.833 5.33301 -50.5 9s-36.167 7.5 -52.5 11.5s-28.5 7.33301 -36.5 10c0 5.33301 1.16699 10.333 3.5 15s4.5 8.33398 6.5 11.001l25 5c7.33301 1.33301 13.5 4.16602 18.5 8.49902s8.83301 12 11.5 23
s4 27.167 4 48.5v295l-203 5v-319c0 -14 -1.33301 -26.167 -4 -36.5s-5.33398 -17.5 -8.00098 -21.5l83 -9c1.33301 -2 2.83301 -5.16699 4.5 -9.5s2.5 -9.16602 2.5 -14.499c-3.33301 -4.66699 -9.5 -9.83398 -18.5 -15.501s-18.667 -10.334 -29 -14.001
s-19.166 -5.5 -26.499 -5.5zM203.999 500.996l207 0.000976562l-20 151l-40.5 49c-12.333 15.333 -21.5 23 -27.5 23c-13.333 0 -28 -0.5 -44 -1.5s-31.667 -2.33301 -47 -4s-28.833 -3.33398 -40.5 -5.00098s-19.5 -3.16699 -23.5 -4.5z" />
    <glyph glyph-name=".notdef" horiz-adv-x="500" 
d="M64 0v704h372v-704h-372zM114 50h235l-235 560v-560zM386 89v565h-237z" />
    <glyph glyph-name="space" unicode=" " horiz-adv-x="210" 
 />
    <glyph glyph-name="exclam" unicode="!" horiz-adv-x="240" 
d="M87 211c-5.33301 54.667 -10.1689 112.833 -14.502 174.5s-7.66602 123.167 -9.99902 184.5s-3.5 118.666 -3.5 171.999c11.333 8.66699 27.833 15.834 49.5 21.501s43.834 8.5 66.501 8.5l-24 -540c-3.33301 -4.66699 -10.5 -9 -21.5 -13s-25.167 -6.66699 -42.5 -8z
M111.997 -7.00098c-5.33301 0 -11.999 3.33203 -19.999 9.99902s-16 14.834 -24 24.501s-14.667 19.334 -20 29.001s-8 17.5 -8 23.5s3.5 12.667 10.5 20s15.833 14.666 26.5 21.999s21 13.333 31 18s18 7 24 7s12.833 -3.33301 20.5 -10s15.167 -15 22.5 -25
s13.333 -19.833 18 -29.5s7 -17.5 7 -23.5c0 -5.33301 -3.16699 -11.833 -9.5 -19.5s-14.333 -15 -24 -22s-19.334 -12.833 -29.001 -17.5s-18.167 -7 -25.5 -7z" />
    <glyph glyph-name="quotedbl" unicode="&#x22;" horiz-adv-x="356" 
d="M103 435c-8.66699 0 -16.6689 0.669922 -24.002 2.00293s-12.666 2.66602 -15.999 3.99902l-18 253c4 2 10.833 4.33301 20.5 7s17.834 4 24.501 4c7.33301 0 15 -3.66699 23 -11s15 -15.333 21 -24s9 -15.334 9 -20.001c0 -9.33301 -1.33301 -26 -4 -50
s-7 -50.833 -13 -80.5s-13.667 -57.834 -23 -84.501zM269.998 435.003c-8.66699 0 -16.6689 0.669922 -24.002 2.00293s-12.666 2.66602 -15.999 3.99902l-18 253c4 2 10.833 4.33301 20.5 7s17.834 4 24.501 4c7.33301 0 15 -3.66699 23 -11s15 -15.333 21 -24
s9 -15.334 9 -20.001c0 -9.33301 -1.33301 -26 -4 -50s-7 -50.833 -13 -80.5s-13.667 -57.834 -23 -84.501z" />
    <glyph glyph-name="numbersign" unicode="#" horiz-adv-x="654" 
d="M129 -14c-16 0 -29.666 1.66895 -40.999 5.00195s-19.333 6.33301 -24 9l61 155h-111c0 15.333 1.33301 27.333 4 36s5.33398 13.667 8.00098 15h118l70 178h-140c0 15.333 1.33301 27.333 4 36s5.33398 13.667 8.00098 15h147l33 88l26 71
c14.667 0 27.667 -3.16699 39 -9.5s19.666 -12.5 24.999 -18.5l-52 -131l152 3l26 68c10 26.667 19.667 54.334 29 83.001c17.333 0 31.666 -2.83301 42.999 -8.5s19 -11.167 23 -16.5l-49 -124c32.667 1.33301 58 2.66602 76 3.99902s30 2.33301 36 3
c0 -16 -1.33301 -29.333 -4 -40s-5.33398 -18.334 -8.00098 -23.001h-122l-67 -173c39.333 1.33301 69.5 2.66602 90.5 3.99902s34.167 2.33301 39.5 3c0 -14.667 -1.16699 -27.667 -3.5 -39s-4.83301 -19.333 -7.5 -24h-141l-65 -169c-14.667 0 -28 1.66699 -40 5
s-20.667 6.33301 -26 9l61 155h-152zM215.001 206.002l152 3l69 175h-152z" />
    <glyph glyph-name="dollar" unicode="$" horiz-adv-x="568" 
d="M254 -115l0.000976562 105.006c-16.667 1.33301 -37 4.66602 -61 9.99902s-46.833 11.833 -68.5 19.5s-38.167 15.834 -49.5 24.501c0 15.333 1 31.5 3 48.5s4.66699 33.333 8 49s6.33301 28.834 9 39.501c4.66699 1.33301 11.5 3 20.5 5s18.5 3 28.5 3l21 -105
c11.333 -4.66699 24.833 -9.33398 40.5 -14.001s31.834 -8.33398 48.501 -11.001v195l-54 17c-19.333 6 -38 12.667 -56 20s-33.167 14.666 -45.5 21.999s-19.5 14.333 -21.5 21c-0.666992 6.66699 -1.5 13.667 -2.5 21s-1.5 14.666 -1.5 21.999
c0 20.667 2.16699 43.5 6.5 68.5s10.166 44.167 17.499 57.5c8 7.33301 20.5 15.166 37.5 23.499s36.167 16.166 57.5 23.499s42 13 62 17v90c6 5.33301 15.833 10.5 29.5 15.5s29.834 7.5 48.501 7.5c-0.666992 -8.66699 -2.16699 -21.667 -4.5 -39
s-4.16602 -40 -5.49902 -68c18 -1.33301 37 -4.66602 57 -9.99902s39 -11.666 57 -18.999s32.333 -14.666 43 -21.999c0 -12 -1.33301 -26.667 -4 -44s-5.83398 -33.833 -9.50098 -49.5s-7.16699 -27.834 -10.5 -36.501c-12 0 -22.167 1.16699 -30.5 3.5
s-14.166 4.83301 -17.499 7.5l-23 89c-10 3.33301 -20.5 6.16602 -31.5 8.49902s-22.167 3.83301 -33.5 4.5v-187c30.667 -9.33301 59.167 -18.5 85.5 -27.5s48.166 -17.833 65.499 -26.5s27.333 -17.334 30 -26.001c1.33301 -8.66699 2.33301 -17.5 3 -26.5
s1 -18.833 1 -29.5c0 -20.667 -1.5 -42.334 -4.5 -65.001s-7.83301 -42.667 -14.5 -60c-6 -6 -17.167 -13.667 -33.5 -23s-35.833 -17.833 -58.5 -25.5s-47.334 -13.167 -74.001 -16.5v-97c-4.66699 -2 -12.834 -4.16699 -24.501 -6.5s-25.167 -3.5 -40.5 -3.5z
M319.001 57.0059c15.333 1.33301 30.001 3.33301 44.001 6s25 5.66699 33 9c5.33301 8.66699 9.16602 20 11.499 34s3.5 27.667 3.5 41c0 11.333 -0.666992 22.333 -2 33s-3.33301 19.667 -6 27c-2 2 -8.33301 4.83301 -19 8.5l-34.5 11.5c-12.333 4 -22.5 6.66699 -30.5 8
v-178zM254.002 336.006v171.002c-10.667 -0.666992 -22 -1.5 -34 -2.5s-25 -3.16699 -39 -6.5c-6 -10.667 -10.333 -23.334 -13 -38.001s-4 -30 -4 -46c0 -6.66699 0.333008 -14.5 1 -23.5s1.66699 -17.167 3 -24.5c4 -2.66699 13.833 -6.83398 29.5 -12.501
s34.5 -11.5 56.5 -17.5z" />
    <glyph glyph-name="percent" unicode="%" horiz-adv-x="993" 
d="M216 285c-20.667 0 -41.502 3.16211 -62.502 9.49512s-39.833 14 -56.5 23s-29 16.833 -37 23.5c-6.66699 15.333 -11.667 35.833 -15 61.5s-5 53.834 -5 84.501c0 22.667 0.666992 44.5 2 65.5s3.5 39.833 6.5 56.5s6.16699 29.334 9.5 38.001
c5.33301 4.66699 14 10.334 26 17.001s26.333 13.334 43 20.001s34.5 12.334 53.5 17.001s37.833 7 56.5 7c14.667 0 31.834 -2.83301 51.501 -8.5s38 -12.5 55 -20.5s28.833 -15 35.5 -21c5.33301 -12 9.33301 -29.333 12 -52s4 -49 4 -79
c0 -18 -0.666992 -38.167 -2 -60.5s-3.33301 -44 -6 -65s-6 -38.5 -10 -52.5c-5.33301 -6 -13.666 -12.5 -24.999 -19.5s-24.333 -14 -39 -21s-30.5 -12.667 -47.5 -17s-33.5 -6.5 -49.5 -6.5zM227.998 341.995c4.66699 0 11.4971 1 20.4971 3s18.5 4.83301 28.5 8.5
s17.667 7.5 23 11.5c3.33301 13.333 6 30.666 8 51.999s3 44.333 3 69c0 29.333 -1.16699 57 -3.5 83s-5.16602 43.333 -8.49902 52c-5.33301 6 -13.666 11.333 -24.999 16s-22.833 8.33398 -34.5 11.001s-21.5 4 -29.5 4c-6 0 -13.833 -1.16699 -23.5 -3.5
s-19.167 -5 -28.5 -8s-17.333 -5.83301 -24 -8.5c-4 -9.33301 -7 -24.166 -9 -44.499s-3 -42.833 -3 -67.5c0 -17.333 0.5 -36.333 1.5 -57s2.66699 -39.334 5 -56.001s4.83301 -28 7.5 -34c5.33301 -4.66699 14.333 -9.5 27 -14.5s25.334 -9 38.001 -12
s21.667 -4.5 27 -4.5zM359.995 -97.0049c-14.667 0 -27.5 2.33301 -38.5 7s-19.833 9.33398 -26.5 14.001l229 589l40 106.5c11.333 31.667 20.833 59.167 28.5 82.5s13.167 41.333 16.5 54c17.333 -2.66699 32 -7.33398 44 -14.001s20.333 -13 25 -19zM773.995 -5.00488
c-20.667 0 -41.502 3.16211 -62.502 9.49512s-39.833 14 -56.5 23s-29 16.833 -37 23.5c-6.66699 15.333 -11.667 35.833 -15 61.5s-5 53.834 -5 84.501c0 22.667 0.666992 44.5 2 65.5s3.5 39.833 6.5 56.5s6.16699 29.334 9.5 38.001c5.33301 4.66699 14 10.334 26 17.001
s26.333 13.334 43 20.001s34.5 12.334 53.5 17.001s37.833 7 56.5 7c14.667 0 31.834 -2.83301 51.501 -8.5s38 -12.5 55 -20.5s28.833 -15 35.5 -21c5.33301 -12 9.33301 -29.333 12 -52s4 -49 4 -79c0 -18 -0.666992 -38.167 -2 -60.5s-3.33301 -44 -6 -65
s-6 -38.5 -10 -52.5c-5.33301 -6 -13.666 -12.5 -24.999 -19.5s-24.333 -14 -39 -21s-30.5 -12.667 -47.5 -17s-33.5 -6.5 -49.5 -6.5zM785.993 51.9902c4.66699 0 11.4971 1 20.4971 3s18.5 4.83301 28.5 8.5s17.667 7.5 23 11.5c3.33301 13.333 6 30.666 8 51.999
s3 44.333 3 69c0 29.333 -1.16699 57 -3.5 83s-5.16602 43.333 -8.49902 52c-5.33301 6 -13.666 11.333 -24.999 16s-22.833 8.33398 -34.5 11.001s-21.5 4 -29.5 4c-6 0 -13.833 -1.16699 -23.5 -3.5s-19.167 -5 -28.5 -8s-17.333 -5.83301 -24 -8.5
c-4 -9.33301 -7 -24.166 -9 -44.499s-3 -42.833 -3 -67.5c0 -17.333 0.5 -36.333 1.5 -57s2.66699 -39.334 5 -56.001s4.83301 -28 7.5 -34c5.33301 -4.66699 14.333 -9.5 27 -14.5s25.334 -9 38.001 -12s21.667 -4.5 27 -4.5z" />
    <glyph glyph-name="ampersand" unicode="&#x26;" horiz-adv-x="785" 
d="M291 0c-22 0 -45.1689 5.83105 -69.502 17.498s-48.166 26.834 -71.499 45.501s-44.5 38.334 -63.5 59.001s-34.167 40 -45.5 58s-17 32.333 -17 43c0 12 6.5 25.833 19.5 41.5s29.5 32.167 49.5 49.5s40.5 33.666 61.5 48.999s39.833 28.333 56.5 39
c-22.667 37.333 -42.667 74.666 -60 111.999s-30.666 75 -39.999 113c6 7.33301 17.167 16.166 33.5 26.499s35.666 20.666 57.999 30.999s45.666 18.833 69.999 25.5s47.5 10 69.5 10c20.667 0 44 -3 70 -9s51.167 -13.667 75.5 -23s43.833 -19.333 58.5 -30
c-0.666992 -30.667 -4 -62.167 -10 -94.5s-11.667 -57.5 -17 -75.5c-7.33301 0 -14.666 0.666992 -21.999 2s-14 2.83301 -20 4.5s-10.333 2.83398 -13 3.50098l-19 125c-20.667 7.33301 -39.334 13 -56.001 17s-33.334 6.5 -50.001 7.5s-35.167 0.333008 -55.5 -2
s-44.5 -5.83301 -72.5 -10.5c4.66699 -30.667 15.5 -64 32.5 -100s38.667 -72.833 65 -110.5s55.333 -74.5 87 -110.5s64.167 -69.333 97.5 -100c0.666992 22.667 -0.166016 46 -2.49902 70s-5.33301 46.333 -9 67s-7.16699 36.667 -10.5 48l8 15h27
c34 0 70.333 1.16699 109 3.5s72.334 5.5 101.001 9.5l11 -10c-0.666992 -16.667 -2.5 -30.5 -5.5 -41.5s-5.5 -18.833 -7.5 -23.5h-149c0.666992 -20 0.833984 -41.833 0.500977 -65.5s-1.5 -46.5 -3.5 -68.5s-5.33301 -41.333 -10 -58c36 -28.667 70.5 -51.667 103.5 -69
s61.833 -26 86.5 -26h20h22c1.33301 -1.33301 2.83301 -4.66602 4.5 -9.99902s2.5 -10.666 2.5 -15.999c-2 -2 -9 -6.16699 -21 -12.5s-26.667 -12.333 -44 -18s-35.333 -8.5 -54 -8.5c-19.333 0 -45 8.33301 -77 25s-67 40 -105 70c-24.667 -18 -50.667 -34.167 -78 -48.5
s-52 -25.666 -74 -33.999s-37.667 -12.5 -47 -12.5zM308.998 74.998c6.66699 0 17.165 2.83594 31.498 8.50293s30.333 13.5 48 23.5s34.5 20.667 50.5 32c-35.333 31.333 -70.166 65.666 -104.499 102.999s-66.166 76.333 -95.499 117l-35 -33.5l-36.5 -36.5
c-11.667 -12 -21.167 -22.5 -28.5 -31.5s-11 -15.5 -11 -19.5c0 -4.66699 4 -13 12 -25s18.5 -25.833 31.5 -41.5s27.5 -30.834 43.5 -45.501s32.167 -26.834 48.5 -36.501s31.5 -14.5 45.5 -14.5z" />
    <glyph glyph-name="quotesingle" unicode="'" horiz-adv-x="189" 
d="M103 435c-8.66699 0 -16.6689 0.669922 -24.002 2.00293s-12.666 2.66602 -15.999 3.99902l-18 253c4 2 10.833 4.33301 20.5 7s17.834 4 24.501 4c7.33301 0 15 -3.66699 23 -11s15 -15.333 21 -24s9 -15.334 9 -20.001c0 -9.33301 -1.33301 -26 -4 -50
s-7 -50.833 -13 -80.5s-13.667 -57.834 -23 -84.501z" />
    <glyph glyph-name="parenleft" unicode="(" horiz-adv-x="320" 
d="M235 -200c-61.333 56.667 -106.334 124.5 -135.001 203.5s-43 161.5 -43 247.5c0 65.333 7.33301 130.666 22 195.999s35.667 128 63 188s60 115 98 165c12.667 0 23.5 -3.16699 32.5 -9.5s14.833 -12.833 17.5 -19.5c-30 -46.667 -55.167 -97.667 -75.5 -153
s-35.666 -113 -45.999 -173s-15.5 -120.333 -15.5 -181c0 -84.667 10.667 -164.167 32 -238.5s53.333 -137.166 96 -188.499c-6 -10 -13.5 -18.333 -22.5 -25s-16.833 -10.667 -23.5 -12z" />
    <glyph glyph-name="parenright" unicode=")" horiz-adv-x="320" 
d="M80 -200c-12.667 0 -23.332 3.16797 -31.999 9.50098s-14.667 12.833 -18 19.5c30 46.667 55.167 97.667 75.5 153s35.666 113.166 45.999 173.499s15.5 120.5 15.5 180.5c0 84.667 -10.5 164.167 -31.5 238.5s-53.167 137.166 -96.5 188.499c6 10 13.5 18.333 22.5 25
s16.833 10.667 23.5 12c61.333 -56.667 106.333 -124.5 135 -203.5s43 -161.5 43 -247.5c0 -65.333 -7.33301 -130.666 -22 -195.999s-35.667 -128 -63 -188s-60 -115 -98 -165z" />
    <glyph glyph-name="asterisk" unicode="*" horiz-adv-x="531" 
d="M214 303c-8.66699 1.33301 -18.1641 4.66016 -28.4971 9.99316s-19.166 11.333 -26.499 18s-11 12 -11 16c0 4.66699 3.33301 13.334 10 26.001s16.834 27.834 30.501 45.501s31.167 36.834 52.5 57.501l-1 2l-185 19c-0.666992 2.66699 -1.16699 5.33398 -1.5 8.00098
s-0.5 5.33398 -0.5 8.00098c0 6.66699 1 14.834 3 24.501s5.33301 18.167 10 25.5s11 11 19 11s19.167 -1.33301 33.5 -4s31.666 -7.16699 51.999 -13.5s42.5 -15.5 66.5 -27.5l1 3l-36 173c6.66699 4 14.5 6.83301 23.5 8.5s17.833 2.5 26.5 2.5
c7.33301 0 13.666 -0.5 18.999 -1.5s8.66602 -2.5 9.99902 -4.5c4.66699 -6 7.83398 -15.667 9.50098 -29s2.5 -28 2.5 -44s-0.666992 -31.833 -2 -47.5s-3 -29.167 -5 -40.5h3l157 92c6 -4 11.5 -9.83301 16.5 -17.5s9 -15.667 12 -24s4.5 -15.5 4.5 -21.5v-4.5
c0 -1 -0.333008 -2.16699 -1 -3.5c-2.66699 -4 -10.834 -9.83301 -24.501 -17.5s-31.834 -15.167 -54.501 -22.5s-49.334 -13.666 -80.001 -18.999v-3l141 -117c-2.66699 -6.66699 -7.66699 -14 -15 -22s-15 -14.667 -23 -20s-14.667 -8 -20 -8
c-7.33301 0 -16.333 5.16699 -27 15.5s-21.5 22.833 -32.5 37.5s-20.833 28.667 -29.5 42s-14.667 23 -18 29l-4 -1z" />
    <glyph glyph-name="plus" unicode="+" horiz-adv-x="516" 
d="M225 57v420c2 3.33301 8.66699 6.33301 20 9s27.333 4 48 4v-423c-4 -2 -11.833 -4.16699 -23.5 -6.5s-26.5 -3.5 -44.5 -3.5zM53 248c0 16 1.50098 28.332 4.50098 36.999s5.83301 14 8.5 16c44 0 89.833 0.5 137.5 1.5s93.5 2.5 137.5 4.5s81.667 4 113 6l11 -10
c-0.666992 -14.667 -2.33398 -26.667 -5.00098 -36s-5 -15.666 -7 -18.999h-400z" />
    <glyph glyph-name="comma" unicode="," horiz-adv-x="227" 
d="M62 -131c-6.66699 0 -13.3291 1.99902 -19.9961 5.99902s-12.334 8.83301 -17.001 14.5s-7.33398 10.5 -8.00098 14.5c9.33301 5.33301 20.166 14.166 32.499 26.499s23.666 25.5 33.999 39.5s17.166 25.667 20.499 35c-9.33301 4.66699 -18.833 11.834 -28.5 21.501
s-17.5 19.834 -23.5 30.501s-9 19 -9 25c0 5.33301 3 11.333 9 18s13.5 13.167 22.5 19.5s18 11.5 27 15.5s16.167 6 21.5 6s11.333 -3.16699 18 -9.5s13.334 -14 20.001 -23s12.167 -18.167 16.5 -27.5s6.5 -17 6.5 -23c0 -8 -3.16699 -19.5 -9.5 -34.5
s-14.333 -31.333 -24 -49s-20.167 -34.5 -31.5 -50.5s-22 -29.167 -32 -39.5s-18.333 -15.5 -25 -15.5z" />
    <glyph glyph-name="hyphen" unicode="-" horiz-adv-x="342" 
d="M30 270c0 14 1.16895 25.333 3.50195 34s5.16602 14.667 8.49902 18c32 0 64.667 0.833008 98 2.5s64.166 3.66699 92.499 6s50.5 4.5 66.5 6.5l16 -18c0 -9.33301 -1 -18.5 -3 -27.5s-4.66699 -16.167 -8 -21.5h-274z" />
    <glyph glyph-name="period" unicode="." horiz-adv-x="232" 
d="M108 -7c-5.33301 0 -11.999 3.33203 -19.999 9.99902s-16 14.834 -24 24.501s-14.667 19.334 -20 29.001s-8 17.5 -8 23.5s3.5 12.667 10.5 20s15.833 14.666 26.5 21.999s21 13.333 31 18s18 7 24 7s12.833 -3.33301 20.5 -10s15.167 -15 22.5 -25
s13.333 -19.833 18 -29.5s7 -17.5 7 -23.5c0 -5.33301 -3.16699 -11.833 -9.5 -19.5s-14.333 -15 -24 -22s-19.334 -12.833 -29.001 -17.5s-18.167 -7 -25.5 -7z" />
    <glyph glyph-name="slash" unicode="/" horiz-adv-x="463" 
d="M106 -91c-14.667 0 -28.168 1.83301 -40.501 5.5s-21.166 6.83398 -26.499 9.50098l229 589c23.333 59.333 42 109 56 149s23.667 69.333 29 88c18.667 -2 34.167 -5.83301 46.5 -11.5s20.5 -10.834 24.5 -15.501z" />
    <glyph glyph-name="zero" unicode="0" horiz-adv-x="579" 
d="M278 0c-20.667 0 -41.165 4.00195 -61.498 12.002s-38.833 17.667 -55.5 29s-30.834 22.166 -42.501 32.499s-19.5 17.833 -23.5 22.5c-10.667 18.667 -18.334 42.167 -23.001 70.5s-7 58.833 -7 91.5c0 28 1.33301 55.167 4 81.5s6 50.333 10 72s8 39.167 12 52.5
c8.66699 8 21 17.667 37 29s34.333 22.5 55 33.5s42.667 20.167 66 27.5s46.666 11 69.999 11c12.667 0 27.5 -2.83301 44.5 -8.5s34.167 -13 51.5 -22s32.833 -18.167 46.5 -27.5s23.834 -18 30.501 -26c8.66699 -20 14.667 -44.333 18 -73s5 -56.667 5 -84
c0 -26.667 -1.33301 -53.5 -4 -80.5s-6 -52.333 -10 -76s-8.33301 -43.834 -13 -60.501c-10 -12.667 -25.667 -27.5 -47 -44.5s-46 -31.667 -74 -44s-57.667 -18.5 -89 -18.5zM320.002 76.002c14.667 0 29.499 3.16602 44.499 9.49902s27.167 13.5 36.5 21.5
c6 16.667 10.333 38.334 13 65.001s4 52.334 4 77.001c0 25.333 -0.833008 50.333 -2.5 75s-3.83398 46.667 -6.50098 66s-5.66699 33.333 -9 42c-12.667 16.667 -31.5 30.167 -56.5 40.5s-50.833 15.5 -77.5 15.5c-14.667 0 -30.167 -2.16699 -46.5 -6.5
s-30.166 -9.5 -41.499 -15.5c-4 -9.33301 -7.16699 -22.333 -9.5 -39s-4.16602 -35 -5.49902 -55s-2 -40.333 -2 -61c0 -26 0.833008 -51 2.5 -75s4 -44.333 7 -61s6.5 -28.334 10.5 -35.001c15.333 -18.667 35.833 -34 61.5 -46s51.5 -18 77.5 -18z" />
    <glyph glyph-name="one" unicode="1" horiz-adv-x="402" 
d="M275 0c-3.33301 0 -11.998 0.835938 -25.998 2.50293l-49.5 6c-19 2.33301 -38.333 5 -58 8s-37.334 6 -53.001 9s-26.834 5.83301 -33.501 8.5c0 7.33301 1.33301 13.166 4 17.499s4.66699 7.5 6 9.5l45 5c12 1.33301 21.833 4 29.5 8s13.5 11.667 17.5 23s6 29 6 53
v235c0 17.333 1.16699 32.833 3.5 46.5s4.16602 22.834 5.49902 27.501l-2 2l-131 -13c0 10 1 19.333 3 28s3.66699 14.667 5 18c34 9.33301 68.333 20.166 103 32.499s65.334 25.166 92.001 38.499c7.33301 -0.666992 14 -2.33398 20 -5.00098s10.667 -5.66699 14 -9
c-2 -8.66699 -4.16699 -20.834 -6.5 -36.501s-4.33301 -33.167 -6 -52.5s-2.5 -39 -2.5 -59v-279c0 -12.667 -1.33301 -24.5 -4 -35.5s-5.66699 -18.167 -9 -21.5l100 -7c0.666992 -0.666992 2 -3 4 -7s3 -10 3 -18c-4 -5.33301 -11.167 -10.666 -21.5 -15.999
s-21 -9.83301 -32 -13.5s-19.833 -5.5 -26.5 -5.5z" />
    <glyph glyph-name="two" unicode="2" horiz-adv-x="560" 
d="M88 0c-4.66699 0 -10.833 3.5 -18.5 10.5s-14.667 15.167 -21 24.5s-9.5 17.666 -9.5 24.999c16.667 9.33301 38.334 24.666 65.001 45.999s54.667 46.5 84 75.5s56.833 59.833 82.5 92.5s46.667 65.167 63 97.5s24.5 62.5 24.5 90.5c-10 6 -23.5 11.167 -40.5 15.5
s-37.333 7.66602 -61 9.99902s-50.5 3.5 -80.5 3.5l-22 -122c-2.66699 -2 -7.33398 -4 -14.001 -6s-14.667 -3 -24 -3c-6.66699 6.66699 -13 16.5 -19 29.5s-11.333 27.833 -16 44.5s-8.33398 33.334 -11.001 50.001c16.667 17.333 37.834 32 63.501 44
s52.667 21.167 81 27.5s54.5 9.5 78.5 9.5c9.33301 0 21 -2.16699 35 -6.5s29 -10.166 45 -17.499s31 -15.166 45 -23.499s25.5 -16.5 34.5 -24.5s13.5 -15 13.5 -21c0 -26.667 -6.33301 -54.167 -19 -82.5s-29.167 -56.333 -49.5 -84s-42.5 -54 -66.5 -79
s-47.833 -47.667 -71.5 -68s-44.5 -37.166 -62.5 -50.499l227 -20l43 84c9.33301 0 18.166 -1.33301 26.499 -4s13.833 -5.66699 16.5 -9c0 -12.667 -0.833008 -29.667 -2.5 -51s-4.16699 -41 -7.5 -59c-7.33301 -6 -17.833 -12.833 -31.5 -20.5
s-27.667 -14.334 -42 -20.001s-26.5 -8.5 -36.5 -8.5c-5.33301 0 -15.666 1.66699 -30.999 5s-33 7.5 -53 12.5l-61.5 15c-21 5 -40 9.16699 -57 12.5s-30.167 5 -39.5 5l-18.5 -18c-8.33301 -8 -16.5 -15.333 -24.5 -22s-13.667 -10 -17 -10z" />
    <glyph glyph-name="three" unicode="3" horiz-adv-x="476" 
d="M151 -105c-9.33301 0 -22.666 3.16113 -39.999 9.49414s-33.833 13.833 -49.5 22.5s-26.5 16.334 -32.5 23.001c3.33301 10.667 6.5 18.5 9.5 23.5s6.16699 8.16699 9.5 9.5c17.333 -2.66699 35.5 -4.83398 54.5 -6.50098s37.5 -2.5 55.5 -2.5
c23.333 0 46.166 1.5 68.499 4.5s42.5 7.16699 60.5 12.5c5.33301 4.66699 10.5 13.834 15.5 27.501s9.33301 28.5 13 44.5s5.5 29.667 5.5 41c0 24.667 -8.83301 44.5 -26.5 59.5s-39.834 27 -66.501 36s-53.667 16.5 -81 22.5c0 4 0.5 9.16699 1.5 15.5
s2.66699 12.833 5 19.5s4.83301 12 7.5 16c4 0 11.167 0.166992 21.5 0.5s19.833 2.83301 28.5 7.5c24.667 14 45.167 31 61.5 51s28.5 41.333 36.5 64s12 45 12 67c-8.66699 6 -22.167 11 -40.5 15s-39.833 7.16699 -64.5 9.5s-51.667 3.5 -81 3.5l-30 -100
c-2 -2 -6.33301 -4 -13 -6s-14.667 -3 -24 -3c-6.66699 8.66699 -14.5 22.167 -23.5 40.5s-15.5 38.833 -19.5 61.5c16.667 17.333 37.5 32 62.5 44s51.333 21.167 79 27.5s53.167 9.5 76.5 9.5c8.66699 0 20.167 -2.16699 34.5 -6.5s29.833 -10.166 46.5 -17.499
s32.5 -15.166 47.5 -23.499s27.167 -16.5 36.5 -24.5s14 -15 14 -21c0 -28.667 -7 -58.167 -21 -88.5s-31.833 -57.5 -53.5 -81.5s-44.5 -41.333 -68.5 -52v-4c26.667 -7.33301 51 -16.5 73 -27.5s39.667 -24.667 53 -41s20 -36.166 20 -59.499c0 -12 -2.5 -26.5 -7.5 -43.5
s-11.333 -34.167 -19 -51.5s-15.667 -32.666 -24 -45.999s-16.166 -22.666 -23.499 -27.999c-10 -8 -26.167 -16.167 -48.5 -24.5s-46.833 -15.333 -73.5 -21s-52.667 -8.5 -78 -8.5z" />
    <glyph glyph-name="four" unicode="4" horiz-adv-x="552" 
d="M323 -106c-1.33301 0 -4.16895 1 -8.50195 3s-9.16602 4.66699 -14.499 8c4 10.667 7.83301 25.834 11.5 45.501s5.5 39.167 5.5 58.5v51h-243c-8.66699 5.33301 -18 14.166 -28 26.499s-16.667 27.833 -20 46.5l274 413c6.66699 2 15.167 4.33301 25.5 7
s21.5 5.33398 33.5 8.00098s23.667 4.33398 35 5.00098l23 -15c-0.666992 -6 -1.5 -15.167 -2.5 -27.5s-2 -26.5 -3 -42.5s-1.66699 -32.833 -2 -50.5s-0.5 -34.834 -0.5 -51.501v-249l97 5l10 -16c-0.666992 -6 -2.16699 -13.167 -4.5 -21.5
s-4.66602 -15.833 -6.99902 -22.5s-4.5 -11.334 -6.5 -14.001h-89v-148c-5.33301 -2.66699 -13 -5.5 -23 -8.5s-20.5 -5.5 -31.5 -7.5s-21.5 -3 -31.5 -3zM110.997 128h202.999v235c0 18 1.33301 35.167 4 51.5s5.33398 28.5 8.00098 36.5l-4 1z" />
    <glyph glyph-name="five" unicode="5" horiz-adv-x="459" 
d="M138 -105c-9.33301 0 -22.6611 3.16895 -39.9941 9.50195s-33.833 13.833 -49.5 22.5s-26.5 16.334 -32.5 23.001c2.66699 11.333 5.66699 19.333 9 24s6.33301 7.66699 9 9c18 -2.66699 36.333 -4.83398 55 -6.50098s37 -2.5 55 -2.5c23.333 0 45.166 1.33301 65.499 4
s39.166 7 56.499 13c4 2.66699 8.16699 9.16699 12.5 19.5s8.66602 23 12.999 38s7.83301 31 10.5 48s4 33.5 4 49.5c0 9.33301 -5.66699 18.666 -17 27.999s-26.166 18.666 -44.499 27.999s-38.166 18.5 -59.499 27.5l-63 25.5l-42 17
c-12.667 5.33301 -22.834 10 -30.501 14s-12.167 7.33301 -13.5 10c0 27.333 2.66699 55.333 8 84s12.333 56.167 21 82.5s18 49.5 28 69.5c16 3.33301 36.667 6.33301 62 9s52.166 5.33398 80.499 8.00098s55.666 5.66699 81.999 9s48.5 7.33301 66.5 12l21 -10
c0 -11.333 -1.83301 -23.333 -5.5 -36s-8 -24.5 -13 -35.5s-10.167 -19.833 -15.5 -26.5c-30.667 4.66699 -65.667 7.83398 -105 9.50098s-75 2.5 -107 2.5c-5.33301 -12 -10.333 -26.167 -15 -42.5s-8.33398 -33.333 -11.001 -51s-4.33398 -34.167 -5.00098 -49.5l64 -19
c46 -13.333 84.833 -27 116.5 -41s55.667 -30.167 72 -48.5s24.5 -41.833 24.5 -70.5c0 -30.667 -4.33301 -59.834 -13 -87.501s-19.167 -51.334 -31.5 -71.001s-23.5 -34.167 -33.5 -43.5c-10.667 -8 -26.167 -16.167 -46.5 -24.5s-43 -15.5 -68 -21.5s-49.833 -9 -74.5 -9
z" />
    <glyph glyph-name="six" unicode="6" horiz-adv-x="526" 
d="M262 0c-20 0 -39.835 3.83105 -59.502 11.498s-37.667 17.167 -54 28.5s-30.333 22.166 -42 32.499s-19.5 17.833 -23.5 22.5c-10.667 19.333 -18 44.166 -22 74.499s-6 62.833 -6 97.5c0 51.333 4.33301 97 13 137s19.334 74.5 32.001 103.5s25.667 52.5 39 70.5
s24.666 30.667 33.999 38c6 4.66699 16 10.167 30 16.5s29.5 12.333 46.5 18s33.167 10.334 48.5 14.001s28 5.5 38 5.5s23.333 -3.16699 40 -9.5s32.834 -13.833 48.501 -22.5s26.5 -16.334 32.5 -23.001c-2.66699 -10 -5.5 -17.5 -8.5 -22.5s-6.16699 -8.5 -9.5 -10.5
c-18.667 3.33301 -36.667 5.5 -54 6.5s-33 1.5 -47 1.5c-11.333 0 -25 -0.666992 -41 -2s-31.667 -3.16602 -47 -5.49902s-27.333 -5.16602 -36 -8.49902c-7.33301 -6.66699 -17.166 -28.834 -29.499 -66.501s-22.833 -88.5 -31.5 -152.5
c11.333 6.66699 25.833 13.834 43.5 21.501s36 14.5 55 20.5s35.833 9 50.5 9c15.333 0 31.666 -3.5 48.999 -10.5s34 -15.333 50 -25s29.667 -19.167 41 -28.5s18.333 -16.333 21 -21c6 -14 10.333 -30.667 13 -50s4 -37.666 4 -54.999
c0 -24.667 -1.83301 -46.167 -5.5 -64.5s-8.16699 -34.166 -13.5 -47.499c-9.33301 -12.667 -23.833 -27.167 -43.5 -43.5s-42.667 -30.5 -69 -42.5s-55.166 -18 -86.499 -18zM299.998 74.998c6.66699 0 14.333 1.00098 23 3.00098s17.667 5.16699 27 9.5
s17.333 9.16602 24 14.499c3.33301 9.33301 6.16602 22.333 8.49902 39s3.5 35.334 3.5 56.001c0 14.667 -0.833008 29.5 -2.5 44.5s-4.5 27.167 -8.5 36.5c-9.33301 10 -21.333 18.5 -36 25.5s-29.167 12.333 -43.5 16s-26.5 5.5 -36.5 5.5
c-9.33301 0 -20.666 -1.33301 -33.999 -4s-26.5 -5.5 -39.5 -8.5s-23.5 -5.83301 -31.5 -8.5c-1.33301 -6.66699 -2.33301 -14.834 -3 -24.501s-1 -19.834 -1 -30.501c0 -15.333 0.666992 -30.833 2 -46.5s3.33301 -29.167 6 -40.5s5.66699 -18.666 9 -21.999
c11.333 -13.333 25 -24.833 41 -34.5s32.167 -17.167 48.5 -22.5s30.833 -8 43.5 -8z" />
    <glyph glyph-name="seven" unicode="7" horiz-adv-x="524" 
d="M216 -106c-8 1.33301 -16.998 4.00195 -26.998 8.00195s-19.667 8.66699 -29 14s-17.5 10.833 -24.5 16.5s-12.167 11.167 -15.5 16.5c0 14.667 4.33301 34 13 58s20.334 51 35.001 81s31 61.167 49 93.5l54.5 96l53 88l44 69.5l25.5 40h-237l-25 -86
c-1.33301 -1.33301 -5.16602 -3.16602 -11.499 -5.49902s-14.833 -3.5 -25.5 -3.5c-6 9.33301 -12.333 20.166 -19 32.499s-12.334 24.833 -17.001 37.5s-7.33398 24 -8.00098 34c5.33301 8.66699 13 18.5 23 29.5s20.833 21.333 32.5 31s22.167 16.5 31.5 20.5
c3.33301 0 13.166 -0.5 29.499 -1.5s35.666 -2.33301 57.999 -4s45 -3.5 68 -5.5s43.667 -3.5 62 -4.5s31.166 -1.5 38.499 -1.5c3.33301 0 10.5 1.5 21.5 4.5l32.5 8.5c10.667 2.66699 16.667 3.66699 18 3c7.33301 -2.66699 14.333 -8.83398 21 -18.501s10 -19.5 10 -29.5
l-121 -205c-24 -40.667 -44.667 -77.667 -62 -111s-31.5 -63.833 -42.5 -91.5s-19.167 -53 -24.5 -76s-8 -44.167 -8 -63.5c0 -8 0.666992 -16 2 -24s3 -15.333 5 -22c-3.33301 -6.66699 -8.66602 -12.834 -15.999 -18.501s-12 -9.16699 -14 -10.5z" />
    <glyph glyph-name="eight" unicode="8" horiz-adv-x="536" 
d="M253 0c-18.667 0 -38.002 3.50098 -58.002 10.501s-38.833 15.833 -56.5 26.5s-33 21.167 -46 31.5s-21.5 18.833 -25.5 25.5c-2.66699 7.33301 -4.83398 17.666 -6.50098 30.999s-2.5 27 -2.5 41c0 15.333 1 30.833 3 46.5s5.33301 29.5 10 41.5
c5.33301 10.667 14.5 21.5 27.5 32.5s27.333 21.333 43 31s29.167 17.5 40.5 23.5l-50.5 22c-16.333 7.33301 -28.166 14.333 -35.499 21c-4.66699 9.33301 -9 24.333 -13 45s-6 42.334 -6 65.001c0 20 1.33301 37.333 4 52s6.66699 27.334 12 38.001
c16 14 35.333 27.667 58 41s46.667 24.166 72 32.499s50.333 12.5 75 12.5c14 0 30.833 -3.16699 50.5 -9.5s38.167 -13.833 55.5 -22.5s29.333 -16.667 36 -24c4.66699 -9.33301 8.5 -22.5 11.5 -39.5s4.5 -34.5 4.5 -52.5c0 -12.667 -0.666992 -27 -2 -43
s-3.66602 -28.333 -6.99902 -37c-8.66699 -16 -22.167 -30.667 -40.5 -44s-36.166 -25.333 -53.499 -36c17.333 -6 33.166 -12 47.499 -18s26.833 -12 37.5 -18s18.667 -11.667 24 -17c5.33301 -10.667 9.33301 -23.834 12 -39.501s4 -33.167 4 -52.5
c0 -22.667 -1.33301 -43.667 -4 -63s-5.66699 -35.333 -9 -48c-16 -20 -35.833 -38 -59.5 -54s-48.667 -28.667 -75 -38s-52.166 -14 -77.499 -14zM280.998 74.001c12 0 24.3311 1.33105 36.998 3.99805s24.334 6.16699 35.001 10.5s18.667 8.5 24 12.5
c3.33301 7.33301 6 17.5 8 30.5s3 28.5 3 46.5c0 18.667 -1 34.834 -3 48.501s-4.66699 24.5 -8 32.5c-6.66699 3.33301 -14.834 7.16602 -24.501 11.499s-23 9.83301 -40 16.5s-40.5 15 -70.5 25l-37.5 -20.5c-16.333 -9 -31.166 -21.167 -44.499 -36.5
c-4 -7.33301 -7 -17.5 -9 -30.5s-3 -27.5 -3 -43.5c0 -8.66699 0.333008 -17 1 -25s1.66699 -15 3 -21c10 -11.333 23.333 -21.666 40 -30.999s33.334 -16.666 50.001 -21.999s29.667 -8 39 -8zM289.996 382.999l30.9971 14.5029c13.333 6.33301 25 15.5 35 27.5
c4 10.667 7.16699 23.667 9.5 39s3.5 31.333 3.5 48c0 8.66699 -0.5 18.5 -1.5 29.5s-3.16699 19.833 -6.5 26.5c-6 6 -15 11.167 -27 15.5s-25.167 7.66602 -39.5 9.99902s-28.833 3.5 -43.5 3.5c-7.33301 0 -15.666 -0.333008 -24.999 -1
s-18.666 -1.83398 -27.999 -3.50098s-17.666 -3.83398 -24.999 -6.50098c-2.66699 -10 -4.66699 -20.333 -6 -31s-2 -21.334 -2 -32.001c0 -22.667 1.5 -43.167 4.5 -61.5s7.16699 -31.833 12.5 -40.5c7.33301 -2.66699 13.5 -5.16699 18.5 -7.5
s10.833 -4.66602 17.5 -6.99902l27 -9z" />
    <glyph glyph-name="nine" unicode="9" horiz-adv-x="525" 
d="M206 -105c-9.33301 0 -22.6699 3.16309 -40.0029 9.49609s-33.833 13.833 -49.5 22.5s-26.5 16.334 -32.5 23.001c2 9.33301 4.83301 16.833 8.5 22.5s6.83398 9.16699 9.50098 10.5c17.333 -2.66699 34.833 -4.83398 52.5 -6.50098s34.5 -2.5 50.5 -2.5
c12 0 24.333 0.833008 37 2.5s25 3.83398 37 6.50098s22.333 5.33398 31 8.00098c6 5.33301 13.833 17.666 23.5 36.999s18.834 44.833 27.501 76.5s14.334 67.5 17.001 107.5c-10.667 -6 -25.167 -13.167 -43.5 -21.5s-37.333 -15.666 -57 -21.999s-37.167 -9.5 -52.5 -9.5
s-31.833 3.5 -49.5 10.5s-34.5 15.5 -50.5 25.5s-29.667 19.5 -41 28.5s-18.333 15.833 -21 20.5c-6 14 -10.333 30.5 -13 49.5s-4 37.5 -4 55.5c0 22.667 1.83301 43.834 5.5 63.501s8.16699 35.834 13.5 48.501c10 14 25 29 45 45s43.333 29.833 70 41.5s55 17.5 85 17.5
c20 0 39.333 -3.33301 58 -10s36 -14.834 52 -24.501s29.667 -19.167 41 -28.5s19 -16.666 23 -21.999c10.667 -18.667 18.834 -44.334 24.501 -77.001s8.5 -74.667 8.5 -126c0 -33.333 -3.16699 -67.166 -9.5 -101.499s-14.5 -66.666 -24.5 -96.999
s-20.833 -56.333 -32.5 -78s-22.834 -36.834 -33.501 -45.501c-9.33301 -8 -23.5 -16.667 -42.5 -26s-39.667 -17.333 -62 -24s-42.833 -10 -61.5 -10zM266.996 239.996c9.33301 0 21.1689 1.50293 35.502 4.50293s28.5 6.66699 42.5 11s24.667 7.83301 32 10.5
c0.666992 5.33301 1.16699 11.166 1.5 17.499s0.5 13.833 0.5 22.5c0 15.333 -0.833008 31.5 -2.5 48.5s-3.83398 32.167 -6.50098 45.5s-6 22 -10 26c-10.667 13.333 -24 24.666 -40 33.999s-32.5 16.666 -49.5 21.999s-32.5 8 -46.5 8
c-6.66699 0 -14.5 -1.16699 -23.5 -3.5s-17.833 -5.5 -26.5 -9.5s-16.334 -8.66699 -23.001 -14c-2.66699 -5.33301 -5 -13.333 -7 -24s-3.5 -22.167 -4.5 -34.5s-1.5 -24.5 -1.5 -36.5c0 -14.667 1 -29.334 3 -44.001s5.33301 -26.667 10 -36
c8.66699 -9.33301 20 -17.666 34 -24.999s28.667 -13 44 -17s28 -6 38 -6z" />
    <glyph glyph-name="colon" unicode=":" horiz-adv-x="232" 
d="M108 -7c-5.33301 0 -11.999 3.33203 -19.999 9.99902s-16 14.834 -24 24.501s-14.667 19.334 -20 29.001s-8 17.5 -8 23.5s3.5 12.667 10.5 20s15.833 14.666 26.5 21.999s21 13.333 31 18s18 7 24 7s12.833 -3.33301 20.5 -10s15.167 -15 22.5 -25
s13.333 -19.833 18 -29.5s7 -17.5 7 -23.5c0 -5.33301 -3.16699 -11.833 -9.5 -19.5s-14.333 -15 -24 -22s-19.334 -12.833 -29.001 -17.5s-18.167 -7 -25.5 -7zM108.001 358.999c-5.33301 0 -11.999 3.33203 -19.999 9.99902s-16 14.834 -24 24.501
s-14.667 19.334 -20 29.001s-8 17.5 -8 23.5s3.5 12.667 10.5 20s15.833 14.666 26.5 21.999s21 13.333 31 18s18 7 24 7s12.833 -3.33301 20.5 -10s15.167 -15 22.5 -25s13.333 -19.833 18 -29.5s7 -17.5 7 -23.5c0 -5.33301 -3.16699 -11.833 -9.5 -19.5
s-14.333 -15 -24 -22s-19.334 -12.833 -29.001 -17.5s-18.167 -7 -25.5 -7z" />
    <glyph glyph-name="semicolon" unicode=";" horiz-adv-x="225" 
d="M62 -131c-6.66699 0 -13.3291 1.99902 -19.9961 5.99902s-12.334 8.83301 -17.001 14.5s-7.33398 10.5 -8.00098 14.5c9.33301 5.33301 20.166 14.166 32.499 26.499s23.666 25.5 33.999 39.5s17.166 25.667 20.499 35c-9.33301 4.66699 -18.833 11.834 -28.5 21.501
s-17.5 19.834 -23.5 30.501s-9 19 -9 25c0 5.33301 3 11.333 9 18s13.5 13.167 22.5 19.5s18 11.5 27 15.5s16.167 6 21.5 6s11.333 -3.16699 18 -9.5s13.334 -14 20.001 -23s12.167 -18.167 16.5 -27.5s6.5 -17 6.5 -23c0 -8 -3.16699 -19.5 -9.5 -34.5
s-14.333 -31.333 -24 -49s-20.167 -34.5 -31.5 -50.5s-22 -29.167 -32 -39.5s-18.333 -15.5 -25 -15.5zM101.005 358.999c-5.33301 0 -11.999 3.33203 -19.999 9.99902s-16 14.834 -24 24.501s-14.667 19.334 -20 29.001s-8 17.5 -8 23.5s3.5 12.667 10.5 20
s15.833 14.666 26.5 21.999s21 13.333 31 18s18 7 24 7s12.833 -3.33301 20.5 -10s15.167 -15 22.5 -25s13.333 -19.833 18 -29.5s7 -17.5 7 -23.5c0 -5.33301 -3.16699 -11.833 -9.5 -19.5s-14.333 -15 -24 -22s-19.334 -12.833 -29.001 -17.5s-18.167 -7 -25.5 -7z" />
    <glyph glyph-name="less" unicode="&#x3c;" horiz-adv-x="406" 
d="M332 47l-109.001 66.998l-106 69.5c-32.667 22.333 -59.167 41.833 -79.5 58.5s-30.5 28.334 -30.5 35.001s10.167 18.334 30.5 35.001s46.833 36 79.5 58l106 69.5l109 68.5c5.33301 -2.66699 11.5 -7 18.5 -13s11.833 -14.333 14.5 -25l-246 -191v-7l246 -190
c-4 -10 -9.16699 -17.833 -15.5 -23.5s-12.166 -9.5 -17.499 -11.5z" />
    <glyph glyph-name="equal" unicode="=" horiz-adv-x="516" 
d="M53 328c0 16 1.50098 28.332 4.50098 36.999s5.83301 14 8.5 16c44 0 89.833 0.5 137.5 1.5s93.5 2.5 137.5 4.5s81.667 4 113 6l11 -10c-0.666992 -14.667 -2.33398 -26.667 -5.00098 -36s-5 -15.666 -7 -18.999h-400zM53.001 167.999
c0 16 1.50098 28.332 4.50098 36.999s5.83301 14 8.5 16c44 0 89.833 0.5 137.5 1.5s93.5 2.5 137.5 4.5s81.667 4 113 6l11 -10c-0.666992 -14.667 -2.33398 -26.667 -5.00098 -36s-5 -15.666 -7 -18.999h-400z" />
    <glyph glyph-name="greater" unicode="&#x3e;" horiz-adv-x="406" 
d="M74 47c-5.33301 2.66699 -11.334 7.00195 -18.001 13.002s-11.667 14.333 -15 25l246 191v7l-246 190c4 10 9.33301 17.833 16 23.5s12.334 9.5 17.001 11.5l109.5 -67l105.5 -69.5c32.667 -22.333 59.167 -41.833 79.5 -58.5s30.5 -28.334 30.5 -35.001
s-10.167 -18.334 -30.5 -35.001s-46.833 -36 -79.5 -58l-105.5 -69.5z" />
    <glyph glyph-name="question" unicode="?" horiz-adv-x="519" 
d="M213 216c-8.66699 15.333 -16.167 33.3359 -22.5 54.0029s-11.166 42.167 -14.499 64.5s-5 43.166 -5 62.499c9.33301 10 22.666 19.833 39.999 29.5s35.833 18.834 55.5 27.501l54 23c16.333 6.66699 28.166 11.667 35.499 15c3.33301 13.333 6 30 8 50s3 41.333 3 64
c0 15.333 -0.5 29.5 -1.5 42.5s-2.83301 24.833 -5.5 35.5c-8 3.33301 -17.5 6.16602 -28.5 8.49902s-22.5 4.16602 -34.5 5.49902s-24 2 -36 2c-11.333 0 -23.5 -0.666992 -36.5 -2s-25.5 -3.16602 -37.5 -5.49902s-23 -5.5 -33 -9.5l-19 -122
c-5.33301 -2.66699 -14 -5.33398 -26 -8.00098s-22 -4 -30 -4c-3.33301 10 -7.16602 25.167 -11.499 45.5s-8 42 -11 65s-4.5 43.167 -4.5 60.5c15.333 10 34.5 19.667 57.5 29s47.833 17.166 74.5 23.499s52.667 9.5 78 9.5c18 0 39.167 -3.66699 63.5 -11
s48.5 -16.5 72.5 -27.5s44 -22.167 60 -33.5c3.33301 -12.667 5.83301 -28.5 7.5 -47.5s2.5 -38.5 2.5 -58.5c0 -25.333 -1.33301 -50.333 -4 -75s-6.66699 -44.334 -12 -59.001c-7.33301 -12 -20.5 -24 -39.5 -36s-39.333 -23.167 -61 -33.5l-58 -27
c-17 -7.66699 -27.5 -13.167 -31.5 -16.5c-1.33301 -6.66699 -2.33301 -15.667 -3 -27s-1 -21 -1 -29c0 -10.667 0.5 -21.667 1.5 -33s1.83301 -22.666 2.5 -33.999c-4 -2.66699 -10.333 -6 -19 -10s-18.667 -6.66699 -30 -8zM237 -6.99707
c-5.33301 0 -11.999 3.33203 -19.999 9.99902s-16 14.834 -24 24.501s-14.667 19.334 -20 29.001s-8 17.5 -8 23.5s3.5 12.667 10.5 20s15.833 14.666 26.5 21.999s21 13.333 31 18s18 7 24 7s12.833 -3.33301 20.5 -10s15.167 -15 22.5 -25s13.333 -19.833 18 -29.5
s7 -17.5 7 -23.5c0 -5.33301 -3.16699 -11.833 -9.5 -19.5s-14.333 -15 -24 -22s-19.334 -12.833 -29.001 -17.5s-18.167 -7 -25.5 -7z" />
    <glyph glyph-name="at" unicode="@" horiz-adv-x="978" 
d="M479 -200c-28 0 -56.6611 3.66211 -85.9941 10.9951s-58 16.833 -86 28.5s-53.833 24 -77.5 37s-43.834 25.5 -60.501 37.5s-28.667 21.667 -36 29c-11.333 11.333 -21.333 27 -30 47s-16 42.333 -22 67s-10.5 50 -13.5 76s-4.5 50.667 -4.5 74
c0 44 2.83301 85.667 8.5 125s13 74.833 22 106.5s18.5 57.5 28.5 77.5c23.333 21.333 52.666 43 87.999 65s73.5 42.333 114.5 61s82.333 33.667 124 45s80.5 17 116.5 17c20.667 0 43.667 -3 69 -9s51 -13.833 77 -23.5s50.5 -20.167 73.5 -31.5
s42.833 -22.666 59.5 -33.999s28 -21.666 34 -30.999c16.667 -25.333 28.834 -54.666 36.501 -87.999s11.5 -68 11.5 -104c0 -38 -3.5 -77.167 -10.5 -117.5s-17.333 -78.666 -31 -114.999s-30.5 -67.833 -50.5 -94.5c-6 -6 -16.833 -13.333 -32.5 -22
s-32.834 -16.5 -51.501 -23.5s-35.667 -10.5 -51 -10.5c-14 0 -27.5 2.83301 -40.5 8.5s-24.167 12.667 -33.5 21s-16.333 16.166 -21 23.499c-10.667 -8 -23.334 -16.167 -38.001 -24.5s-30.167 -15.166 -46.5 -20.499s-32.833 -8 -49.5 -8c-16 0 -32.333 3.33301 -49 10
s-32.667 14.834 -48 24.501s-28.333 19.334 -39 29.001s-18 17.167 -22 22.5c-4.66699 6 -9 16.667 -13 32s-7.33301 32.5 -10 51.5s-4 36.5 -4 52.5c0 39.333 2.5 77 7.5 113s10.5 64.333 16.5 85c9.33301 6 21.666 13.5 36.999 22.5s32.5 17.833 51.5 26.5
s38.667 16 59 22s39.833 9 58.5 9c9.33301 0 22.166 -2 38.499 -6s34.166 -9.16699 53.499 -15.5s37.666 -12.666 54.999 -18.999s31 -11.833 41 -16.5l6 -18c-5.33301 -6.66699 -10 -14.334 -14 -23.001s-7.16699 -20.334 -9.5 -35.001s-3.5 -34 -3.5 -58v-236
c8.66699 -2.66699 19.5 -5.16699 32.5 -7.5s24.833 -3.5 35.5 -3.5c14.667 12 28 28.333 40 49s22.5 43.834 31.5 69.501s15.833 52.334 20.5 80.001s7 54.5 7 80.5c0 45.333 -3.66699 83.833 -11 115.5s-17 57.167 -29 76.5c-8.66699 8 -22.667 17.5 -42 28.5
s-42 22 -68 33s-52.667 20 -80 27s-53.333 10.5 -78 10.5c-20.667 0 -46.167 -3.66699 -76.5 -11s-62.166 -17.333 -95.499 -30s-65.5 -27.334 -96.5 -44.001s-57.833 -34.667 -80.5 -54c-15.333 -40.667 -26.5 -83.834 -33.5 -129.501s-10.5 -93.5 -10.5 -143.5
c0 -27.333 2 -55.833 6 -85.5s9.66699 -57.167 17 -82.5s16 -45.333 26 -60c10.667 -10.667 27.334 -23 50.001 -37s48.334 -27.833 77.001 -41.5s58 -25 88 -34s58 -13.5 84 -13.5c13.333 0 28.666 1 45.999 3s34.5 4.33301 51.5 7s31.5 5.33398 43.5 8.00098
c3.33301 -2.66699 6.16602 -6.33398 8.49902 -11.001s3.83301 -10 4.5 -16c-15.333 -12 -34 -22.167 -56 -30.5s-43.333 -14.833 -64 -19.5s-37.667 -7 -51 -7zM483.006 77.9951c9.33301 0 21.168 1.50195 35.501 4.50195s28.5 6.66699 42.5 11s24.667 8.16602 32 11.499
v286c-10 4.66699 -22.333 9.33398 -37 14.001s-28.834 8.66699 -42.501 12s-24.834 5 -33.501 5c-7.33301 0 -16.666 -0.666992 -27.999 -2s-22.333 -3 -33 -5s-19.667 -4.33301 -27 -7c-2 -6.66699 -4.16699 -17.834 -6.5 -33.501s-4.16602 -32 -5.49902 -49
s-2 -31.5 -2 -43.5c0 -20.667 1.16699 -45.334 3.5 -74.001s6.5 -52.667 12.5 -72c5.33301 -6.66699 13.5 -14.667 24.5 -24s22.667 -17.333 35 -24s22.166 -10 29.499 -10z" />
    <glyph glyph-name="A" unicode="A" horiz-adv-x="795" 
d="M246 0c-3.33301 0 -11.3369 0.663086 -24.0039 1.99609s-28 3.33301 -46 6l-55.5 8c-19 2.66699 -36.833 5.66699 -53.5 9s-30 6.33301 -40 9c0 6 1.33301 11.667 4 17s5.33398 9.33301 8.00098 12h9c8.66699 0 17.5 2.83301 26.5 8.5s18.167 15.334 27.5 29.001
s18.833 32.334 28.5 56.001s19.834 53.834 30.501 90.501l114 397c6 6 15.167 13.167 27.5 21.5s26 16.666 41 24.999s29.333 15.333 43 21s24.167 8.5 31.5 8.5c9.33301 0 21.5 -3 36.5 -9s30.333 -13.5 46 -22.5s28.167 -18.167 37.5 -27.5l135 -572
c2 -6.66699 4.5 -12.334 7.5 -17.001s9.5 -7.33398 19.5 -8.00098l63 -4c2 -2.66699 4 -5 6 -7s3.33301 -8.33301 4 -19c-5.33301 -4.66699 -12.5 -9.66699 -21.5 -15s-18.667 -9.83301 -29 -13.5s-19.833 -5.5 -28.5 -5.5c-6 0 -16.667 1 -32 3s-32.833 4.66699 -52.5 8
s-39.167 6.83301 -58.5 10.5s-36.666 7.33398 -51.999 11.001s-26.333 6.5 -33 8.5c0 6.66699 1.66699 12.334 5 17.001s5.33301 7.33398 6 8.00098h34c10.667 0 19.667 0.666992 27 2s12.333 6 15 14s1.66699 21.667 -3 41l-36 163h-257l-40 -142
c-4 -14 -8.83301 -26.167 -14.5 -36.5s-11.667 -18.5 -18 -24.5s-13.5 -10 -21.5 -12l153 -12c0.666992 -2 2 -5.16699 4 -9.5s3 -9.83301 3 -16.5c-5.33301 -5.33301 -12.666 -10.666 -21.999 -15.999s-19 -9.5 -29 -12.5s-18.667 -4.5 -26 -4.5zM272.996 343.996
c34.667 0 66.832 0.666016 96.499 1.99902s55.5 2.83301 77.5 4.5s38.667 3.5 50 5.5l-58 257c-14.667 10 -29.167 17.833 -43.5 23.5s-28.166 9.83398 -41.499 12.501z" />
    <glyph glyph-name="B" unicode="B" horiz-adv-x="703" 
d="M465 0c-18 0 -40.665 0.671875 -67.998 2.00488s-57.166 3.16602 -89.499 5.49902s-64.5 5 -96.5 8s-61.833 6 -89.5 9s-50.167 6.16699 -67.5 9.5c0 5.33301 1 10.5 3 15.5s4.33301 8.83301 7 11.5l29 4c13.333 2 23.5 5.66699 30.5 11s12 15 15 29s4.5 34.333 4.5 61
v402c0 18 1.66699 34.833 5 50.5s8 25.5 14 29.5h-97c-1.33301 2.66699 -3.33301 5.5 -6 8.5s-4.66699 7.83301 -6 14.5c4 4.66699 10.167 9.5 18.5 14.5s16.833 9.33301 25.5 13s15 5.5 19 5.5h346c17.333 -4.66699 34.833 -11.334 52.5 -20.001
s34.167 -18.334 49.5 -29.001s27.666 -21.667 36.999 -33c4 -8.66699 7 -19.167 9 -31.5s3 -25.166 3 -38.499c0 -21.333 -1.66699 -43.166 -5 -65.499s-7.83301 -42 -13.5 -59s-12.5 -29.167 -20.5 -36.5c-9.33301 -4.66699 -22.333 -9.83398 -39 -15.501
s-33.667 -9.83398 -51 -12.501l-1 -4c31.333 -3.33301 59.666 -9.66602 84.999 -18.999s43.666 -18 54.999 -26c7.33301 -14 12.333 -29.833 15 -47.5s4 -34.834 4 -51.501c0 -14.667 -1 -29.334 -3 -44.001s-4.5 -28.667 -7.5 -42s-6.83301 -26 -11.5 -38
c-6.66699 -10 -19 -21.833 -37 -35.5s-37.667 -25.834 -59 -36.501s-41 -17 -59 -19zM237.002 72.0049h252c8.66699 8 15.667 19 21 33s9.33301 29.5 12 46.5s4 33.5 4 49.5c0 13.333 -1 27 -3 41s-4.66699 27 -8 39c-8 6.66699 -19.5 14 -34.5 22s-33.5 15 -55.5 21
s-48.333 9 -79 9h-91v-193c0 -16 -2 -30 -6 -42s-8 -20.667 -12 -26zM255.002 390.005c27.333 0.666992 52.998 1.49902 76.998 2.49902s47.5 2.33301 70.5 4s45.833 3.83398 68.5 6.50098c11.333 15.333 19.833 33.833 25.5 55.5s8.5 43.834 8.5 66.501
c0 21.333 -2.33301 41.166 -7 59.499s-12.667 32.833 -24 43.5c-11.333 4.66699 -25.666 8.5 -42.999 11.5s-35.166 5.16699 -53.499 6.5s-34.833 2 -49.5 2c-24.667 0 -43 -7.33301 -55 -22s-18 -33.667 -18 -57v-179z" />
    <glyph glyph-name="C" unicode="C" horiz-adv-x="684" 
d="M367 0c-20.667 0 -43.8281 3.66602 -69.4951 10.999s-50.834 16.5 -75.501 27.5s-46.334 22.167 -65.001 33.5s-31.667 21.333 -39 30c-16 18 -28.333 46.333 -37 85s-13 82.334 -13 131.001c0 40 2.16699 79.333 6.5 118s9.83301 73.5 16.5 104.5
s13.334 54.167 20.001 69.5c15.333 13.333 34.666 26.333 57.999 39s48.666 24.5 75.999 35.5s54.666 19.667 81.999 26s53 9.5 77 9.5c27.333 0 54.833 -3.16699 82.5 -9.5s53.167 -14.5 76.5 -24.5s42.333 -20.333 57 -31c-2 -41.333 -5.83301 -77.5 -11.5 -108.5
s-10.5 -53.5 -14.5 -67.5c-17.333 0.666992 -31 2.16699 -41 4.5s-17.333 4.5 -22 6.5l-23 125c-9.33301 4.66699 -21.666 9.16699 -36.999 13.5s-30.5 8 -45.5 11s-27.833 4.5 -38.5 4.5c-14.667 0 -32.167 -1.66699 -52.5 -5s-40.5 -7.83301 -60.5 -13.5
s-37 -12.167 -51 -19.5c-8 -18.667 -14.833 -41.667 -20.5 -69s-9.83398 -56.333 -12.501 -87s-4 -60.334 -4 -89.001c0 -29.333 1.33301 -57.666 4 -84.999s6.66699 -52.166 12 -74.499s11.333 -40.833 18 -55.5c6 -6 16 -13 30 -21s29.5 -15.5 46.5 -22.5
s34 -12.833 51 -17.5s31.833 -7 44.5 -7c12 0 25 0.666992 39 2s27.333 3.16602 40 5.49902s22.667 5.16602 30 8.49902l54 152c13.333 0 25.666 -1.83301 36.999 -5.5s20 -7.16699 26 -10.5c0 -16.667 -0.833008 -35 -2.5 -55l-5 -59
c-1.66699 -19.333 -3.5 -36.333 -5.5 -51c-12.667 -8 -30.667 -17.167 -54 -27.5s-50.5 -19.166 -81.5 -26.499s-65.167 -11 -102.5 -11z" />
    <glyph glyph-name="D" unicode="D" horiz-adv-x="773" 
d="M483 0c-20 0 -44.999 0.833008 -74.999 2.5s-62.167 3.66699 -96.5 6s-68.333 5 -102 8s-64.167 6 -91.5 9s-48.666 5.83301 -63.999 8.5c0 5.33301 1 10.5 3 15.5s4.33301 8.83301 7 11.5l29 4c13.333 2 23.5 5.66699 30.5 11s12 15 15 29s4.5 34.333 4.5 61v402
c0 18.667 1.16699 33.667 3.5 45s5.16602 19.833 8.49902 25.5s5.66602 8.83398 6.99902 9.50098h-97c-2.66699 2.66699 -5.16699 6 -7.5 10s-3.83301 8.33301 -4.5 13c4 4.66699 10.167 9.5 18.5 14.5s16.833 9.33301 25.5 13s15 5.5 19 5.5h395
c11.333 -2.66699 23.833 -6.83398 37.5 -12.501s27.667 -12.334 42 -20.001s27.5 -15.667 39.5 -24s21.333 -16.166 28 -23.499c18.667 -34.667 31.167 -73.167 37.5 -115.5s9.5 -83.5 9.5 -123.5c0 -40.667 -2.5 -79.5 -7.5 -116.5s-11.5 -70.333 -19.5 -100
s-17.333 -54.167 -28 -73.5c-10 -10 -22 -20.167 -36 -30.5s-28.833 -19.833 -44.5 -28.5s-31 -16.167 -46 -22.5s-28.5 -10.833 -40.5 -13.5zM237.001 72h280.001c11.333 9.33301 21.333 23.5 30 42.5s16.167 41.167 22.5 66.5s11 52.833 14 82.5s4.5 59.834 4.5 90.501
c0 31.333 -1 61 -3 89s-5.5 54 -10.5 78s-11.833 45.167 -20.5 63.5s-19.334 33.166 -32.001 44.499c-12.667 3.33301 -30.5 6.33301 -53.5 9s-47.833 5 -74.5 7s-52.667 3 -78 3c-24.667 0 -41 -7.33301 -49 -22s-12 -34 -12 -58v-428c0 -16 -2 -30 -6 -42
s-8 -20.667 -12 -26z" />
    <glyph glyph-name="E" unicode="E" horiz-adv-x="692" 
d="M530 0c-16.667 0 -38 0.495117 -64 1.49512s-54.667 2.33301 -86 4s-63.166 3.66699 -95.499 6l-93.5 7c-30 2.33301 -57 4.83301 -81 7.5s-42.667 5.33398 -56 8.00098c0 5.33301 1 10.5 3 15.5s4.33301 8.83301 7 11.5l29 4c13.333 2 23.5 5.66699 30.5 11s12 15 15 29
s4.5 34.333 4.5 61v402c0 18.667 1.16699 33.667 3.5 45s5.16602 19.833 8.49902 25.5s5.66602 8.83398 6.99902 9.50098h-97c-2.66699 2.66699 -5.16699 6 -7.5 10s-3.83301 8.33301 -4.5 13c4 4.66699 10.167 9.5 18.5 14.5s16.833 9.33301 25.5 13s15 5.5 19 5.5h411
c18 -6 35.667 -14 53 -24s31.333 -20.667 42 -32c-2.66699 -40 -7.16699 -74.667 -13.5 -104s-11.833 -50.666 -16.5 -63.999c-13.333 0 -25.166 1.16699 -35.499 3.5s-18.166 4.5 -23.499 6.5l-25 141c-12.667 2.66699 -29 5.16699 -49 7.5s-42.333 4.5 -67 6.5
s-50 3 -76 3c-17.333 0 -30.5 -3.83301 -39.5 -11.5s-14.833 -17.667 -17.5 -30s-4 -25.166 -4 -38.499v-176c30.667 0.666992 59 1.5 85 2.5s50.167 2.5 72.5 4.5s42.5 4 60.5 6l11 -11c-1.33301 -14.667 -3.16602 -27.834 -5.49902 -39.501s-4.5 -20.167 -6.5 -25.5h-217
v-189c0 -16 -2 -30 -6 -42s-8 -20.667 -12 -26h273l58 169c13.333 0 25.5 -2 36.5 -6s18.167 -7.66699 21.5 -11c0 -20 -0.666992 -41.167 -2 -63.5s-3 -43.666 -5 -63.999s-4.33301 -37.166 -7 -50.499c-5.33301 -6 -13.333 -12.5 -24 -19.5s-21.334 -13.167 -32.001 -18.5
s-19.334 -8 -26.001 -8z" />
    <glyph glyph-name="F" unicode="F" horiz-adv-x="642" 
d="M267 0c-4.66699 0 -14.166 0.831055 -28.499 2.49805s-30.666 3.83398 -48.999 6.50098s-36.833 5.5 -55.5 8.5s-35.167 6 -49.5 9s-24.5 5.5 -30.5 7.5c0 5.33301 1 10.5 3 15.5s4.33301 8.83301 7 11.5l29 4c12 2 21.667 5.16699 29 9.5s12.666 13.5 15.999 27.5
s5 35.667 5 65v401c0 18.667 1.16699 33.667 3.5 45s5.16602 19.833 8.49902 25.5s5.66602 8.83398 6.99902 9.50098h-97c-2.66699 2.66699 -5.16699 6 -7.5 10s-3.83301 8.33301 -4.5 13c4 4.66699 10.167 9.5 18.5 14.5s16.833 9.33301 25.5 13s15 5.5 19 5.5h402
c18 -6 35.833 -14 53.5 -24s31.5 -20.667 41.5 -32c-2.66699 -36.667 -7 -70.5 -13 -101.5s-11.333 -53.167 -16 -66.5c-12 0 -23.667 1 -35 3s-19.666 4.33301 -24.999 7l-25 141c-17.333 4 -42.666 7.83301 -75.999 11.5s-69 5.5 -107 5.5
c-26.667 0 -43.5 -8.16699 -50.5 -24.5s-10.5 -35.166 -10.5 -56.499v-185c30.667 0.666992 59.167 1.5 85.5 2.5s51 2.5 74 4.5s44.167 4 63.5 6l10 -11c-0.666992 -16.667 -2.33398 -30.334 -5.00098 -41.001s-5 -18.667 -7 -24h-221v-180c0 -16.667 -2 -31 -6 -43
s-8 -20.333 -12 -25l106 -12c2 -2 3.83301 -5.33301 5.5 -10s2.5 -9.66699 2.5 -15c-8.66699 -8 -21.5 -15.667 -38.5 -23s-32.167 -11 -45.5 -11z" />
    <glyph glyph-name="G" unicode="G" horiz-adv-x="737" 
d="M368 0c-20.667 0 -43.8369 3.49609 -69.5039 10.4961s-50.667 16 -75 27s-46 22.333 -65 34s-32.5 21.834 -40.5 30.501c-17.333 20 -30 49.833 -38 89.5s-12 81.834 -12 126.501c0 40 2.16699 79.333 6.5 118s9.83301 73.5 16.5 104.5s13.334 54.167 20.001 69.5
c15.333 12.667 34.5 25.5 57.5 38.5s48.333 24.833 76 35.5s55.334 19.334 83.001 26.001s53.5 10 77.5 10c25.333 0 51.666 -3 78.999 -9s53.333 -13.833 78 -23.5s45 -20.5 61 -32.5c-2.66699 -40.667 -6.66699 -76.334 -12 -107.001s-10.333 -53.667 -15 -69
c-16.667 0.666992 -30.167 2.16699 -40.5 4.5s-17.5 4.5 -21.5 6.5l-26 125c-8 4 -19.333 8.33301 -34 13s-29.5 8.5 -44.5 11.5s-27.833 4.5 -38.5 4.5c-14.667 0 -32.667 -1.66699 -54 -5s-42.333 -8 -63 -14s-37.667 -12.667 -51 -20c-6 -14 -11.333 -30.5 -16 -49.5
s-8.5 -39.5 -11.5 -61.5s-5.33301 -44.333 -7 -67s-2.5 -44.667 -2.5 -66c0 -29.333 1.33301 -57.666 4 -84.999s6.66699 -52.166 12 -74.499s11.333 -40.833 18 -55.5c6.66699 -6.66699 16.834 -13.834 30.501 -21.501s29.167 -15 46.5 -22s34.166 -12.833 50.499 -17.5
s30.5 -7 42.5 -7c18.667 0 36.834 1.16699 54.501 3.5s34.167 5.33301 49.5 9s28.333 7.16699 39 10.5v93c0 20 1.33301 38.833 4 56.5s5.33398 30.834 8.00098 39.501h-154c0 12.667 1.83301 25.5 5.5 38.5s7.16699 22.167 10.5 27.5c26 0 53.5 0.666992 82.5 2
s57.167 3 84.5 5s51 4 71 6l10 -10c-3.33301 -19.333 -7 -48.833 -11 -88.5s-6 -82.5 -6 -128.5v-80c-10 -6 -24.5 -12.5 -43.5 -19.5s-41 -13.833 -66 -20.5s-51.167 -12 -78.5 -16s-54.666 -6 -81.999 -6z" />
    <glyph glyph-name="H" unicode="H" horiz-adv-x="831" 
d="M267 0c-4.66699 0 -14.1621 0.833984 -28.4951 2.50098s-30.666 3.83398 -48.999 6.50098s-36.833 5.5 -55.5 8.5s-35.167 6 -49.5 9s-24.5 5.5 -30.5 7.5c0 5.33301 1 10.5 3 15.5s4.33301 8.83301 7 11.5l29 4c12 2 21.667 5.16699 29 9.5s12.666 13.5 15.999 27.5
s5 35.667 5 65v401c0 26.667 2.5 46 7.5 58s8.83301 19.333 11.5 22h-97c-1.33301 2.66699 -3.33301 5.5 -6 8.5s-4.66699 7.83301 -6 14.5c4 4.66699 10.167 9.5 18.5 14.5s16.833 9.33301 25.5 13s15 5.5 19 5.5h221c3.33301 -3.33301 6.33301 -8.5 9 -15.5
s4 -14.5 4 -22.5l-44 -13c-14 -4 -24.667 -9.33301 -32 -16s-12.333 -15.5 -15 -26.5s-4 -25.5 -4 -43.5v-171c26 0 53.833 0.333008 83.5 1l88 2c29 0.666992 56 1.66699 81 3s46.167 2.33301 63.5 3v163c0 24.667 2.33301 43.5 7 56.5s8.66699 20.833 12 23.5h-97
c-2 2.66699 -4.33301 6 -7 10s-4 8.33301 -4 13c3.33301 4.66699 9.16602 9.5 17.499 14.5s16.833 9.33301 25.5 13s15 5.5 19 5.5h221c3.33301 -3.33301 6.33301 -8.33301 9 -15s4 -14.334 4 -23.001l-44 -13c-12.667 -3.33301 -22.834 -8 -30.501 -14s-13 -14.5 -16 -25.5
s-4.5 -26.5 -4.5 -46.5v-428c0 -16.667 -1.83301 -30.834 -5.5 -42.501s-7.83398 -20.167 -12.501 -25.5l104 -12c1.33301 -0.666992 2.83301 -3.33398 4.5 -8.00098s2.5 -10.334 2.5 -17.001c-10 -8.66699 -22.833 -16.5 -38.5 -23.5s-29.834 -10.5 -42.501 -10.5
c-4.66699 0 -14.167 0.833008 -28.5 2.5s-30.666 3.83398 -48.999 6.50098s-36.833 5.5 -55.5 8.5s-35.334 6 -50.001 9s-24.667 5.5 -30 7.5c0 5.33301 1 10.5 3 15.5s4.33301 8.83301 7 11.5l29 4c12 2 21.667 5.16699 29 9.5s12.666 13.5 15.999 27.5s5 35.667 5 65v165
h-316v-193c0 -16.667 -2 -31 -6 -43s-8 -20.333 -12 -25l104 -12c1.33301 -1.33301 2.83301 -4.66602 4.5 -9.99902s2.5 -10.333 2.5 -15c-10 -8.66699 -23 -16.5 -39 -23.5s-30 -10.5 -42 -10.5z" />
    <glyph glyph-name="I" unicode="I" horiz-adv-x="403" 
d="M267 0c-4.66699 0 -14.168 0.831055 -28.501 2.49805s-30.666 3.83398 -48.999 6.50098s-36.833 5.5 -55.5 8.5s-35.167 6 -49.5 9s-24.5 5.5 -30.5 7.5c0 5.33301 1 10.5 3 15.5s4.33301 8.83301 7 11.5l29 4c13.333 2 23.5 5.66699 30.5 11s12 15 15 29
s4.5 34.333 4.5 61v404c0 31.333 2.83301 52 8.5 62s9.16699 15.333 10.5 16h-97c-1.33301 2.66699 -3.33301 5.5 -6 8.5s-4.66699 7.83301 -6 14.5c4 4.66699 10.167 9.5 18.5 14.5s16.833 9.33301 25.5 13s15 5.5 19 5.5h221c3.33301 -3.33301 6.33301 -8.5 9 -15.5
s4 -14.5 4 -22.5l-44 -13c-14 -4 -24.667 -9.33301 -32 -16s-12.333 -15.5 -15 -26.5s-4 -25.5 -4 -43.5v-428c0 -16.667 -2 -31 -6 -43s-8 -20.333 -12 -25l104 -12c1.33301 -1.33301 2.83301 -4.66602 4.5 -9.99902s2.5 -10.333 2.5 -15c-10 -8.66699 -23 -16.5 -39 -23.5
s-30 -10.5 -42 -10.5z" />
    <glyph glyph-name="J" unicode="J" horiz-adv-x="394" 
d="M65 -200c-15.333 0 -33.498 3.49707 -54.498 10.4971s-37.5 14.833 -49.5 23.5c0 6 0.833008 11.5 2.5 16.5s3.5 8.83301 5.5 11.5c36 10 69 22.833 99 38.5s54.667 30.834 74 45.501v622c0 25.333 2.16699 44.333 6.5 57s8.5 20.334 12.5 23.001h-108
c-2.66699 3.33301 -5.16699 6.83301 -7.5 10.5s-3.83301 7.83398 -4.5 12.501c4 4.66699 10.167 9.5 18.5 14.5s16.666 9.33301 24.999 13s14.5 5.5 18.5 5.5h232c3.33301 -2.66699 6.33301 -7.66699 9 -15s4 -15 4 -23l-44 -13c-12 -3.33301 -21.833 -7.83301 -29.5 -13.5
s-13.167 -14 -16.5 -25s-5 -26.833 -5 -47.5v-579c-6.66699 -20 -17.834 -40.833 -33.501 -62.5s-33.334 -42 -53.001 -61s-38.667 -34.5 -57 -46.5s-33.166 -18 -44.499 -18z" />
    <glyph glyph-name="K" unicode="K" horiz-adv-x="730" 
d="M267 0c-4.66699 0 -14.167 0.836914 -28.5 2.50391s-30.666 3.83398 -48.999 6.50098s-36.833 5.5 -55.5 8.5s-35.167 6 -49.5 9s-24.5 5.5 -30.5 7.5c0 5.33301 1 10.5 3 15.5s4.33301 8.83301 7 11.5l29 4c12 2 21.667 5.16699 29 9.5s12.666 13.5 15.999 27.5
s5 35.667 5 65v401c0 26.667 2.5 46.167 7.5 58.5s8.83301 19.5 11.5 21.5h-97c-2.66699 2.66699 -5.16699 6 -7.5 10s-3.83301 8.33301 -4.5 13c4 4.66699 10.167 9.5 18.5 14.5s16.833 9.33301 25.5 13s15 5.5 19 5.5h221c3.33301 -2.66699 6.33301 -7.83398 9 -15.501
s4 -15.167 4 -22.5l-44 -13c-14 -4 -24.667 -9.33301 -32 -16s-12.333 -15.5 -15 -26.5s-4 -25.5 -4 -43.5v-173l107 1c4.66699 10.667 11 26 19 46l28.5 68c11 25.333 23.167 50.666 36.5 75.999s27.166 48.5 41.499 69.5s28.833 37.5 43.5 49.5h171
c3.33301 -2.66699 6.5 -7.33398 9.5 -14.001s4.5 -14.334 4.5 -23.001l-47 -14c-21.333 -6.66699 -41.666 -18 -60.999 -34s-37.333 -34.667 -54 -56s-32 -43.5 -46 -66.5s-26.167 -45 -36.5 -66l-25.5 -53.5l107 -176l43.5 -68c13 -20 26.667 -35.667 41 -47
s31.5 -17.666 51.5 -18.999l20 -1c2 -2 4.33301 -5.66699 7 -11s4 -11.666 4 -18.999c-8.66699 -7.33301 -19.5 -13.833 -32.5 -19.5s-26.5 -9.83398 -40.5 -12.501s-27.333 -4 -40 -4c-11.333 0 -22.666 1.66699 -33.999 5s-22.5 9.16602 -33.5 17.499
s-22.333 20.166 -34 35.499s-23.834 35 -36.501 59l-87 168c-8 15.333 -16 27.166 -24 35.499s-22.667 12.5 -44 12.5h-59v-194c0 -16.667 -2 -31 -6 -43s-8 -20.333 -12 -25l104 -12c1.33301 -1.33301 2.83301 -4.66602 4.5 -9.99902s2.5 -10.333 2.5 -15
c-10 -8.66699 -23 -16.5 -39 -23.5s-30 -10.5 -42 -10.5z" />
    <glyph glyph-name="L" unicode="L" horiz-adv-x="618" 
d="M488 0c-20.667 0 -45.9951 0.666016 -75.9951 1.99902s-62.333 3.16602 -97 5.49902s-68.834 5 -102.501 8s-64.334 6.16699 -92.001 9.5s-49.834 6.33301 -66.501 9c0 5.33301 1 10.5 3 15.5s4.33301 8.83301 7 11.5l29 4c13.333 2 23.5 5.66699 30.5 11s12 15 15 29
s4.5 34.333 4.5 61v402c0 18.667 1.16699 33.667 3.5 45s5.16602 19.833 8.49902 25.5s5.66602 8.83398 6.99902 9.50098h-97c-2.66699 2.66699 -5.16699 6 -7.5 10s-3.83301 8.33301 -4.5 13c4 4.66699 10.167 9.5 18.5 14.5s16.833 9.33301 25.5 13s15 5.5 19 5.5h221
c3.33301 -2.66699 6.33301 -7.83398 9 -15.501s4 -15.167 4 -22.5l-44 -13c-14 -4 -24.667 -9.33301 -32 -16s-12.333 -15.5 -15 -26.5s-4 -25.5 -4 -43.5v-427c0 -16 -2 -30 -6 -42s-8 -20.667 -12 -26h231l58 173c14.667 0 27.167 -2 37.5 -6s17.5 -7.66699 21.5 -11
c0 -22 -0.833008 -44.667 -2.5 -68s-3.66699 -44.833 -6 -64.5s-4.5 -36.167 -6.5 -49.5c-5.33301 -5.33301 -13.333 -11.666 -24 -18.999s-21.5 -13.666 -32.5 -18.999s-19.5 -8 -25.5 -8z" />
    <glyph glyph-name="M" unicode="M" horiz-adv-x="1024" 
d="M244 0c-6 0 -17.834 1.16602 -35.501 3.49902s-37.5 5.33301 -59.5 9s-42.333 7.5 -61 11.5s-32 7.33301 -40 10c0 6 1.16699 11.5 3.5 16.5s4.5 8.5 6.5 10.5l27 4c13.333 2.66699 23.666 7 30.999 13s12.666 16.167 15.999 30.5s5.66602 34.166 6.99902 59.499l22 396
c1.33301 26 4.5 46 9.5 60s8.5 22 10.5 24h-100c-2.66699 2.66699 -5.16699 5.83398 -7.5 9.50098s-3.83301 8.16699 -4.5 13.5c3.33301 4.66699 9 9.5 17 14.5s16.5 9.33301 25.5 13s15.5 5.5 19.5 5.5h181l193 -476c8.66699 16.667 19.167 38.5 31.5 65.5l40.5 91.5
l44 106.5c14.667 37 28.5 73.833 41.5 110.5s23.833 70.667 32.5 102h248c3.33301 -4 6.33301 -9.5 9 -16.5s4 -14.167 4 -21.5l-44 -13c-14 -4 -25.333 -9.16699 -34 -15.5s-14.5 -14.833 -17.5 -25.5s-4.16699 -25.334 -3.5 -44.001l23 -422
c1.33301 -19.333 0 -35.833 -4 -49.5s-8 -22.167 -12 -25.5l104 -12c2 -2.66699 3.83301 -6.16699 5.5 -10.5s2.5 -9.16602 2.5 -14.499c-10 -8.66699 -23.167 -16.5 -39.5 -23.5s-30.5 -10.5 -42.5 -10.5c-5.33301 0 -15.333 0.833008 -30 2.5
s-31.167 3.83398 -49.5 6.50098l-56 8.5c-19 3 -35.833 6 -50.5 9s-25.334 5.5 -32.001 7.5c0 5.33301 1.16699 10.666 3.5 15.999s4.5 9 6.5 11l34 4c14 2 25 4.83301 33 8.5s13.5 12.5 16.5 26.5s3.5 36.667 1.5 68l-20 351
c-1.33301 26.667 -1.16602 49.334 0.500977 68.001s3.83398 31.334 6.50098 38.001l-8 3l-215 -519c-6 -4.66699 -16.333 -10 -31 -16s-32 -9 -52 -9l-180 437c-8 20 -14 39.333 -18 58s-6.66699 33 -8 43h-6c-1.33301 -4.66699 -2.83301 -12.834 -4.5 -24.501
s-3.16699 -27.5 -4.5 -47.5l-20 -409c-0.666992 -19.333 -3.16699 -34.833 -7.5 -46.5s-8.16602 -18.5 -11.499 -20.5l130 -15c1.33301 -1.33301 2.83301 -4.5 4.5 -9.5s2.5 -10.167 2.5 -15.5c-7.33301 -6.66699 -16.166 -12.5 -26.499 -17.5s-20.666 -9 -30.999 -12
s-19.5 -4.5 -27.5 -4.5z" />
    <glyph glyph-name="N" unicode="N" horiz-adv-x="827" 
d="M251 0c-6 0 -17.667 1.16406 -35 3.49707s-36.833 5.33301 -58.5 9s-42 7.5 -61 11.5s-33.167 7.33301 -42.5 10c0 5.33301 1 10.5 3 15.5s4.33301 8.83301 7 11.5l28 4c14 2 24.5 6.33301 31.5 13s11.833 17.5 14.5 32.5s4 36.167 4 63.5v395
c0 24 2.16699 42.5 6.5 55.5s8.5 20.833 12.5 23.5h-96c-2.66699 2.66699 -5.16699 6 -7.5 10s-3.83301 8.33301 -4.5 13c4 4.66699 10.167 9.5 18.5 14.5s16.833 9.33301 25.5 13s15 5.5 19 5.5h157l361 -553c-2.66699 14 -4.83398 31.833 -6.50098 53.5
s-2.5 51.167 -2.5 88.5v272c0 23.333 2 41.833 6 55.5s8 21.834 12 24.501h-100c-0.666992 2 -2.5 4.66699 -5.5 8s-5.16699 8.33301 -6.5 15c4 4.66699 10.333 9.83398 19 15.501s17.334 10.5 26.001 14.5s14.667 6 18 6h184c3.33301 -4 6.33301 -9.33301 9 -16
s4 -14 4 -22l-43 -13c-14.667 -4 -25.5 -9.33301 -32.5 -16s-11.667 -16 -14 -28s-3.5 -28.667 -3.5 -50v-368c0 -36.667 1 -70.167 3 -100.5s4.33301 -50.5 7 -60.5c-8 -6.66699 -18.5 -12.167 -31.5 -16.5s-26.333 -7.5 -40 -9.5s-25.834 -3.33301 -36.501 -4l-327 500
c-14.667 23.333 -26 44.333 -34 63s-12.667 32.334 -14 41.001h-6c-0.666992 -2 -1.5 -7.66699 -2.5 -17s-1.5 -25 -1.5 -47v-400c0 -15.333 -1.83301 -29 -5.5 -41s-7.5 -20.333 -11.5 -25l131 -15c1.33301 -1.33301 2.83301 -4.5 4.5 -9.5s2.5 -10.167 2.5 -15.5
c-7.33301 -6.66699 -16.166 -12.5 -26.499 -17.5s-20.833 -9 -31.5 -12s-19.667 -4.5 -27 -4.5z" />
    <glyph glyph-name="O" unicode="O" horiz-adv-x="766" 
d="M365 0c-20.667 0 -43.4932 3.50293 -68.4932 10.5029s-49.5 15.833 -73.5 26.5s-45.5 22 -64.5 34s-32.833 23 -41.5 33c-16 19.333 -28.167 48.166 -36.5 86.499s-12.5 81.166 -12.5 128.499c0 39.333 2.16699 78 6.5 116s9.83301 72.5 16.5 103.5
s13.667 54.833 21 71.5c15.333 12 34.166 24.333 56.499 37s47.166 24.667 74.499 36s55.666 20.333 84.999 27s58.666 10 87.999 10c17.333 0 37.5 -2.83301 60.5 -8.5s46.333 -13 70 -22s45 -19 64 -30s33.5 -22.167 43.5 -33.5c10 -15.333 18.167 -35 24.5 -59
s11.166 -50.333 14.499 -79s5 -58.334 5 -89.001c0 -38 -2.16699 -75.833 -6.5 -113.5s-10 -72 -17 -103s-14.833 -56.167 -23.5 -75.5c-15.333 -13.333 -37.833 -28.5 -67.5 -45.5s-63.334 -31.5 -101.001 -43.5s-76.834 -18 -117.501 -18zM388.007 75.0029
c18 0 37.332 2.50195 57.999 7.50195s39.834 11.167 57.501 18.5s30.167 13.666 37.5 18.999c8 18.667 14.833 41 20.5 67s10 54.5 13 85.5s4.5 63.167 4.5 96.5c0 42.667 -2.33301 82 -7 118s-10.667 66 -18 90c-3.33301 4.66699 -11.333 10.667 -24 18
s-27.5 14.666 -44.5 21.999s-34.333 13.5 -52 18.5s-33.167 7.5 -46.5 7.5c-16 0 -34.5 -1.83301 -55.5 -5.5s-41.333 -8.33398 -61 -14.001s-36.167 -11.5 -49.5 -17.5c-7.33301 -18.667 -13.833 -41.167 -19.5 -67.5s-9.83398 -54.666 -12.501 -84.999
s-4 -61.166 -4 -92.499c0 -40.667 2.66699 -80.334 8 -119.001s14.333 -71.334 27 -98.001c6 -6.66699 16 -14 30 -22s29.5 -15.667 46.5 -23s33.833 -13.166 50.5 -17.499s30.334 -6.5 41.001 -6.5z" />
    <glyph glyph-name="P" unicode="P" horiz-adv-x="650" 
d="M267 0c-4.66699 0 -14.165 0.829102 -28.498 2.49609s-30.666 3.83398 -48.999 6.50098s-36.833 5.5 -55.5 8.5s-35.167 6 -49.5 9s-24.5 5.5 -30.5 7.5c0 5.33301 1 10.5 3 15.5s4.33301 8.83301 7 11.5l29 4c12 2 21.667 5.33301 29 10s12.666 14 15.999 28
s5 35.333 5 64v401c0 18.667 1.16699 33.667 3.5 45s5.16602 19.833 8.49902 25.5s5.66602 8.83398 6.99902 9.50098h-97c-2.66699 2.66699 -5.16699 6 -7.5 10s-3.83301 8.33301 -4.5 13c4 4.66699 10.167 9.5 18.5 14.5s16.833 9.33301 25.5 13s15 5.5 19 5.5h344
c16.667 -4.66699 33.834 -11.167 51.501 -19.5s34.167 -17.666 49.5 -27.999s27.666 -21.166 36.999 -32.499c5.33301 -10 9.33301 -22.5 12 -37.5s4 -31.5 4 -49.5c0 -23.333 -1.83301 -46.833 -5.5 -70.5s-8.5 -44.667 -14.5 -63s-13.333 -31.5 -22 -39.5
c-10 -8 -23 -17.167 -39 -27.5s-33.833 -19.5 -53.5 -27.5s-40.5 -13.667 -62.5 -17h-162v-153c0 -16.667 -2 -31 -6 -43s-8 -20.333 -12 -25l106 -12c2 -2 3.83301 -5.33301 5.5 -10s2.5 -9.66699 2.5 -15c-8.66699 -8 -21.5 -15.667 -38.5 -23s-32.167 -11 -45.5 -11z
M255.002 356.996c46 0 87 0.832031 123 2.49902s66.333 3.5 91 5.5c7.33301 10.667 13.5 23.834 18.5 39.501s8.66699 32.667 11 51s3.5 36.833 3.5 55.5c0 25.333 -2.33301 48.5 -7 69.5s-12.667 37.167 -24 48.5c-11.333 4.66699 -26.166 8.33398 -44.499 11.001
s-37 4.66699 -56 6s-35.167 2 -48.5 2c-16 0 -28.833 -3.33301 -38.5 -10s-16.834 -15.834 -21.501 -27.501s-7 -25.5 -7 -41.5v-212z" />
    <glyph glyph-name="Q" unicode="Q" horiz-adv-x="766" 
d="M529 -200c-10 0 -24.5029 2.99902 -43.5029 8.99902s-40.167 14.167 -63.5 24.5s-46.333 21.5 -69 33.5s-43 24.167 -61 36.5s-31.333 23.833 -40 34.5c0 11.333 4.83301 24.833 14.5 40.5s18.834 28.834 27.501 39.501l56 -3l-9 -45
c11.333 -8.66699 27.333 -18.667 48 -30s43.334 -22.166 68.001 -32.499s49.667 -18.833 75 -25.5s48.333 -10 69 -10h37c2.66699 -2 4.83398 -5.83301 6.50098 -11.5s2.5 -11.834 2.5 -18.501c-6.66699 -8 -17.167 -15.167 -31.5 -21.5s-29.333 -11.333 -45 -15
s-29.5 -5.5 -41.5 -5.5zM364.997 -0.000976562c-20.667 0 -43.4932 3.50293 -68.4932 10.5029s-49.5 15.833 -73.5 26.5s-45.5 22 -64.5 34s-32.833 23 -41.5 33c-16 19.333 -28.167 48.166 -36.5 86.499s-12.5 81.166 -12.5 128.499c0 39.333 2.16699 78 6.5 116
s9.83301 72.5 16.5 103.5s13.667 54.833 21 71.5c15.333 12 34.166 24.333 56.499 37s47.166 24.667 74.499 36s55.666 20.333 84.999 27s58.666 10 87.999 10c17.333 0 37.5 -2.83301 60.5 -8.5s46.333 -13 70 -22s45 -19 64 -30s33.5 -22.167 43.5 -33.5
c10 -15.333 18.167 -35 24.5 -59s11.166 -50.333 14.499 -79s5 -58.334 5 -89.001c0 -38 -2.16699 -75.833 -6.5 -113.5s-10 -72 -17 -103s-14.833 -56.167 -23.5 -75.5c-15.333 -13.333 -37.833 -28.5 -67.5 -45.5s-63.334 -31.5 -101.001 -43.5s-76.834 -18 -117.501 -18z
M388.004 75.002c18 0 37.332 2.50195 57.999 7.50195s39.834 11.167 57.501 18.5s30.167 13.666 37.5 18.999c8 18.667 14.833 41 20.5 67s10 54.5 13 85.5s4.5 63.167 4.5 96.5c0 42.667 -2.33301 82 -7 118s-10.667 66 -18 90c-3.33301 4.66699 -11.333 10.667 -24 18
s-27.5 14.666 -44.5 21.999s-34.333 13.5 -52 18.5s-33.167 7.5 -46.5 7.5c-16 0 -34.5 -1.83301 -55.5 -5.5s-41.333 -8.33398 -61 -14.001s-36.167 -11.5 -49.5 -17.5c-7.33301 -18.667 -13.833 -41.167 -19.5 -67.5s-9.83398 -54.666 -12.501 -84.999
s-4 -61.166 -4 -92.499c0 -40.667 2.66699 -80.334 8 -119.001s14.333 -71.334 27 -98.001c6 -6.66699 16 -14 30 -22s29.5 -15.667 46.5 -23s33.833 -13.166 50.5 -17.499s30.334 -6.5 41.001 -6.5z" />
    <glyph glyph-name="R" unicode="R" horiz-adv-x="719" 
d="M267 0c-4.66699 0 -14.166 0.834961 -28.499 2.50195s-30.666 3.83398 -48.999 6.50098s-36.833 5.5 -55.5 8.5s-35.167 6 -49.5 9s-24.5 5.5 -30.5 7.5c0 5.33301 1 10.5 3 15.5s4.33301 8.83301 7 11.5l29 4c13.333 2 23.5 5.66699 30.5 11s12 15 15 29
s4.5 34.333 4.5 61v402c0 18.667 1.16699 33.667 3.5 45s5.16602 19.833 8.49902 25.5s5.66602 8.83398 6.99902 9.50098h-97c-2.66699 2.66699 -5.16699 6 -7.5 10s-3.83301 8.33301 -4.5 13c4 4.66699 10.167 9.5 18.5 14.5s16.833 9.33301 25.5 13s15 5.5 19 5.5h361
c16.667 -4.66699 33.334 -10.834 50.001 -18.501s32.5 -16.334 47.5 -26.001s27.167 -19.834 36.5 -30.501c5.33301 -10.667 9.33301 -23.334 12 -38.001s4 -30.667 4 -48c0 -23.333 -1.83301 -45.333 -5.5 -66s-8.66699 -38.667 -15 -54s-13.5 -27 -21.5 -35
c-7.33301 -6.66699 -17.833 -13.334 -31.5 -20.001s-28.667 -13 -45 -19s-32.166 -11 -47.499 -15v-5c10.667 -6.66699 19.334 -14.834 26.001 -24.501s14 -21.834 22 -36.501l47 -85c12 -21.333 23.5 -40.5 34.5 -57.5s23.333 -30.667 37 -41s30.167 -16.166 49.5 -17.499
l22 -1c2 -2 4.16699 -5.66699 6.5 -11s3.5 -12 3.5 -20c-10 -8.66699 -21.333 -15.5 -34 -20.5s-25.334 -8.66699 -38.001 -11s-24.334 -3.5 -35.001 -3.5c-34.667 0 -62.834 10.833 -84.501 32.5s-40.5 49.834 -56.5 84.501l-73 158
c-6.66699 14.667 -13.667 25.334 -21 32.001s-18 10 -32 10h-80v-178c0 -16.667 -2 -31 -6 -43s-8 -20.333 -12 -25l106 -12c2 -2 3.83301 -5.33301 5.5 -10s2.5 -9.66699 2.5 -15c-8.66699 -8 -21.5 -15.667 -38.5 -23s-32.167 -11 -45.5 -11zM255.001 379.002
c29.333 0 58.168 0.501953 86.501 1.50195s54.666 2.33301 78.999 4s44.833 3.16699 61.5 4.5c11.333 15.333 19.666 35.166 24.999 59.499s8 49.166 8 74.499c0 23.333 -2.5 44.166 -7.5 62.499s-12.5 32.833 -22.5 43.5c-11.333 4.66699 -26.833 8.33398 -46.5 11.001
s-39.667 4.66699 -60 6s-37.166 2 -50.499 2c-24.667 0 -43 -7.33301 -55 -22s-18 -33.667 -18 -57v-190z" />
    <glyph glyph-name="S" unicode="S" horiz-adv-x="646" 
d="M300 0c-16.667 0 -35.6719 2.49512 -57.0049 7.49512s-43.166 11.333 -65.499 19s-42.666 16.334 -60.999 26.001s-32.833 18.834 -43.5 27.501c0.666992 20.667 2.5 42.167 5.5 64.5s6.83301 43.5 11.5 63.5s9 36.333 13 49c13.333 0 25.5 -1.16699 36.5 -3.5
s18.833 -4.16602 23.5 -5.49902l27 -135c12 -5.33301 26.333 -10.666 43 -15.999s33.834 -9.5 51.501 -12.5s32.834 -4.5 45.501 -4.5c12 0 25.5 1.16699 40.5 3.5s29.667 5.66602 44 9.99902s26.5 8.83301 36.5 13.5c5.33301 11.333 9.66602 25.166 12.999 41.499
s5 33.5 5 51.5c0 10 -0.5 21.167 -1.5 33.5s-2.83301 23.5 -5.5 33.5c-20.667 7.33301 -45.834 15.333 -75.501 24l-93 27.5c-32.333 9.66699 -63.166 19.5 -92.499 29.5s-54.166 20.167 -74.499 30.5s-32.833 20.5 -37.5 30.5c-2.66699 8.66699 -4.66699 19 -6 31
s-2 24.333 -2 37c0 28 2.5 56.667 7.5 86s11.167 51.666 18.5 66.999c12.667 10 28.834 20.333 48.501 31s40.834 20.334 63.501 29.001s45 15.834 67 21.501s41.333 8.5 58 8.5c25.333 0 51.5 -3 78.5 -9s52.333 -13.667 76 -23s43.167 -19.333 58.5 -30
c-0.666992 -14 -2 -29.167 -4 -45.5s-4.33301 -32.833 -7 -49.5s-5.66699 -31.834 -9 -45.501s-6.33301 -24.834 -9 -33.501c-12.667 0 -24.834 1.33301 -36.501 4s-20.5 5.33398 -26.5 8.00098l-22 125c-10.667 4 -22.5 7.66699 -35.5 11s-26.667 6 -41 8
s-28.833 3 -43.5 3c-12 0 -24.333 -0.666992 -37 -2s-25.167 -3.5 -37.5 -6.5s-24.5 -6.5 -36.5 -10.5c-6 -12.667 -10.167 -28.167 -12.5 -46.5s-3.5 -36.833 -3.5 -55.5c0 -12 0.333008 -22.667 1 -32s1.33398 -17.666 2.00098 -24.999
c16.667 -6.66699 39.667 -14.167 69 -22.5l95 -26.5c34 -9.33301 66.5 -19.166 97.5 -29.499s57.167 -21 78.5 -32s33.333 -22.167 36 -33.5c2.66699 -8.66699 4.5 -18.667 5.5 -30s1.5 -25.666 1.5 -42.999c0 -32 -2 -60.5 -6 -85.5s-10.333 -48.167 -19 -69.5
c-8 -8 -21.167 -17.167 -39.5 -27.5s-39.833 -20.5 -64.5 -30.5s-50.334 -18.333 -77.001 -25s-52 -10 -76 -10z" />
    <glyph glyph-name="T" unicode="T" horiz-adv-x="681" 
d="M408 0c-4.66699 0 -14.165 0.830078 -28.498 2.49707s-31 3.83398 -50 6.50098s-38 5.5 -57 8.5s-35.833 6 -50.5 9s-24.667 5.5 -30 7.5c0 5.33301 1.16699 10.833 3.5 16.5s4.16602 9.16699 5.49902 10.5l32 4c15.333 2 26.5 6.33301 33.5 13s11.667 17 14 31
s3.5 33 3.5 57v424c0 14.667 1.5 26.334 4.5 35.001s5.83301 15.334 8.5 20.001h-165l-22 -162c-4.66699 -2.66699 -13 -5.16699 -25 -7.5s-24.667 -3.5 -38 -3.5c-2.66699 8.66699 -6 22.167 -10 40.5s-7.83301 39.333 -11.5 63s-6.16699 47.834 -7.5 72.501
c9.33301 10 23 20.833 41 32.5s35.333 19.5 52 23.5h461c16.667 -4.66699 33.834 -12.667 51.501 -24s30.834 -22 39.501 -32c-2.66699 -40 -7 -75.167 -13 -105.5s-11.667 -53.833 -17 -70.5c-12.667 0 -24.834 1.16699 -36.501 3.5s-19.834 4.83301 -24.501 7.5l-23 155
c-10.667 2 -25.334 4.16699 -44.001 6.5s-38.667 3.5 -60 3.5c-16 0 -27.5 -3 -34.5 -9s-11.167 -13.5 -12.5 -22.5s-2 -18.167 -2 -27.5v-450c0 -16.667 -2 -30.834 -6 -42.501s-8 -20.167 -12 -25.5l107 -12c1.33301 -0.666992 2.83301 -3.5 4.5 -8.5s2.5 -10.5 2.5 -16.5
c-10 -8.66699 -23.5 -16.5 -40.5 -23.5s-31.5 -10.5 -43.5 -10.5z" />
    <glyph glyph-name="U" unicode="U" horiz-adv-x="787" 
d="M394 0c-24.667 0 -51.6631 4.3252 -80.9961 12.9922s-57.333 19.334 -84 32.001s-48.834 25.5 -66.501 38.5s-27.167 24.167 -28.5 33.5v451c0 24.667 2.16699 43.5 6.5 56.5s8.16602 20.833 11.499 23.5h-97c-2 3.33301 -4.33301 6.5 -7 9.5s-4.33398 7.5 -5.00098 13.5
c4 4.66699 10.167 9.5 18.5 14.5s16.833 9.33301 25.5 13s15 5.5 19 5.5h221c3.33301 -3.33301 6.5 -8.16602 9.5 -14.499s4.5 -14.166 4.5 -23.499l-44 -13c-14.667 -4 -25.667 -9.33301 -33 -16s-12.166 -15.5 -14.499 -26.5s-3.5 -25.5 -3.5 -43.5v-423
c6 -8.66699 16.167 -17 30.5 -25s30.166 -15.167 47.499 -21.5s34.166 -11.5 50.499 -15.5s29.5 -6 39.5 -6c20.667 0 42.667 3 66 9s44.5 13.5 63.5 22.5s32.167 17.833 39.5 26.5v434c0 25.333 2.5 44.5 7.5 57.5s8.83301 20.5 11.5 22.5h-93
c-2.66699 2.66699 -5.16699 5.83398 -7.5 9.50098s-3.83301 8.16699 -4.5 13.5c4 4.66699 10 9.5 18 14.5s16.333 9.33301 25 13s15 5.5 19 5.5h180c3.33301 -3.33301 6.5 -8.16602 9.5 -14.499s4.5 -14.166 4.5 -23.499l-45 -12
c-13.333 -3.33301 -23.5 -8.16602 -30.5 -14.499s-11.833 -15.666 -14.5 -27.999s-4 -29.833 -4 -52.5v-446c-6 -9.33301 -17.333 -20.5 -34 -33.5s-37.167 -25.5 -61.5 -37.5s-51 -22 -80 -30s-58.833 -12 -89.5 -12z" />
    <glyph glyph-name="V" unicode="V" horiz-adv-x="803" 
d="M412 0c-8.66699 0 -19.5039 1.99805 -32.5039 5.99805s-26.5 9.33301 -40.5 16s-27 14 -39 22s-21 16 -27 24l-149 549c-2.66699 10 -7 17.667 -13 23s-15 8 -27 8h-50c-2.66699 2.66699 -5.16699 6 -7.5 10s-3.83301 8.33301 -4.5 13c3.33301 4 9 8.66699 17 14
s16.333 9.83301 25 13.5s15.667 5.5 21 5.5h250c3.33301 -2.66699 6.33301 -7.83398 9 -15.501s4 -15.167 4 -22.5l-52 -12c-8.66699 -2 -17.667 -5.16699 -27 -9.5s-16.166 -11.666 -20.499 -21.999s-3.83301 -26.166 1.5 -47.499l121 -463c6 -6 14.167 -11.833 24.5 -17.5
s21.333 -10.167 33 -13.5s21.834 -5 30.501 -5l118 452c10.667 39.333 21.334 68.333 32.001 87s19.334 29.667 26.001 33h-125c-2.66699 2.66699 -5.16699 5.66699 -7.5 9s-3.83301 8 -4.5 14c4.66699 5.33301 11.834 10.5 21.501 15.5s19.167 9.16699 28.5 12.5
s15.666 5 18.999 5h214c3.33301 -2.66699 6.33301 -7.66699 9 -15s4 -15 4 -23l-29 -9c-15.333 -4.66699 -28.666 -10.5 -39.999 -17.5s-21.666 -17.667 -30.999 -32s-18.833 -35 -28.5 -62s-20.5 -62.833 -32.5 -107.5l-98 -365c-6.66699 -8 -15.334 -16.333 -26.001 -25
s-21.834 -16.667 -33.501 -24s-23 -13.166 -34 -17.499s-20.833 -6.5 -29.5 -6.5z" />
    <glyph glyph-name="W" unicode="W" horiz-adv-x="1192" 
d="M412 0c-8 0 -18.499 2.00488 -31.499 6.00488s-26.667 9.33301 -41 16s-27.5 14 -39.5 22s-21 16 -27 24l-150 550c-2.66699 9.33301 -7 16.666 -13 21.999s-15 8 -27 8h-49c-2.66699 2.66699 -5.16699 6 -7.5 10s-3.83301 8.33301 -4.5 13c3.33301 4 9 8.66699 17 14
s16.5 9.83301 25.5 13.5s15.833 5.5 20.5 5.5h245c3.33301 -3.33301 6.5 -8.5 9.5 -15.5s4.5 -14.5 4.5 -22.5l-48 -12c-11.333 -2.66699 -21.5 -6.66699 -30.5 -12s-15.167 -13.166 -18.5 -23.499s-2.66602 -24.833 2.00098 -43.5l122 -462
c7.33301 -6.66699 16.333 -12.834 27 -18.501s21.667 -10 33 -13s21.666 -4.5 30.999 -4.5l111 403l-36 134c-2.66699 11.333 -7.16699 19.833 -13.5 25.5s-16.833 8.5 -31.5 8.5h-48c-2.66699 3.33301 -5.16699 7 -7.5 11s-3.83301 8 -4.5 12c4 4.66699 10 9.5 18 14.5
s16.333 9.33301 25 13s15.334 5.5 20.001 5.5h246c3.33301 -2.66699 6.33301 -7.83398 9 -15.501s4 -15.167 4 -22.5l-55 -12c-10.667 -2.66699 -20.334 -5.83398 -29.001 -9.50098s-14.667 -10.5 -18 -20.5s-2.33301 -26.333 3 -49l111 -463c5.33301 -6 13 -11.667 23 -17
s20.5 -9.66602 31.5 -12.999s21.167 -5 30.5 -5l114 451c7.33301 28.667 15 51.5 23 68.5s15.167 29.5 21.5 37.5s11.166 12.667 14.499 14h-165c-0.666992 1.33301 -2.5 3.83301 -5.5 7.5s-5.16699 8.83398 -6.5 15.501c5.33301 5.33301 12.833 10.5 22.5 15.5
s19.167 9.16699 28.5 12.5s15.666 5 18.999 5h252c3.33301 -3.33301 6.5 -8.33301 9.5 -15s4.5 -14.334 4.5 -23.001l-31 -10c-12 -4 -23.333 -8.66699 -34 -14s-21.167 -14.833 -31.5 -28.5s-20.833 -34.334 -31.5 -62.001s-22.334 -65.5 -35.001 -113.5l-95 -365
c-6.66699 -8 -15 -16.167 -25 -24.5s-20.667 -15.833 -32 -22.5s-22.666 -12.334 -33.999 -17.001s-21.333 -7.66699 -30 -9c-8 0 -18.5 2 -31.5 6s-26.333 9.33301 -40 16s-26.5 14 -38.5 22s-21 16 -27 24l-59 274h-5l-70 -269c-6.66699 -8 -15 -16.167 -25 -24.5
s-20.667 -15.833 -32 -22.5s-22.666 -12.334 -33.999 -17.001s-21.333 -7.66699 -30 -9z" />
    <glyph glyph-name="X" unicode="X" horiz-adv-x="761" 
d="M224 0c-8 0 -21.0029 1.16211 -39.0029 3.49512s-38 5.16602 -60 8.49902s-42.833 7 -62.5 11s-35.167 7.66699 -46.5 11c0 6 1.16699 11.667 3.5 17s4.5 9 6.5 11c18 1.33301 35.333 7.33301 52 18s32.834 24.5 48.501 41.5s30.167 34.5 43.5 52.5l143 197l-168 246
c-6 9.33301 -12.333 16.833 -19 22.5s-17 8.5 -31 8.5h-43c-1.33301 1.33301 -3.5 4.33301 -6.5 9s-4.83301 9.33398 -5.5 14.001c3.33301 4.66699 9.5 9.5 18.5 14.5s18.167 9.33301 27.5 13s16.333 5.5 21 5.5h249c3.33301 -4 6.5 -9.33301 9.5 -16s4.5 -14 4.5 -22
l-54 -12c-11.333 -2.66699 -21.333 -6.66699 -30 -12s-13 -13 -13 -23c0 -4 1 -9.16699 3 -15.5s6 -13.833 12 -22.5l101 -143l44 67.5l51.5 75.5c17.667 25.333 35.334 48.833 53.001 70.5s33.834 39.167 48.501 52.5h140c3.33301 -4.66699 6.33301 -10.167 9 -16.5
s4 -12.833 4 -19.5l-44 -13c-20.667 -6 -41 -16.333 -61 -31s-39.167 -32.167 -57.5 -52.5s-35.833 -42 -52.5 -65l-47.5 -68.5l-42.5 -64l149 -213l29 -40.5c10 -14.333 21.667 -26.833 35 -37.5s28.666 -17 45.999 -19l47 -5c1.33301 -1.33301 3 -4.33301 5 -9
s3 -10 3 -16c-4.66699 -5.33301 -12.167 -10.666 -22.5 -15.999s-21 -9.66602 -32 -12.999s-20.167 -5 -27.5 -5c-6 0 -16 0.833008 -30 2.5s-30.167 3.83398 -48.5 6.50098s-36.666 5.5 -54.999 8.5s-34.666 6 -48.999 9s-24.5 5.5 -30.5 7.5
c0 6.66699 1.16699 12.334 3.5 17.001s4.5 8.33398 6.5 11.001h24c6 0 11 1.33301 15 4s6 6.66699 6 12c0 4 -1.16699 9 -3.5 15s-6.16602 13 -11.499 21l-135 193l-137 -189l-23 -27.5c-7.33301 -8.33301 -13.333 -14.5 -18 -18.5l129 -14
c1.33301 -1.33301 2.83301 -4.5 4.5 -9.5s2.5 -10.167 2.5 -15.5c-6.66699 -6 -15.834 -11.5 -27.501 -16.5s-23.334 -9 -35.001 -12s-21.5 -4.5 -29.5 -4.5z" />
    <glyph glyph-name="Y" unicode="Y" horiz-adv-x="687" 
d="M418 0c-5.33301 0 -15.1621 0.827148 -29.4951 2.49414s-30.666 3.83398 -48.999 6.50098s-36.666 5.5 -54.999 8.5s-34.833 6 -49.5 9s-25 5.5 -31 7.5c0 6 1.16699 11.5 3.5 16.5s4.16602 8.5 5.49902 10.5l30 4c12.667 2 22.5 5.5 29.5 10.5s12.167 14.333 15.5 28
s5 34.834 5 63.501v121l-192 332c-6 10.667 -12.333 18 -19 22s-17 6 -31 6h-36c-1.33301 2 -3.5 4.83301 -6.5 8.5s-4.83301 8.5 -5.5 14.5c3.33301 4.66699 9.16602 9.5 17.499 14.5s17.166 9.33301 26.499 13s16.333 5.5 21 5.5h248c3.33301 -4 6.33301 -9.5 9 -16.5
s4 -14.167 4 -21.5l-55 -12c-10.667 -2.66699 -20.334 -6.16699 -29.001 -10.5s-13 -12.166 -13 -23.499c0 -2.66699 1 -7.5 3 -14.5s5.33301 -15.167 10 -24.5l114 -205h5l56.5 143c15.667 38 29.5 69 41.5 93s23.333 43 34 57s21.667 25.667 33 35h155
c3.33301 -4.66699 6.16602 -10 8.49902 -16s3.5 -12.667 3.5 -20l-39 -10c-15.333 -4 -29.333 -8.83301 -42 -14.5s-25.5 -15 -38.5 -28s-27.167 -32 -42.5 -57s-33.333 -58.5 -54 -100.5s-45.334 -95.333 -74.001 -160v-159c0 -15.333 -1.83301 -29.166 -5.5 -41.499
s-7.83398 -21.166 -12.501 -26.499l103 -12c1.33301 -1.33301 3 -4.16602 5 -8.49902s3 -9.83301 3 -16.5c-10.667 -8.66699 -23.5 -16.5 -38.5 -23.5s-29.167 -10.5 -42.5 -10.5z" />
    <glyph glyph-name="Z" unicode="Z" horiz-adv-x="658" 
d="M104 0c-6 0 -13.4971 3.49609 -22.4971 10.4961s-16.833 16.167 -23.5 27.5s-10 23 -10 35c24.667 26.667 51.5 58.167 80.5 94.5l93.5 121.5l106 144l66.5 93.5l69.5 100.5l-285 9l-28 -146c-4.66699 -2 -12.334 -4.33301 -23.001 -7s-23 -4 -37 -4
c-4.66699 16.667 -9.33398 35.334 -14.001 56.001s-8.5 41.834 -11.5 63.501s-4.83301 41.5 -5.5 59.5c5.33301 7.33301 13.166 14.333 23.499 21s21.166 12.834 32.499 18.501s21.666 10.167 30.999 13.5s16 5 20 5c5.33301 0 18.333 -0.666992 39 -2s45 -3 73 -5
s55.833 -4.16699 83.5 -6.5s51.667 -4.16602 72 -5.49902s32.5 -2 36.5 -2c6 0 13.667 1.16699 23 3.5s18.833 5.16602 28.5 8.49902s17.5 6.33301 23.5 9c10.667 -6 22.167 -15.5 34.5 -28.5s19.833 -29.167 22.5 -48.5l-383 -535l275 -22l53 163c14 0 26.667 -2 38 -6
s19.333 -7.66699 24 -11c0 -20 -0.666992 -41.167 -2 -63.5s-3 -43.666 -5 -63.999s-4.33301 -37.833 -7 -52.5c-6.66699 -6 -14.167 -11.833 -22.5 -17.5s-17.166 -10.834 -26.499 -15.501s-18 -8.33398 -26 -11.001s-15 -4 -21 -4c-9.33301 0 -25.833 1.33301 -49.5 4
s-50.167 5.83398 -79.5 9.50098s-58.666 7.66699 -87.999 12l-76.5 11c-21.667 3 -35.834 4.83301 -42.501 5.5c-8 -7.33301 -16 -14.166 -24 -20.499s-15.167 -11.5 -21.5 -15.5s-11.166 -6 -14.499 -6z" />
    <glyph glyph-name="bracketleft" unicode="[" horiz-adv-x="382" 
d="M201 -170c-8.66699 0 -19 4.33789 -31 13.0049s-24 19 -36 31s-22.333 23.333 -31 34v814c8.66699 10.667 19 22 31 34s24 22.333 36 31s22.333 13 31 13c14.667 0 31.334 -1 50.001 -3s37 -4.33301 55 -7s33.667 -5.33398 47 -8.00098c2 -2 4.16699 -6.33301 6.5 -13
s3.5 -14.667 3.5 -24l-170 -20l-7.5 -164.5c-2.33301 -52.333 -4 -105.333 -5 -159s-1.5 -110.834 -1.5 -171.501c0 -51.333 0.666992 -104.333 2 -159s3 -109.334 5 -164.001l177 -20c0 -10 -1.16699 -18.333 -3.5 -25s-4.5 -11.334 -6.5 -14.001
c-13.333 -2.66699 -29 -5.33398 -47 -8.00098s-36.333 -5 -55 -7s-35.334 -3 -50.001 -3z" />
    <glyph glyph-name="backslash" unicode="\" horiz-adv-x="463" 
d="M357 -91l-318.002 814.001c3.33301 4.66699 11.333 10 24 16s28.334 9.66699 47.001 11c5.33301 -17.333 15.333 -47 30 -89s33 -91.333 55 -148l229 -589c-5.33301 -2.66699 -14.166 -5.83398 -26.499 -9.50098s-25.833 -5.5 -40.5 -5.5z" />
    <glyph glyph-name="bracketright" unicode="]" horiz-adv-x="382" 
d="M181 -170c-14.667 0 -31.334 0.996094 -50.001 2.99609s-37 4.33301 -55 7s-33.667 5.33398 -47 8.00098c-2 2.66699 -4.16699 7.33398 -6.5 14.001s-3.5 15 -3.5 25l177 20c2 54.667 3.66699 109.334 5 164.001s2 107.667 2 159c0 60.667 -0.5 117.834 -1.5 171.501
s-2.5 106.667 -4.5 159s-4.66699 107.166 -8 164.499l-170 20c0 9.33301 1.16699 17.333 3.5 24s4.5 11 6.5 13c13.333 2.66699 29 5.33398 47 8.00098s36.333 5 55 7s35.334 3 50.001 3c8.66699 0 19 -4.33301 31 -13s24 -19 36 -31s22.333 -23.333 31 -34v-814
c-8.66699 -10.667 -19 -22 -31 -34s-24 -22.333 -36 -31s-22.333 -13 -31 -13z" />
    <glyph glyph-name="asciicircum" unicode="^" horiz-adv-x="606" 
d="M50 378c-8.66699 3.33301 -16.333 8 -23 14s-11.667 12.333 -15 19l69 79l73.5 79.5l68 69.5c21 20.667 39 37.167 54 49.5s25.167 18.5 30.5 18.5s15.333 -6 30 -18s32.167 -28.333 52.5 -49l65.5 -69.5l71.5 -80l68.5 -79.5c-2.66699 -6.66699 -7.16699 -13 -13.5 -19
s-13.5 -10.667 -21.5 -14l-252 218h-7z" />
    <glyph glyph-name="underscore" unicode="_" horiz-adv-x="625" 
d="M47 -63c0 13.333 1.16797 24.666 3.50098 33.999s5.16602 15.333 8.49902 18c54 0 107.167 0.333008 159.5 1s101.333 1.66699 147 3s86 2.83301 121 4.5s61.833 3.5 80.5 5.5l11 -8c0 -12.667 -1.33301 -24.667 -4 -36s-5 -18.666 -7 -21.999h-520z" />
    <glyph glyph-name="grave" unicode="`" horiz-adv-x="217" 
d="M183 565l-183.004 130.998c3.33301 9.33301 8.83301 18.833 16.5 28.5s15.834 17.834 24.501 24.501s15.334 10 20.001 10c6 0 17 -7 33 -21s34.833 -33.833 56.5 -59.5s43.834 -55.5 66.501 -89.5c-2.66699 -3.33301 -7.16699 -7.66602 -13.5 -12.999
s-13.166 -9 -20.499 -11z" />
    <glyph glyph-name="a" unicode="a" horiz-adv-x="540" 
d="M194 -4c-12.667 0 -27.665 4.16797 -44.998 12.501s-33.333 17.666 -48 27.999s-24.334 18.166 -29.001 23.499c-4.66699 6.66699 -8.83398 18.334 -12.501 35.001s-5.5 35.334 -5.5 56.001c0 8 0.333008 15.5 1 22.5l2 20.5c1.33301 3.33301 5.5 8.5 12.5 15.5
s15.667 14.5 26 22.5s20.666 15 30.999 21s19.166 9.66699 26.499 11c4.66699 1.33301 12.834 2.33301 24.501 3s24.834 1.33398 39.501 2.00098c9.33301 0.666992 19 1.5 29 2.5s20.167 2.33301 30.5 4l31 5c10.333 1.66699 20.5 3.5 30.5 5.5v109
c-16.667 8.66699 -37.167 15.667 -61.5 21s-46.166 8 -65.499 8c-6 0 -11.667 -0.166992 -17 -0.5s-10 -0.833008 -14 -1.5l-30 -81c-2.66699 -0.666992 -6.83398 -2.16699 -12.501 -4.5s-14.834 -4.16602 -27.501 -5.49902c-6 7.33301 -13.667 19.166 -23 35.499
s-15.666 34.166 -18.999 53.499c13.333 12.667 28.833 24 46.5 34s36.334 18.333 56.001 25s39.167 11.834 58.5 15.501s37.333 5.5 54 5.5c10.667 0 24.667 -3.33301 42 -10s34.666 -14.834 51.999 -24.501s31.833 -19.834 43.5 -30.501s17.5 -20 17.5 -28v-336l75 -9
c1.33301 -2 3 -5.16699 5 -9.5s3 -9.83301 3 -16.5c-4 -6 -11 -11.667 -21 -17s-20.5 -9.83301 -31.5 -13.5s-20.5 -5.5 -28.5 -5.5c-12.667 0 -25.167 2.66699 -37.5 8s-23 12.333 -32 21s-16.167 17.667 -21.5 27c-14.667 -8 -32 -16.667 -52 -26
s-39.167 -17.333 -57.5 -24s-33.5 -10 -45.5 -10zM226.002 74.001c7.33301 0 18.165 1.66992 32.498 5.00293s29 7.5 44 12.5s26.833 9.5 35.5 13.5v120c-14.667 -2.66699 -30.667 -5.33398 -48 -8.00098s-33 -4.66699 -47 -6c-17.333 -2 -34.666 -4.33301 -51.999 -7
s-30.333 -7.33398 -39 -14.001c0 -10.667 0.333008 -23.834 1 -39.501s3.33398 -29.5 8.00098 -41.5c5.33301 -6.66699 14.5 -14.167 27.5 -22.5s25.5 -12.5 37.5 -12.5z" />
    <glyph glyph-name="b" unicode="b" horiz-adv-x="578" 
d="M295 0c-16 0 -34.9951 3.50098 -56.9951 10.501s-43.5 15.833 -64.5 26.5s-38.5 21.167 -52.5 31.5s-21 18.833 -21 25.5v600c0 5.33301 -0.833008 10.333 -2.5 15s-5.83398 8 -12.501 10l-78 25c1.33301 6.66699 3 12.5 5 17.5s3.66699 8.5 5 10.5
c7.33301 4 18.166 8.16699 32.499 12.5s29 8 44 11s26.5 4.5 34.5 4.5c20 0 37 -7.33301 51 -22s21 -32.334 21 -53.001v-285l35 20.5c12 7 24.167 13.5 36.5 19.5s24.666 10.833 36.999 14.5s24.166 5.5 35.499 5.5s25 -2.5 41 -7.5s32.167 -11.5 48.5 -19.5
s31 -16.167 44 -24.5s21.833 -15.5 26.5 -21.5c6 -7.33301 10.5 -19.833 13.5 -37.5s5.16699 -36.834 6.5 -57.501s2 -39 2 -55c0 -36.667 -2.66699 -71.5 -8 -104.5s-11 -59.167 -17 -78.5c-8 -8 -19.333 -17.167 -34 -27.5s-31.5 -20.666 -50.5 -30.999
s-38.833 -18.833 -59.5 -25.5s-41.334 -10 -62.001 -10zM307.005 77.001c10 0 22.501 1.83496 37.501 5.50195s29.167 7.66699 42.5 12s22.333 7.83301 27 10.5c4 11.333 7.16699 27 9.5 47s3.5 40.667 3.5 62c0 23.333 -0.833008 46.166 -2.5 68.499s-3.66699 41.5 -6 57.5
s-4.83301 26.333 -7.5 31c-2 4 -9.16699 9.66699 -21.5 17s-25.833 14.166 -40.5 20.499s-27.334 9.5 -38.001 9.5c-6 0 -15.667 -2.16699 -29 -6.5s-27.5 -9.5 -42.5 -15.5s-28.167 -11.667 -39.5 -17v-258l35.5 -18.5c13.667 -7 27 -13 40 -18s23.5 -7.5 31.5 -7.5z" />
    <glyph glyph-name="c" unicode="c" horiz-adv-x="450" 
d="M261 0c-18 0 -36.8359 3.50391 -56.5029 10.5039s-38.334 15.5 -56.001 25.5s-32.667 19.5 -45 28.5s-20.166 15.833 -23.499 20.5c-8 9.33301 -14.667 26.666 -20 51.999s-8 52.333 -8 81c0 27.333 1.16699 53.5 3.5 78.5s5.5 47.667 9.5 68s8 36.833 12 49.5
c8.66699 6 21 13.667 37 23s34.167 18.833 54.5 28.5s41.5 17.834 63.5 24.501s43.333 10 64 10c10 0 22.5 -3.33301 37.5 -10s30 -14.667 45 -24s27.667 -18.333 38 -27s15.833 -15 16.5 -19c1.33301 -6 -0.5 -15.333 -5.5 -28s-11 -25 -18 -37s-13.5 -20.667 -19.5 -26
c-6.66699 0 -13.5 1 -20.5 3s-13.167 4.33301 -18.5 7c-4 8.66699 -9.33301 19.667 -16 33s-13.5 25.333 -20.5 36s-13.833 16 -20.5 16c-18 0 -35.667 -2.16699 -53 -6.5s-32.666 -9 -45.999 -14s-23.333 -9.16699 -30 -12.5c-2 -6.66699 -4.16699 -16.334 -6.5 -29.001
s-4.16602 -26.334 -5.49902 -41.001s-2 -28.334 -2 -41.001c0 -22 1 -43.667 3 -65s4.33301 -39.333 7 -54s5.33398 -23.667 8.00098 -27c1.33301 -2 6 -5.83301 14 -11.5s17.5 -12 28.5 -19s22 -13 33 -18s20.167 -7.5 27.5 -7.5c10.667 0 25.5 1.33301 44.5 4
s37.167 5.66699 54.5 9s29 5.66602 35 6.99902c2.66699 -2 5.16699 -5.5 7.5 -10.5s3.5 -10.5 3.5 -16.5c-12 -10 -25.833 -20.5 -41.5 -31.5s-33 -20.333 -52 -28s-39.833 -11.5 -62.5 -11.5z" />
    <glyph glyph-name="d" unicode="d" horiz-adv-x="575" 
d="M254 0c-17.333 0 -35.3301 3.49805 -53.9971 10.498s-36.334 15.333 -53.001 25s-30.834 19 -42.501 28s-19.5 15.833 -23.5 20.5c-8.66699 10 -15.667 27.167 -21 51.5s-8 51.833 -8 82.5c0 27.333 1.16699 53.5 3.5 78.5s5.5 47.667 9.5 68s8 36.833 12 49.5
c9.33301 6 22.5 13.833 39.5 23.5s36 19.334 57 29.001s42.667 17.667 65 24s43.833 9.5 64.5 9.5c10 0 21.667 -2.66699 35 -8l39 -16v218c0 4.66699 -1 9.5 -3 14.5s-6.33301 8.5 -13 10.5l-77 25c0.666992 6.66699 2 12.334 4 17.001s4 8.33398 6 11.001
c6.66699 4 17 8.16699 31 12.5s28.667 8 44 11s27.333 4.5 36 4.5c19.333 0 36.166 -7.33301 50.499 -22s21.5 -32.334 21.5 -53.001v-654l75 -9c1.33301 -2 3 -5.5 5 -10.5s3 -10.167 3 -15.5c-4.66699 -6 -12 -11.833 -22 -17.5s-20.5 -10.167 -31.5 -13.5
s-20.167 -5 -27.5 -5c-13.333 0 -26 2.66699 -38 8s-22.5 12.333 -31.5 21s-16.167 17.667 -21.5 27c-12 -9.33301 -25.5 -18.333 -40.5 -27s-30.333 -15.667 -46 -21s-31.5 -8 -47.5 -8zM273.003 76.998c6.66699 0 15.8311 1.33301 27.498 4s24.5 6.16699 38.5 10.5
s26.667 8.83301 38 13.5v282l-38 14.5c-13.333 5 -26.166 9.16699 -38.499 12.5s-22.833 5 -31.5 5c-7.33301 0 -18 -1.5 -32 -4.5s-27.833 -6.66699 -41.5 -11s-23.834 -8.16602 -30.501 -11.499c-2 -6.66699 -4.16699 -16.334 -6.5 -29.001s-4.16602 -26.5 -5.49902 -41.5
s-2 -29.5 -2 -43.5c0 -23.333 1 -45.333 3 -66s4.33301 -38 7 -52s5.33398 -22.667 8.00098 -26c2 -2.66699 7.16699 -7 15.5 -13s17.833 -12.333 28.5 -19s21.5 -12.5 32.5 -17.5s20.167 -7.5 27.5 -7.5z" />
    <glyph glyph-name="e" unicode="e" horiz-adv-x="470" 
d="M261 0c-18 0 -36.833 3.50195 -56.5 10.502s-38.334 15.5 -56.001 25.5s-32.667 19.5 -45 28.5s-20.166 15.833 -23.499 20.5c-8 9.33301 -14.667 26.666 -20 51.999s-8 52.333 -8 81c0 27.333 1.16699 53.5 3.5 78.5s5.5 47.667 9.5 68s8 36.833 12 49.5
c9.33301 6 22.333 13.833 39 23.5s35.334 19.167 56.001 28.5s42 17.333 64 24s43 10 63 10c10.667 0 24.334 -3.66699 41.001 -11s32.667 -15.833 48 -25.5s25.666 -18.167 30.999 -25.5c4 -4.66699 7.5 -14 10.5 -28s5.5 -29.5 7.5 -46.5s3 -32.833 3 -47.5
c-7.33301 -10.667 -16 -20.667 -26 -30s-20 -17.5 -30 -24.5s-18.667 -12.5 -26 -16.5c-6.66699 -2 -20 -4.5 -40 -7.5s-44.333 -5.66699 -73 -8s-60 -3.5 -94 -3.5c1.33301 -20.667 3.66602 -40.334 6.99902 -59.001s6.33301 -29.667 9 -33c2 -2 7.33301 -6 16 -12
s18.5 -12.333 29.5 -19s22 -12.5 33 -17.5s19.833 -7.5 26.5 -7.5c8 0 19 1 33 3s28.833 4.33301 44.5 7s30 5.33398 43 8.00098s22.5 4.66699 28.5 6c2.66699 -2.66699 5.5 -6.16699 8.5 -10.5s4.5 -10.166 4.5 -17.499c-12.667 -10.667 -28 -21.834 -46 -33.501
s-37.833 -21.334 -59.5 -29.001s-44.167 -11.5 -67.5 -11.5zM222 285.002c15.333 0 31.3301 0.832031 47.9971 2.49902s32 4 46 7s24.333 6.5 31 10.5c0 7.33301 -0.666992 16.666 -2 27.999s-2.66602 22 -3.99902 32s-2.66602 16.333 -3.99902 19
c-0.666992 2.66699 -5.33398 6.83398 -14.001 12.501s-18.167 10.834 -28.5 15.501s-19.166 7 -26.499 7c-6 0 -16.167 -1.5 -30.5 -4.5s-28.666 -6.66699 -42.999 -11s-24.833 -8.5 -31.5 -12.5c-2.66699 -7.33301 -5 -16.5 -7 -27.5s-3.5 -22.5 -4.5 -34.5
s-1.5 -23.333 -1.5 -34c6.66699 -3.33301 17.167 -5.83301 31.5 -7.5s27.833 -2.5 40.5 -2.5z" />
    <glyph glyph-name="f" unicode="f" horiz-adv-x="343" 
d="M217 0c-5.33301 0 -16.1631 1.16113 -32.4961 3.49414s-34.5 5.33301 -54.5 9s-38.833 7.5 -56.5 11.5s-30.5 7.33301 -38.5 10c0 5.33301 1.16699 10.333 3.5 15s4.5 8.33398 6.5 11.001l28 5c11.333 2 20.333 7.83301 27 17.5s10 30.5 10 62.5v298l-70 8
c0 9.33301 1.16699 17.666 3.5 24.999s4.83301 13 7.5 17l62 7l-50 208c3.33301 7.33301 12.666 16.166 27.999 26.499s33.166 20.5 53.499 30.5s40.166 18.333 59.499 25s34.333 10 45 10s22.334 -4.33301 35.001 -13s24.667 -19 36 -31s20.666 -23.5 27.999 -34.5
s11 -18.5 11 -22.5c0 -3.33301 -1.66699 -7.66602 -5 -12.999s-7.5 -11.166 -12.5 -17.499s-10.333 -12 -16 -17l-14.5 -12.5c-6.66699 0 -13.334 1.33301 -20.001 4s-11.667 5.33398 -15 8.00098c-3.33301 9.33301 -7.83301 19.5 -13.5 30.5s-11.167 20.333 -16.5 28
s-10.333 11.5 -15 11.5c-7.33301 0 -16 -1 -26 -3s-19.5 -4.33301 -28.5 -7s-16.5 -5.33398 -22.5 -8.00098l51 -203h115l11 -13c-0.666992 -7.33301 -2.5 -15.666 -5.5 -24.999s-6.16699 -16.666 -9.5 -21.999l-106 1v-316c0 -13.333 -1.33301 -25.166 -4 -35.499
s-5.33398 -17.5 -8.00098 -21.5l88 -9c1.33301 -2 2.83301 -5.16699 4.5 -9.5s2.5 -9.16602 2.5 -14.499c-3.33301 -5.33301 -9.83301 -10.666 -19.5 -15.999s-19.667 -9.83301 -30 -13.5s-19.166 -5.5 -26.499 -5.5z" />
    <glyph glyph-name="g" unicode="g" horiz-adv-x="518" 
d="M226 -200c-10.667 0 -24.1699 2.82617 -40.5029 8.49316s-33.333 13.334 -51 23.001s-34.167 20.334 -49.5 32.001s-27.833 23.334 -37.5 35.001s-14.5 22.5 -14.5 32.5c0 10.667 5.5 22.667 16.5 36s24.667 26.5 41 39.5s31.833 23.833 46.5 32.5
c-3.33301 4.66699 -6.83301 10.5 -10.5 17.5s-5.5 13.5 -5.5 19.5c0 6.66699 3.66699 14.834 11 24.501s16 19.334 26 29.001s18.667 17.167 26 22.5l35 -7l-7 -53c4.66699 -0.666992 16.167 -2.16699 34.5 -4.5l64 -8c24.333 -3 48.833 -6.66699 73.5 -11
s46.334 -9 65.001 -14s31 -10.5 37 -16.5c3.33301 -8.66699 5.83301 -18.167 7.5 -28.5s2.5 -20.166 2.5 -29.499c0 -20 -1.5 -40.667 -4.5 -62s-7.16699 -39.333 -12.5 -54c-7.33301 -5.33301 -19.666 -11.666 -36.999 -18.999s-37.666 -14.5 -60.999 -21.5
s-48.5 -12.667 -75.5 -17s-53.5 -6.5 -79.5 -6.5zM252.997 -126.007c13.333 0 29.834 0.832031 49.501 2.49902s38.667 4 57 7s32.166 6.16699 41.499 9.5c2 4.66699 3.33301 12.834 4 24.501s1 20.5 1 26.5c0 9.33301 -0.833008 17.833 -2.5 25.5s-3.5 13.167 -5.5 16.5
c-1.33301 1.33301 -8.5 3.33301 -21.5 6s-28.667 5.5 -47 8.5s-37 5.83301 -56 8.5l-50 7c-14.333 2 -23.5 3.33301 -27.5 4l-27 -28c-9.33301 -10 -17.166 -19 -23.499 -27s-9.5 -14 -9.5 -18c0 -4.66699 4.66699 -11.167 14 -19.5s20.666 -16.5 33.999 -24.5
s26.333 -14.833 39 -20.5s22.667 -8.5 30 -8.5zM211.998 125.992c-19.333 7.33301 -36.499 14.3311 -51.499 20.998s-27.667 12.667 -38 18s-18.833 10.5 -25.5 15.5s-11.667 9.5 -15 13.5c-5.33301 7.33301 -10.666 18.833 -15.999 34.5s-8 34.167 -8 55.5
c0 32 2.66699 60.333 8 85s10.333 44.667 15 60c6.66699 4 17.834 9.83301 33.501 17.5s33.334 15.667 53.001 24s39.667 15.333 60 21s38.166 8.5 53.499 8.5c8 0 18.167 -1.5 30.5 -4.5s21.166 -5.5 26.499 -7.5c19.333 2.66699 39.166 7.83398 59.499 15.501
s39.333 15.834 57 24.501l41.5 20l18 -12c0 -12.667 -1.33301 -25.834 -4 -39.501s-5.33398 -24.167 -8.00098 -31.5c-14 -4.66699 -29.833 -8.16699 -47.5 -10.5s-36.167 -3.83301 -55.5 -4.5v-5c6 -3.33301 12.5 -7.83301 19.5 -13.5s13.5 -13.167 19.5 -22.5
c4.66699 -10.667 8.5 -24 11.5 -40s4.5 -30.667 4.5 -44c0 -26.667 -2.5 -52.334 -7.5 -77.001s-10.167 -44.667 -15.5 -60c-8.66699 -6.66699 -23 -14.667 -43 -24s-44.833 -17.666 -74.5 -24.999s-63.5 -11.666 -101.5 -12.999zM261.999 182.99
c7.33301 0 16.668 1.33203 28.001 3.99902s22.166 6 32.499 10s17.5 7.33301 21.5 10c4.66699 7.33301 8.33398 19.5 11.001 36.5s4 34.5 4 52.5c0 23.333 -1.16699 44.666 -3.5 63.999s-5.16602 31.333 -8.49902 36c-2 3.33301 -8.5 7.83301 -19.5 13.5
s-22.667 10.834 -35 15.501s-21.5 7 -27.5 7c-8 0 -18.5 -1.5 -31.5 -4.5s-25.833 -6.5 -38.5 -10.5s-22.334 -8 -29.001 -12c-2.66699 -7.33301 -5.33398 -18.166 -8.00098 -32.499s-4 -29.166 -4 -44.499c0 -18 0.833008 -34.667 2.5 -50s3.83398 -27.833 6.50098 -37.5
s5 -15.834 7 -18.501c4 -4 11.833 -9.16699 23.5 -15.5s24.167 -11.833 37.5 -16.5s23.666 -7 30.999 -7z" />
    <glyph glyph-name="h" unicode="h" horiz-adv-x="607" 
d="M211 0c-5.33301 0 -15.834 1.16992 -31.501 3.50293s-33 5.33301 -52 9s-37 7.5 -54 11.5s-29.5 7.33301 -37.5 10c0 5.33301 1.16699 10.333 3.5 15s4.5 8.33398 6.5 11.001l27 5c11.333 2 20 7.83301 26 17.5s9 30.5 9 62.5v549c0 5.33301 -1 10.166 -3 14.499
s-6 7.5 -12 9.5l-81 26c0.666992 6.66699 2.16699 12.667 4.5 18s4.16602 8.66602 5.49902 9.99902c7.33301 4 18.166 8.16699 32.499 12.5s29 8 44 11s26.5 4.5 34.5 4.5c20 0 37.5 -7.33301 52.5 -22s22.5 -32.334 22.5 -53.001v-291l48 30.5
c16.667 10.333 32.667 18.833 48 25.5s28.666 10 39.999 10c15.333 0 32.5 -3 51.5 -9s37.167 -14 54.5 -24s31.5 -20.667 42.5 -32s16.5 -22.666 16.5 -33.999v-276c0 -14.667 -1.33301 -26.834 -4 -36.501s-5 -16.5 -7 -20.5l85 -9c1.33301 -2 2.83301 -5 4.5 -9
s2.5 -9 2.5 -15c-3.33301 -5.33301 -10 -10.833 -20 -16.5s-20.167 -10.167 -30.5 -13.5s-18.833 -5 -25.5 -5c-5.33301 0 -15.666 1.16699 -30.999 3.5s-32.666 5.33301 -51.999 9s-37.333 7.5 -54 11.5s-29 7.33301 -37 10c0 5.33301 1.16699 10.333 3.5 15
s4.5 8.33398 6.5 11.001l26 5c6.66699 1.33301 12.334 3.83301 17.001 7.5s8.5 11 11.5 22s4.5 27.833 4.5 50.5v217c0 6.66699 -3.5 13.334 -10.5 20.001s-15.667 12.667 -26 18s-20.166 9.66602 -29.499 12.999s-16.333 5 -21 5s-12.167 -1.5 -22.5 -4.5
s-21.5 -6.83301 -33.5 -11.5l-33.5 -13.5c-10.333 -4.33301 -18.5 -7.5 -24.5 -9.5v-252c0 -14 -1.33301 -26.167 -4 -36.5s-5.33398 -17.833 -8.00098 -22.5l82 -9c1.33301 -2 2.83301 -5 4.5 -9s2.5 -9 2.5 -15c-3.33301 -4.66699 -9.5 -9.83398 -18.5 -15.501
s-18.667 -10.334 -29 -14.001s-19.166 -5.5 -26.499 -5.5z" />
    <glyph glyph-name="i" unicode="i" horiz-adv-x="313" 
d="M216 0c-5.33301 0 -15.998 1.16602 -31.998 3.49902s-33.833 5.33301 -53.5 9s-38.167 7.5 -55.5 11.5s-30 7.33301 -38 10c0 5.33301 1.16699 10.333 3.5 15s4.5 8.33398 6.5 11.001l28 5c7.33301 1.33301 13.666 4.16602 18.999 8.49902s9.5 12 12.5 23
s4.5 27.167 4.5 48.5v249c0 5.33301 -1 10.333 -3 15s-6 8 -12 10l-61 22c0.666992 7.33301 2.16699 13.833 4.5 19.5s4.83301 9.5 7.5 11.5c11.333 6.66699 26.5 13 45.5 19s34.5 9 46.5 9c19.333 0 36.166 -7.33301 50.499 -22s21.5 -32.334 21.5 -53.001v-300
c0 -13.333 -1.33301 -25.166 -4 -35.499s-5.33398 -17.5 -8.00098 -21.5l86 -9c1.33301 -2 2.83301 -5 4.5 -9s2.5 -9 2.5 -15c-3.33301 -5.33301 -9.83301 -10.666 -19.5 -15.999s-19.667 -9.83301 -30 -13.5s-19.166 -5.5 -26.499 -5.5zM138.002 598.999
c-4.66699 0 -10.6631 3.00098 -17.9961 9.00098s-14.5 13.333 -21.5 22s-12.833 17.334 -17.5 26.001s-7 15.667 -7 21s3.16699 11.333 9.5 18s14.166 13.167 23.499 19.5s18.666 11.666 27.999 15.999s16.666 6.5 21.999 6.5s11.5 -3 18.5 -9s13.667 -13.5 20 -22.5
s11.666 -17.833 15.999 -26.5s6.5 -16 6.5 -22c0 -4.66699 -3 -10.334 -9 -17.001s-13.333 -13.167 -22 -19.5s-17.5 -11.5 -26.5 -15.5s-16.5 -6 -22.5 -6z" />
    <glyph glyph-name="j" unicode="j" horiz-adv-x="292" 
d="M33 -200c-6.66699 0 -15.8359 2.33496 -27.5029 7.00195s-22.834 10.5 -33.501 17.5s-18.667 13.833 -24 20.5c0 6.66699 1 11.834 3 15.501s3.66699 6.16699 5 7.5c18.667 3.33301 37.334 7.16602 56.001 11.499s35.834 9.33301 51.501 15s28.5 11.5 38.5 17.5v482
c0 5.33301 -1 10.333 -3 15s-6.33301 8 -13 10l-65 22c0.666992 8.66699 2.33398 15.667 5.00098 21s4.66699 8.66602 6 9.99902c7.33301 4 17.166 8.16699 29.499 12.5s24.833 8 37.5 11s23 4.5 31 4.5c19.333 0 36.166 -7.33301 50.499 -22s21.5 -32.334 21.5 -53.001
v-501c0 -5.33301 -4.33301 -13 -13 -23s-19.667 -20.833 -33 -32.5s-27.666 -22.667 -42.999 -33s-30.166 -18.833 -44.499 -25.5s-26.166 -10 -35.499 -10zM131.998 599.002c-4.66699 0 -10.6631 3.00098 -17.9961 9.00098s-14.5 13.333 -21.5 22
s-12.833 17.334 -17.5 26.001s-7 15.667 -7 21s3.16699 11.333 9.5 18s14.166 13.167 23.499 19.5s18.666 11.666 27.999 15.999s16.666 6.5 21.999 6.5s11.5 -3 18.5 -9s13.667 -13.5 20 -22.5s11.666 -17.833 15.999 -26.5s6.5 -16 6.5 -22
c0 -4.66699 -3 -10.334 -9 -17.001s-13.333 -13.167 -22 -19.5s-17.5 -11.5 -26.5 -15.5s-16.5 -6 -22.5 -6z" />
    <glyph glyph-name="k" unicode="k" horiz-adv-x="584" 
d="M211 0c-6 0 -16.6641 1.16602 -31.9971 3.49902s-32.5 5.33301 -51.5 9s-37 7.5 -54 11.5s-29.5 7.33301 -37.5 10c0 5.33301 1.16699 10.333 3.5 15s4.5 8.33398 6.5 11.001l27 5c11.333 2 20.166 8 26.499 18s9.5 30.667 9.5 62v549c0 4.66699 -1 9.5 -3 14.5
s-6.33301 8.5 -13 10.5l-74 25c0.666992 6.66699 2.16699 12.667 4.5 18s4.16602 8.66602 5.49902 9.99902c7.33301 4 17.833 8.16699 31.5 12.5s27.667 8 42 11s25.833 4.5 34.5 4.5c19.333 0 36 -7.33301 50 -22s21 -32.334 21 -53.001v-291
c17.333 10 36.166 20.167 56.499 30.5s39.833 18.833 58.5 25.5s33.667 10 45 10s25 -3.33301 41 -10s31.833 -15 47.5 -25s28.834 -20.667 39.501 -32s16 -22 16 -32c0 -12.667 -6.33301 -26.5 -19 -41.5s-27.667 -29.667 -45 -44s-33.666 -27 -48.999 -38l-31 -22.5
c3.33301 -2.66699 8.16602 -7.16699 14.499 -13.5s13.833 -15.5 22.5 -27.5l66 -94c6.66699 -8.66699 15 -18.167 25 -28.5s24.333 -15.5 43 -15.5h27c1.33301 -0.666992 3.33301 -3 6 -7s4 -8.66699 4 -14c-4.66699 -9.33301 -12.5 -18.333 -23.5 -27
s-22.333 -15.5 -34 -20.5s-21.5 -7.5 -29.5 -7.5c-14.667 0 -30.167 5 -46.5 15s-31.5 25.333 -45.5 46l-80 121c-12.667 19.333 -23.167 33.333 -31.5 42s-14.833 14.5 -19.5 17.5l-12 7.5c0 6 1.83301 11.833 5.5 17.5s6.83398 9.83398 9.50098 12.501l44 6
c4 3.33301 10.667 8.5 20 15.5l30 23c10.667 8.33301 19.667 16.333 27 24s11 13.834 11 18.501c0 3.33301 -2.5 8.16602 -7.5 14.499s-11.167 12.833 -18.5 19.5s-14.5 12.167 -21.5 16.5s-12.833 6.5 -17.5 6.5c-12.667 0 -31.334 -4.5 -56.001 -13.5l-72 -27.5v-255
c0 -14 -1.33301 -26.333 -4 -37s-5.33398 -18 -8.00098 -22l86 -9c2 -2.66699 3.66699 -6 5 -10s2 -8.66699 2 -14c-3.33301 -5.33301 -10 -10.666 -20 -15.999s-20.333 -9.83301 -31 -13.5s-19.667 -5.5 -27 -5.5z" />
    <glyph glyph-name="l" unicode="l" horiz-adv-x="301" 
d="M210 0c-5.33301 0 -15.8291 1.16895 -31.4961 3.50195s-33.334 5.33301 -53.001 9s-38 7.5 -55 11.5s-29.5 7.33301 -37.5 10c0 5.33301 1.16699 10.333 3.5 15s4.5 8.33398 6.5 11.001l27 5c11.333 2 20 7.83301 26 17.5s9 30.5 9 62.5v549
c0 5.33301 -1 10.166 -3 14.499s-6 7.5 -12 9.5l-78 26c1.33301 6.66699 3 12.5 5 17.5s3.66699 8.5 5 10.5c7.33301 4 18.166 8.16699 32.499 12.5s29 8 44 11s26.5 4.5 34.5 4.5c20 0 37 -7.33301 51 -22s21 -32.334 21 -53.001v-600
c0 -14.667 -1.33301 -26.834 -4 -36.501s-5 -16.5 -7 -20.5l85 -9c1.33301 -2 2.83301 -4.83301 4.5 -8.5s2.5 -8.83398 2.5 -15.501c-3.33301 -5.33301 -9.83301 -10.666 -19.5 -15.999s-19.834 -9.83301 -30.501 -13.5s-19.334 -5.5 -26.001 -5.5z" />
    <glyph glyph-name="m" unicode="m" horiz-adv-x="921" 
d="M216 0c-5.33301 0 -15.8252 1.16113 -31.4922 3.49414s-33.167 5.33301 -52.5 9s-37.5 7.5 -54.5 11.5s-29.5 7.33301 -37.5 10c0 5.33301 1.16699 10.333 3.5 15s4.5 8.33398 6.5 11.001l28 5c11.333 2 20.166 7.83301 26.499 17.5s9.5 30.5 9.5 62.5v249
c0 5.33301 -1 10.333 -3 15s-6 8 -12 10l-64 22c1.33301 9.33301 3 16.333 5 21s4.33301 8 7 10c11.333 6.66699 26.5 13 45.5 19s34.5 9 46.5 9c19.333 0 36.166 -6.33301 50.499 -19s21.5 -28.667 21.5 -48l49.5 30.5c17 10.333 33.333 19 49 26s29.167 10.5 40.5 10.5
c16 0 34 -3.33301 54 -10s39 -15.334 57 -26.001s32.333 -22 43 -34l39.5 23c14.333 8 28.666 15.5 42.999 22.5s27.666 12.833 39.999 17.5s22.833 7 31.5 7c15.333 0 32.5 -3 51.5 -9s37.167 -14 54.5 -24s31.5 -20.667 42.5 -32s16.5 -22.666 16.5 -33.999v-276
c0 -14.667 -1.33301 -27 -4 -37s-5 -16.667 -7 -20l85 -9c1.33301 -1.33301 2.83301 -4.16602 4.5 -8.49902s2.5 -9.5 2.5 -15.5c-3.33301 -5.33301 -9.66602 -10.666 -18.999 -15.999s-19.333 -9.83301 -30 -13.5s-19.334 -5.5 -26.001 -5.5
c-5.33301 0 -16 1.16699 -32 3.5s-33.833 5.33301 -53.5 9s-38 7.5 -55 11.5s-29.5 7.33301 -37.5 10c0 6.66699 1.16699 12 3.5 16s4.5 7.33301 6.5 10l27 5c6.66699 1.33301 12.667 3.83301 18 7.5s9.66602 11 12.999 22s5 27.833 5 50.5v217
c0 6.66699 -3.5 13.334 -10.5 20.001s-15.667 12.667 -26 18s-20.166 9.66602 -29.499 12.999s-16.333 5 -21 5c-6 0 -17.167 -2.66699 -33.5 -8s-32.666 -11 -48.999 -17s-28.5 -10.667 -36.5 -14v-252c0 -14.667 -1.5 -27.167 -4.5 -37.5s-5.83301 -17.5 -8.5 -21.5l85 -9
c1.33301 -2 2.83301 -5.16699 4.5 -9.5s2.5 -9.16602 2.5 -14.499c-3.33301 -5.33301 -9.83301 -10.666 -19.5 -15.999s-19.834 -9.83301 -30.501 -13.5s-19.667 -5.5 -27 -5.5c-5.33301 0 -15.833 1.16699 -31.5 3.5s-33 5.33301 -52 9s-37 7.5 -54 11.5
s-29.5 7.33301 -37.5 10c0 5.33301 1.16699 10.333 3.5 15s4.5 8.33398 6.5 11.001l27 5c11.333 2 20.166 7.83301 26.499 17.5s9.5 30.5 9.5 62.5v217c0 6.66699 -3.66699 13.334 -11 20.001s-16.333 12.667 -27 18s-20.834 9.66602 -30.501 12.999s-16.834 5 -21.501 5
s-12.167 -1.5 -22.5 -4.5s-21.5 -6.83301 -33.5 -11.5l-34 -13.5c-10.667 -4.33301 -18.667 -7.5 -24 -9.5v-252c0 -12.667 -1.33301 -24.334 -4 -35.001s-5.66699 -18.667 -9 -24l85 -9c1.33301 -2 2.83301 -5 4.5 -9s2.5 -9 2.5 -15
c-3.33301 -5.33301 -9.83301 -10.666 -19.5 -15.999s-19.834 -9.83301 -30.501 -13.5s-19.667 -5.5 -27 -5.5z" />
    <glyph glyph-name="n" unicode="n" horiz-adv-x="613" 
d="M216 0c-5.33301 0 -15.8359 1.16113 -31.5029 3.49414s-33.167 5.33301 -52.5 9s-37.5 7.5 -54.5 11.5s-29.5 7.33301 -37.5 10c0 5.33301 1.16699 10.333 3.5 15s4.5 8.33398 6.5 11.001l28 5c11.333 2 20.166 7.83301 26.499 17.5s9.5 30.5 9.5 62.5v249
c0 5.33301 -1 10.333 -3 15s-6 8 -12 10l-64 22c1.33301 9.33301 3 16.333 5 21s4.33301 8 7 10c11.333 6.66699 26.5 13 45.5 19s34.5 9 46.5 9c19.333 0 36.166 -6.33301 50.499 -19s21.5 -28.667 21.5 -48l49 30.5c16.667 10.333 32.834 19 48.501 26
s29.5 10.5 41.5 10.5c15.333 0 32.5 -3 51.5 -9s37.167 -14 54.5 -24s31.5 -20.667 42.5 -32s16.5 -22.666 16.5 -33.999v-276c0 -13.333 -1.33301 -25.166 -4 -35.499s-5.33398 -17.5 -8.00098 -21.5l86 -9c1.33301 -2 2.83301 -5.16699 4.5 -9.5s2.5 -9.16602 2.5 -14.499
c-3.33301 -5.33301 -9.83301 -10.666 -19.5 -15.999s-19.667 -9.83301 -30 -13.5s-19.166 -5.5 -26.499 -5.5c-5.33301 0 -15.833 1.16699 -31.5 3.5s-33 5.33301 -52 9s-36.833 7.5 -53.5 11.5s-29 7.33301 -37 10c0 6 1.16699 11.167 3.5 15.5s4.5 7.83301 6.5 10.5l25 4
c6.66699 1.33301 12.5 3.83301 17.5 7.5s9 11 12 22s4.5 28.167 4.5 51.5v217c0 6.66699 -3.5 13.334 -10.5 20.001s-15.667 12.667 -26 18s-20.166 9.66602 -29.499 12.999s-16.333 5 -21 5s-12.167 -1.5 -22.5 -4.5s-21.5 -6.83301 -33.5 -11.5l-34 -13.5
c-10.667 -4.33301 -18.667 -7.5 -24 -9.5v-252c0 -12.667 -1.33301 -24.334 -4 -35.001s-5.66699 -18.667 -9 -24l83 -9c1.33301 -2 2.83301 -5.16699 4.5 -9.5s2.5 -9.16602 2.5 -14.499c-3.33301 -5.33301 -9.66602 -10.666 -18.999 -15.999
s-19.166 -9.83301 -29.499 -13.5s-19.166 -5.5 -26.499 -5.5z" />
    <glyph glyph-name="o" unicode="o" horiz-adv-x="538" 
d="M258 0c-18 0 -36.501 3.49902 -55.501 10.499s-37 15.333 -54 25s-31.667 19.334 -44 29.001s-20.5 16.834 -24.5 21.501c-8 9.33301 -14.667 26.166 -20 50.499s-8 51.5 -8 81.5c0 26.667 1.16699 52.167 3.5 76.5s5.5 46.833 9.5 67.5s8 38 12 52
c9.33301 6 22.5 13.833 39.5 23.5s36 19.167 57 28.5s42.667 17.333 65 24s43.5 10 63.5 10c12 0 26.167 -2.83301 42.5 -8.5s33 -12.5 50 -20.5s31.833 -16.333 44.5 -25s21.334 -16 26.001 -22c5.33301 -6.66699 9.5 -19 12.5 -37s5.16699 -37.167 6.5 -57.5
s2 -37.833 2 -52.5c0 -36.667 -2.66699 -72 -8 -106s-11 -61.333 -17 -82c-8 -7.33301 -19.167 -16 -33.5 -26s-30.666 -19.833 -48.999 -29.5s-37.833 -17.667 -58.5 -24s-41.334 -9.5 -62.001 -9.5zM269.999 76.999c9.33301 0 21.332 2.1709 35.999 6.50391
s28.5 9.16602 41.5 14.499s21.833 9.33301 26.5 12c4.66699 11.333 8 26.833 10 46.5s3 38.167 3 55.5c0 22 -0.833008 44.667 -2.5 68s-3.66699 43.666 -6 60.999s-4.83301 27.666 -7.5 30.999c-2 3.33301 -9 8.66602 -21 15.999s-25.5 14.333 -40.5 21s-28.5 10 -40.5 10
c-7.33301 0 -18.166 -1.5 -32.499 -4.5s-28.5 -6.66699 -42.5 -11s-24.333 -8.16602 -31 -11.499c-2 -6.66699 -4 -16.5 -6 -29.5s-3.66699 -26.833 -5 -41.5s-2 -28.334 -2 -41.001c0 -24 1 -46.5 3 -67.5s4.33301 -38.5 7 -52.5s5 -22.667 7 -26c2 -2 7 -6.16699 15 -12.5
s17.333 -12.833 28 -19.5s21.5 -12.5 32.5 -17.5s20.167 -7.5 27.5 -7.5z" />
    <glyph glyph-name="p" unicode="p" horiz-adv-x="571" 
d="M202 -200c-5.33301 0 -16.165 1.16406 -32.498 3.49707s-34.5 5.33301 -54.5 9s-38.833 7.5 -56.5 11.5s-30.5 7.33301 -38.5 10c0 6 1.16699 11.167 3.5 15.5s4.5 7.83301 6.5 10.5l28 5c11.333 2 20.333 7.83301 27 17.5s10 30.5 10 62.5v449
c0 5.33301 -1 10.333 -3 15s-6 8 -12 10l-61 22c1.33301 9.33301 3 16.333 5 21s4.33301 8 7 10c11.333 6.66699 26.5 13 45.5 19s34.5 9 46.5 9c18.667 0 34.834 -6 48.501 -18s20.834 -26.667 21.501 -44c11.333 7.33301 23.166 14.5 35.499 21.5s25 13.667 38 20
s25.5 11.333 37.5 15s23.333 5.5 34 5.5c11.333 0 25 -2.66699 41 -8s32.333 -12 49 -20s31.5 -16.333 44.5 -25s21.833 -16 26.5 -22c6 -7.33301 10.667 -20.333 14 -39s5.5 -38.167 6.5 -58.5s1.5 -37.5 1.5 -51.5c0 -36.667 -2.66699 -72 -8 -106s-11 -61 -17 -81
c-8 -7.33301 -19.167 -16 -33.5 -26s-30.666 -19.833 -48.999 -29.5s-37.833 -17.667 -58.5 -24s-41 -9.5 -61 -9.5c-14.667 0 -30.834 3.5 -48.501 10.5s-34.5 14.833 -50.5 23.5v-109c0 -13.333 -1.33301 -25.166 -4 -35.499s-5.33398 -17.5 -8.00098 -21.5l88 -9
c1.33301 -1.33301 2.83301 -4.16602 4.5 -8.49902s2.5 -9.5 2.5 -15.5c-3.33301 -5.33301 -9.83301 -10.666 -19.5 -15.999s-19.834 -9.83301 -30.501 -13.5s-19.334 -5.5 -26.001 -5.5zM301.001 76.9971c9.33301 0 21.499 2.16797 36.499 6.50098s29.5 9.16602 43.5 14.499
s23.333 9.33301 28 12c4.66699 11.333 8 27.666 10 48.999s3 40.333 3 57c0 22.667 -0.833008 44.834 -2.5 66.501s-3.66699 40.667 -6 57s-4.83301 26.5 -7.5 30.5c-2 4 -9 9.83301 -21 17.5s-25.333 14.667 -40 21s-27.667 9.5 -39 9.5
c-4.66699 0 -13.667 -2.16699 -27 -6.5s-27.666 -9.5 -42.999 -15.5s-29 -11.667 -41 -17v-271c10.667 -4.66699 22.667 -9.5 36 -14.5s26.5 -9 39.5 -12s23.167 -4.5 30.5 -4.5z" />
    <glyph glyph-name="q" unicode="q" horiz-adv-x="552" 
d="M482 -200c-4.66699 0 -12.9922 0.827148 -24.9922 2.49414l-42.5 6c-16.333 2.33301 -32.833 5 -49.5 8s-31.834 6 -45.501 9s-23.834 5.83301 -30.501 8.5c0 5.33301 1.16699 10.333 3.5 15s4.5 8.33398 6.5 11.001l39 5c11.333 1.33301 20.333 7 27 17s10 31 10 63v99
c-16.667 -11.333 -34.834 -21.5 -54.501 -30.5s-40.834 -13.5 -63.501 -13.5c-18 0 -36.333 3.33301 -55 10s-36.667 14.834 -54 24.501s-32.166 19.334 -44.499 29.001s-20.833 17.167 -25.5 22.5c-8 9.33301 -14.667 26.166 -20 50.499s-8 51.5 -8 81.5
c0 26.667 1.16699 52.334 3.5 77.001s5.5 47.334 9.5 68.001s8 38 12 52c9.33301 6 22.5 13.667 39.5 23s36 18.666 57 27.999s42.667 17.333 65 24s43.5 10 63.5 10c11.333 0 26.666 -2.66699 45.999 -8s39.5 -11.666 60.5 -18.999s39.833 -14.333 56.5 -21
s28 -11.334 34 -14.001c0 -10 -1.83301 -20 -5.5 -30s-7.33398 -23 -11.001 -39s-5.5 -38.333 -5.5 -67v-377c0 -13.333 -1.33301 -25.166 -4 -35.499s-5.33398 -17.5 -8.00098 -21.5l88 -9c1.33301 -1.33301 2.83301 -4.16602 4.5 -8.49902s2.5 -9.5 2.5 -15.5
c-3.33301 -5.33301 -9.83301 -10.666 -19.5 -15.999s-19.834 -9.83301 -30.501 -13.5s-19.334 -5.5 -26.001 -5.5zM271.008 76.9941c8.66699 0 19.499 1.99902 32.499 5.99902s26 8.83301 39 14.5l32.5 14.5v278l-35 12c-14 4.66699 -27.833 8.66699 -41.5 12
s-24.167 5 -31.5 5c-6.66699 0 -17 -1.5 -31 -4.5s-27.833 -6.5 -41.5 -10.5s-24.167 -8 -31.5 -12c-2.66699 -7.33301 -5 -17.5 -7 -30.5s-3.66699 -26.833 -5 -41.5s-2 -28 -2 -40c0 -23.333 1 -45.5 3 -66.5s4.33301 -38.667 7 -53s5.33398 -23.166 8.00098 -26.499
c2 -2 7 -6.16699 15 -12.5s17.5 -12.833 28.5 -19.5s22 -12.5 33 -17.5s20.167 -7.5 27.5 -7.5z" />
    <glyph glyph-name="r" unicode="r" horiz-adv-x="405" 
d="M218 0c-5.33301 0 -15.9961 1.16602 -31.9961 3.49902s-34 5.33301 -54 9s-38.833 7.5 -56.5 11.5s-30.5 7.33301 -38.5 10c0 5.33301 1.16699 10.333 3.5 15s4.5 8.33398 6.5 11.001l28 5c7.33301 1.33301 13.666 4.16602 18.999 8.49902s9.5 12 12.5 23
s4.5 27.167 4.5 48.5v249c0 5.33301 -1 10.333 -3 15s-6 8 -12 10l-61 22c1.33301 9.33301 3 16.333 5 21s4.33301 8 7 10c11.333 6.66699 26.5 13 45.5 19s34.5 9 46.5 9c19.333 0 35.833 -6.83301 49.5 -20.5s20.5 -31.167 20.5 -52.5v-6c6.66699 6 14.5 13.5 23.5 22.5
s18.5 17.833 28.5 26.5s20 15.834 30 21.501s19 8.5 27 8.5c8.66699 0 17.5 -3.33301 26.5 -10s17.5 -14.834 25.5 -24.501s14.5 -18.834 19.5 -27.501s7.5 -15 7.5 -19c0 -3.33301 -2 -10.333 -6 -21s-8.83301 -21.667 -14.5 -33s-11.167 -20 -16.5 -26
c-8 0 -15.833 1.16699 -23.5 3.5s-13.5 4.16602 -17.5 5.49902c-4 9.33301 -8.5 18.5 -13.5 27.5s-9.5 16.5 -13.5 22.5s-7.33301 9 -10 9s-7.5 -2.16699 -14.5 -6.5s-14.5 -9.5 -22.5 -15.5s-15.167 -11.667 -21.5 -17s-10.5 -9 -12.5 -11v-232
c0 -13.333 -1.33301 -25.166 -4 -35.499s-5.33398 -17.5 -8.00098 -21.5l88 -9c1.33301 -1.33301 3 -4.16602 5 -8.49902s3 -9.5 3 -15.5c-4 -5.33301 -10.833 -10.666 -20.5 -15.999s-19.834 -9.83301 -30.501 -13.5s-19.334 -5.5 -26.001 -5.5z" />
    <glyph glyph-name="s" unicode="s" horiz-adv-x="490" 
d="M219 0c-17.333 0 -35.5068 3.33398 -54.5068 10.001s-36.833 14.667 -53.5 24s-30.5 18.166 -41.5 26.499s-17.167 14.5 -18.5 18.5c0 14 3.33301 29.333 10 46s13.667 30.334 21 41.001c9.33301 0 17.333 -1 24 -3s11.334 -3.66699 14.001 -5
c4 -9.33301 10.167 -21.833 18.5 -37.5s16.833 -28.167 25.5 -37.5c6.66699 -1.33301 14.5 -2.33301 23.5 -3s18.167 -1 27.5 -1c18 0 37.333 0.666992 58 2s38.334 4.33301 53.001 9c2 5.33301 3.83301 13.333 5.5 24s2.5 21 2.5 31
c0 5.33301 -0.166992 11.166 -0.5 17.499s-1.16602 11.833 -2.49902 16.5c-2 2.66699 -11.667 6.5 -29 11.5s-38.5 10.667 -63.5 17l-75.5 20c-25.333 7 -47.333 13.833 -66 20.5s-30 12.334 -34 17.001c-1.33301 8 -2.33301 17 -3 27s-1 21.333 -1 34
c0 19.333 1.66699 38.333 5 57s7.33301 34.334 12 47.001c8 5.33301 19.833 11.833 35.5 19.5s33.167 15.334 52.5 23.001s38.833 14.167 58.5 19.5s37.834 8 54.501 8c11.333 0 25.333 -3 42 -9s33.167 -13.167 49.5 -21.5s30 -16.5 41 -24.5s16.5 -13.667 16.5 -17
c0 -4.66699 -2.16699 -13.834 -6.5 -27.501s-9.66602 -27.334 -15.999 -41.001s-12.5 -22.834 -18.5 -27.501c-8.66699 0 -16.5 1.16699 -23.5 3.5s-12.167 4.5 -15.5 6.5c-10.667 21.333 -18.667 39.666 -24 54.999s-10.666 23 -15.999 23
c-16 0 -33.833 -0.666992 -53.5 -2s-37.5 -3 -53.5 -5s-27.333 -3.66699 -34 -5c-1.33301 -6 -2.33301 -13.5 -3 -22.5s-1 -17.167 -1 -24.5c0 -9.33301 0.333008 -18 1 -26s1.66699 -15 3 -21c2.66699 -2 12.167 -5 28.5 -9l60 -14
c23.667 -5.33301 47.834 -11.166 72.501 -17.499s46.667 -13.166 66 -20.499s32.666 -14.666 39.999 -21.999c2 -6.66699 3.5 -14.834 4.5 -24.501s1.5 -19.834 1.5 -30.501c0 -22 -2.16699 -44.167 -6.5 -66.5s-8.5 -37.5 -12.5 -45.5c-8 -6 -19.333 -12.667 -34 -20
s-31.167 -14.333 -49.5 -21s-37.666 -12.167 -57.999 -16.5s-39.833 -6.5 -58.5 -6.5z" />
    <glyph glyph-name="t" unicode="t" horiz-adv-x="343" 
d="M240 0c-8 0 -19.999 2.33496 -35.999 7.00195s-32.5 10.667 -49.5 18s-31.5 14.666 -43.5 21.999s-18 13.333 -18 18v378l-78 6c0 12 1.33301 21.833 4 29.5s5 12.834 7 15.501l52 6c10 1.33301 16.5 5.33301 19.5 12s4.5 16.667 4.5 30v103
c8.66699 6.66699 19.5 13.167 32.5 19.5s24.833 9.5 35.5 9.5l20 -13v-160l113 -1l10 -13c-0.666992 -10.667 -2.66699 -20.334 -6 -29.001s-6.33301 -15.334 -9 -20.001l-106 4v-360l117 -20c1.33301 -2 3 -5 5 -9s3 -9.66699 3 -17
c-4.66699 -6 -11.834 -11.833 -21.501 -17.5s-19.5 -10.167 -29.5 -13.5s-18.667 -5 -26 -5z" />
    <glyph glyph-name="u" unicode="u" horiz-adv-x="599" 
d="M246 -4c-16 0 -32.8281 3.83398 -50.4951 11.501s-34.167 17.167 -49.5 28.5s-27.833 22.333 -37.5 33s-14.5 19.334 -14.5 26.001v299c0 5.33301 -1 10.333 -3 15s-6 8 -12 10l-61 22c1.33301 9.33301 3 16.333 5 21s4.33301 8 7 10c11.333 6.66699 26.5 13 45.5 19
s34.5 9 46.5 9c19.333 0 36.166 -7.33301 50.499 -22s21.5 -32.334 21.5 -53.001v-302l25.5 -20.5c9.66699 -7.66699 19.667 -14.5 30 -20.5s19.166 -9 26.499 -9c8 0 19 1.83301 33 5.5s28.667 8.5 44 14.5l42 17v284c0 5.33301 -1.16699 10.333 -3.5 15s-6.5 8 -12.5 10
l-72 25c0.666992 7.33301 2 13.5 4 18.5s4 8.16699 6 9.5c7.33301 4 17.666 8.16699 30.999 12.5s27.166 8 41.499 11s25.5 4.5 33.5 4.5c19.333 0 36.166 -7.33301 50.499 -22s21.5 -32.334 21.5 -53.001v-354l75 -9c1.33301 -2 3 -5.33301 5 -10s3 -10 3 -16
c-4 -6 -11 -11.667 -21 -17s-20.667 -9.83301 -32 -13.5s-21 -5.5 -29 -5.5c-18 0 -35.667 5 -53 15s-29.666 22 -36.999 36c-14 -8.66699 -30.667 -17.167 -50 -25.5s-38.833 -15.333 -58.5 -21s-36.834 -8.5 -51.501 -8.5z" />
    <glyph glyph-name="v" unicode="v" horiz-adv-x="554" 
d="M305 0c-16 0 -32.998 3.33105 -50.998 9.99805s-35 14.834 -51 24.501s-30 19.167 -42 28.5s-20.333 16.666 -25 21.999l-51 266c-2.66699 11.333 -6.16699 24.666 -10.5 39.999s-13.833 25.666 -28.5 30.999l-53 20c0 8 1.33301 14.5 4 19.5s4.66699 8.5 6 10.5
c7.33301 4 16.666 8.16699 27.999 12.5s22.666 8 33.999 11s20 4.5 26 4.5c23.333 0 42.666 -8.83301 57.999 -26.5s25.333 -41.167 30 -70.5l42 -266c4 -4 10 -9.66699 18 -17s17.833 -14.5 29.5 -21.5s23.834 -12.5 36.501 -16.5
c13.333 16.667 26.166 37.334 38.499 62.001s23.5 51.334 33.5 80.001s18.5 57.834 25.5 87.501s12.5 57.834 16.5 84.501c-6 4.66699 -14.833 10 -26.5 16s-24 12 -37 18s-25.333 11.333 -37 16s-20.5 8 -26.5 10c0.666992 6 2 11.667 4 17s4.33301 9.33301 7 12
c6.66699 3.33301 16.334 6 29.001 8s26.167 3.66699 40.5 5s26.5 2 36.5 2c8 0 18 -3.5 30 -10.5s23.833 -15.5 35.5 -25.5s21.334 -19.5 29.001 -28.5s11.5 -15.833 11.5 -20.5c0 -21.333 -3.33301 -46.333 -10 -75s-15.667 -58.5 -27 -89.5s-24.333 -61.333 -39 -91
s-29.834 -56.5 -45.501 -80.5s-31.167 -43.167 -46.5 -57.5s-29.333 -21.5 -42 -21.5z" />
    <glyph glyph-name="w" unicode="w" horiz-adv-x="868" 
d="M305 0c-16 0 -32.9961 3.33887 -50.9961 10.0059s-35 14.834 -51 24.501s-30 19.167 -42 28.5s-20.333 16.666 -25 21.999l-51 266c-2.66699 11.333 -6.16699 24.666 -10.5 39.999s-13.833 25.666 -28.5 30.999l-53 20c0 8 1.33301 14.5 4 19.5s4.66699 8.5 6 10.5
c7.33301 4 16.666 8.16699 27.999 12.5s22.666 8 33.999 11s20 4.5 26 4.5c24 0 43.5 -8.83301 58.5 -26.5s24.833 -41.167 29.5 -70.5l42 -266c6.66699 -6.66699 17 -15.834 31 -27.501s31 -20.167 51 -25.5c12 14.667 24.333 32 37 52s25 41.667 37 65
s22.667 47.333 32 72l-15 78c-2.66699 13.333 -6.33398 27.333 -11.001 42s-13.667 24.334 -27 29.001l-53 20c0 8 1.33301 14.5 4 19.5s4.66699 8.5 6 10.5c7.33301 4 16.5 8.16699 27.5 12.5s22.167 8 33.5 11s20.333 4.5 27 4.5c23.333 0 42.666 -8.83301 57.999 -26.5
s25.333 -41.167 30 -70.5l41 -270c6.66699 -4.66699 17.167 -12.834 31.5 -24.501s30.5 -20.5 48.5 -26.5c13.333 16 26.5 36.167 39.5 60.5s25.167 50.833 36.5 79.5s21.166 58 29.499 88s14.166 58.667 17.499 86c-5.33301 4.66699 -13.833 10 -25.5 16
s-24.167 12 -37.5 18s-25.833 11.333 -37.5 16l-25.5 10c0.666992 7.33301 2.16699 13.333 4.5 18l5.5 11c8 2.66699 18.167 5.16699 30.5 7.5s25.333 4.16602 39 5.49902s26.167 2 37.5 2c8.66699 0 18.834 -3.5 30.501 -10.5s23.167 -15.333 34.5 -25
s20.833 -19.167 28.5 -28.5s11.5 -16 11.5 -20c0 -21.333 -3.5 -46.333 -10.5 -75s-16.5 -58.667 -28.5 -90s-25.5 -61.833 -40.5 -91.5s-30.667 -56.5 -47 -80.5s-32.166 -43.167 -47.499 -57.5s-29.666 -21.5 -42.999 -21.5c-16 0 -32.333 3.33301 -49 10
s-32.834 14.667 -48.501 24s-29.167 18.666 -40.5 27.999s-19.333 16.666 -24 21.999l-15 64c-13.333 -25.333 -27.833 -49.333 -43.5 -72s-31 -41 -46 -55s-28.5 -21 -40.5 -21z" />
    <glyph glyph-name="x" unicode="x" horiz-adv-x="517" 
d="M117 0c-6.66699 0 -15.5 3.33008 -26.5 9.99707s-22 14.5 -33 23.5s-20.167 17.667 -27.5 26s-11 14.5 -11 18.5c0 12 5.83301 25.833 17.5 41.5s26.667 32 45 49s37.833 33.667 58.5 50l57 44.5l-59 97c-6 10 -12.167 19.667 -18.5 29s-14 17.833 -23 25.5
s-20.833 13.834 -35.5 18.501l-37 12c0.666992 5.33301 2.16699 11 4.5 17s4.5 10 6.5 12c6 3.33301 14 7 24 11s20.167 7.5 30.5 10.5s18.166 4.5 23.499 4.5c23.333 0 43.333 -8.83301 60 -26.5s32 -38.167 46 -61.5l59 -103c17.333 14.667 33.166 28.834 47.499 42.501
s26.333 26 36 37s16.5 19.5 20.5 25.5c-5.33301 4 -12.666 8.83301 -21.999 14.5l-28 16.5c-9.33301 5.33301 -17 9 -23 11c0.666992 5.33301 1.83398 10.666 3.50098 15.999s3.5 9.33301 5.5 12c5.33301 2.66699 13 5.16699 23 7.5s20.167 4.33301 30.5 6
s17.833 2.5 22.5 2.5c6 0 13.833 -2.5 23.5 -7.5s19.334 -11 29.001 -18s17.667 -14.167 24 -21.5s9.5 -13 9.5 -17c0 -12 -5.33301 -25.5 -16 -40.5s-24.5 -30.5 -41.5 -46.5s-35.167 -31.833 -54.5 -47.5l-56 -44.5l71 -118c14.667 -24 29 -40.5 43 -49.5
s27.333 -13.5 40 -13.5h22c2 -1.33301 4.16699 -3.83301 6.5 -7.5s3.5 -8.16699 3.5 -13.5c-4 -8 -11.167 -16.333 -21.5 -25s-21.666 -15.834 -33.999 -21.501s-23.5 -8.5 -33.5 -8.5c-16 0 -33.5 7 -52.5 21s-38.167 37.333 -57.5 70l-71 121
c-18 -16.667 -34.833 -33 -50.5 -49s-28.834 -30 -39.501 -42s-18 -21 -22 -27c4.66699 -3.33301 11.667 -7.66602 21 -12.999s19.166 -10.666 29.499 -15.999s18.5 -9.33301 24.5 -12c2 -3.33301 4 -8.16602 6 -14.499s3 -12.5 3 -18.5
c-5.33301 -2.66699 -13.5 -5.5 -24.5 -8.5s-22 -5.66699 -33 -8s-19.5 -3.5 -25.5 -3.5z" />
    <glyph glyph-name="y" unicode="y" horiz-adv-x="550" 
d="M111 -200c-7.33301 0 -16.6689 2.33105 -28.002 6.99805s-22.166 10.167 -32.499 16.5s-17.833 12.5 -22.5 18.5c1.33301 7.33301 2.83301 13 4.5 17s3.5 7.33301 5.5 10c30.667 4.66699 61.667 14.167 93 28.5s60.666 32.166 87.999 53.499s50 44.666 68 69.999
c-24 6.66699 -46.667 14.834 -68 24.501s-39.333 19.334 -54 29.001s-24.667 17.167 -30 22.5l-51 257c-2.66699 14 -6.33398 27.667 -11.001 41s-13.667 22.333 -27 27l-53 20c0 8 1.33301 14.5 4 19.5s4.66699 8.5 6 10.5c7.33301 4 16.666 8.16699 27.999 12.5
s22.666 8 33.999 11s20 4.5 26 4.5c24.667 0 44.5 -9.16699 59.5 -27.5s24.5 -41.5 28.5 -69.5l39 -259c4 -3.33301 11.5 -8.5 22.5 -15.5s24.167 -14.167 39.5 -21.5s30.666 -14 45.999 -20c11.333 24 21.333 48.333 30 73s16.167 48.834 22.5 72.501
s11.5 46.167 15.5 67.5s7.33301 41 10 59s4.66699 33.333 6 46c-9.33301 6 -21.666 12.333 -36.999 19l-45.5 19c-15 6 -26.833 10.333 -35.5 13c1.33301 5.33301 3 10.833 5 16.5s4 9.83398 6 12.501c6.66699 3.33301 16 6 28 8s24.667 3.66699 38 5s25 2 35 2
c8.66699 0 19 -3 31 -9s23.833 -13.5 35.5 -22.5s21.334 -17.667 29.001 -26s11.5 -14.833 11.5 -19.5c0 -24 -3.66699 -52.5 -11 -85.5s-17.666 -68.667 -30.999 -107s-29.666 -77.5 -48.999 -117.5c-20 -42 -41.833 -81.833 -65.5 -119.5s-48.667 -71 -75 -100
s-53.666 -51.833 -81.999 -68.5s-57.166 -25 -86.499 -25z" />
    <glyph glyph-name="z" unicode="z" horiz-adv-x="480" 
d="M91 0c-6 0 -13.8291 3.8291 -23.4961 11.4961s-18.334 16.834 -26.001 27.501s-11.5 20 -11.5 28c23.333 21.333 48.333 46.666 75 75.999l81 93l77.5 96.5l64.5 86.5l-176 10l-38 -94c-2.66699 -1.33301 -7.5 -3.16602 -14.5 -5.49902s-15.5 -3.5 -25.5 -3.5
c-5.33301 10 -12 24.333 -20 43s-13 37.334 -15 56.001c2.66699 4.66699 8.5 11 17.5 19s19.167 16.333 30.5 25s21.666 16 30.999 22s16 9 20 9c3.33301 0 11.166 -0.5 23.499 -1.5l43.5 -3.5l51 -4l47 -3.5c14 -1 24 -1.83301 30 -2.5c6 0 15 1.33301 27 4l34 7.5
c10.667 2.33301 17 2.83301 19 1.5c8 -4 16.333 -12.333 25 -25s13.334 -25.334 14.001 -38.001l-264 -334l163 -25l60 93c10.667 -0.666992 20 -2.5 28 -5.5s13.667 -6.16699 17 -9.5c0 -4 -0.333008 -10 -1 -18s-1.83398 -17.167 -3.50098 -27.5
s-3.5 -20.666 -5.5 -30.999s-4.33301 -20.166 -7 -29.499c-6.66699 -7.33301 -16.334 -14.666 -29.001 -21.999s-25.167 -13.5 -37.5 -18.5s-21.166 -7.5 -26.499 -7.5c-8 0 -20.833 1.66699 -38.5 5s-36.834 7.33301 -57.501 12s-40.167 8.66699 -58.5 12s-32.5 5 -42.5 5
s-19 -2.33301 -27 -7s-18.333 -13.667 -31 -27z" />
    <glyph glyph-name="braceleft" unicode="{" horiz-adv-x="394" 
d="M210 -170c-8 0 -18.332 4.1709 -30.999 12.5039s-25.5 18.5 -38.5 30.5s-24.5 23.667 -34.5 35l29 327c-13.333 14.667 -30 26.167 -50 34.5s-36 13.166 -48 14.499c-4 4.66699 -7.33301 12.667 -10 24s-4 24 -4 38c10.667 2 23.167 5 37.5 9s28.333 9 42 15
s24.5 12.333 32.5 19l-29 333c10 11.333 21.5 23 34.5 35s25.833 22.167 38.5 30.5s23 12.5 31 12.5c14.667 0 31.167 -1 49.5 -3s36.666 -4.33301 54.999 -7s34.166 -5.33398 47.499 -8.00098c2 -2.66699 4.16699 -7.16699 6.5 -13.5s3.5 -14.166 3.5 -23.499l-170 -20
c0 -39.333 0.666992 -79.5 2 -120.5s2.5 -79.333 3.5 -115s1.5 -65.5 1.5 -89.5c0 -14 -5 -26.667 -15 -38s-21.833 -20.833 -35.5 -28.5s-25.834 -13.834 -36.501 -18.501v-4c11.333 -4 23.5 -9.83301 36.5 -17.5s24.333 -18.167 34 -31.5s14.5 -31 14.5 -53
c0 -18.667 -0.5 -43.334 -1.5 -74.001l-3.5 -104.5c-1.33301 -39 -2 -80.167 -2 -123.5l172 -20c0 -9.33301 -1.16699 -17.5 -3.5 -24.5s-4.5 -11.833 -6.5 -14.5c-13.333 -2.66699 -29.166 -5.33398 -47.499 -8.00098s-36.666 -5 -54.999 -7s-34.833 -3 -49.5 -3z" />
    <glyph glyph-name="bar" unicode="|" horiz-adv-x="429" 
d="M179 -200v977c6.66699 5.33301 17.334 10.5 32.001 15.5s31.667 7.5 51 7.5c-2.66699 -15.333 -5.33398 -43.333 -8.00098 -84s-4 -94 -4 -160v-746c-4.66699 -2 -13.5 -4.16699 -26.5 -6.5s-27.833 -3.5 -44.5 -3.5z" />
    <glyph glyph-name="braceright" unicode="}" horiz-adv-x="394" 
d="M184 -170c-14 0 -30.333 0.99707 -49 2.99707s-37.167 4.33301 -55.5 7s-34.166 5.33398 -47.499 8.00098c-2 2.66699 -4.16699 7.16699 -6.5 13.5s-3.5 14.166 -3.5 23.499l170 20c0 40 -0.5 80.333 -1.5 121s-2.16699 78.834 -3.5 114.501s-2 65.5 -2 89.5
c0 14 5 26.667 15 38s21.833 21 35.5 29s25.834 14 36.501 18v4c-10.667 4.66699 -22.667 10.667 -36 18s-24.833 17.666 -34.5 30.999s-14.5 31 -14.5 53c0 18.667 0.666992 43.334 2 74.001s2.5 65.5 3.5 104.5s1.5 80.167 1.5 123.5l-172 20
c0 9.33301 1.16699 17.5 3.5 24.5s4.5 11.833 6.5 14.5c13.333 2.66699 29.166 5.33398 47.499 8.00098s36.833 5 55.5 7s35 3 49 3c8.66699 0 19.167 -4.16699 31.5 -12.5s25 -18.5 38 -30.5s24.5 -23.667 34.5 -35l-29 -327c13.333 -14.667 30 -26.167 50 -34.5
s36 -13.166 48 -14.499c4 -4.66699 7.33301 -12.667 10 -24s4 -24 4 -38c-10 -2 -22.333 -5 -37 -9s-28.834 -8.83301 -42.501 -14.5s-24.5 -12.167 -32.5 -19.5l29 -333c-10 -11.333 -21.5 -23 -34.5 -35s-25.667 -22.167 -38 -30.5s-22.833 -12.5 -31.5 -12.5z" />
    <glyph glyph-name="asciitilde" unicode="~" horiz-adv-x="589" 
d="M425 249c-9.33301 0 -24.002 2.16699 -44.002 6.5s-42.833 9.83301 -68.5 16.5l-79 21.5l-75.5 21.5l-83 -51c-2.66699 1.33301 -6.83398 3.83301 -12.501 7.5s-9.5 8.5 -11.5 14.5c10 13.333 22 26.833 36 40.5s28.333 25.334 43 35.001s27.667 14.5 39 14.5
c8.66699 0 22.834 -1.83301 42.501 -5.5s42.167 -8.33398 67.5 -14.001l79 -18.5c27.333 -6.66699 53 -13.334 77 -20.001l73 64c8 -2.66699 14.833 -6.66699 20.5 -12s8.83398 -8.66602 9.50098 -9.99902c-9.33301 -16 -20.666 -32.667 -33.999 -50s-27 -31.833 -41 -43.5
s-26.667 -17.5 -38 -17.5z" />
    <glyph glyph-name="uni00A0" unicode="&#xa0;" horiz-adv-x="210" 
 />
    <glyph glyph-name="exclamdown" unicode="&#xa1;" horiz-adv-x="240" 
d="M65 -272l24.0039 540.001c3.33301 4.66699 10.666 9.16699 21.999 13.5s25.333 6.83301 42 7.5c5.33301 -54.667 10.166 -112.834 14.499 -174.501s7.66602 -123.167 9.99902 -184.5s3.5 -118.666 3.5 -171.999c-10.667 -8.66699 -26.834 -15.834 -48.501 -21.501
s-44.167 -8.5 -67.5 -8.5zM108.004 353.001c-6 0 -12.833 3.33398 -20.5 10.001s-15.167 15 -22.5 25s-13.333 19.833 -18 29.5s-7 17.5 -7 23.5c0 5.33301 3.16699 11.833 9.5 19.5s14.333 15 24 22s19.5 12.833 29.5 17.5s18.333 7 25 7c5.33301 0 12 -3.33301 20 -10
s16 -14.834 24 -24.501s14.667 -19.334 20 -29.001s8 -17.5 8 -23.5s-3.5 -12.667 -10.5 -20s-15.833 -14.666 -26.5 -21.999s-21 -13.333 -31 -18s-18 -7 -24 -7z" />
    <glyph glyph-name="cent" unicode="&#xa2;" horiz-adv-x="477" 
d="M272 0c-19.333 0 -39.333 3.49414 -60 10.4941s-40.334 15.333 -59.001 25s-34.5 19.167 -47.5 28.5s-21.167 16 -24.5 20c-8.66699 10.667 -15.667 28.667 -21 54s-8 52 -8 80c0 39.333 2.66699 76.333 8 111s11 61.334 17 80.001c11.333 9.33301 25.833 19.5 43.5 30.5
s37 21.333 58 31s41.833 17.5 62.5 23.5s39.667 9 57 9c13.333 0 27.166 -1.16699 41.499 -3.5s28.833 -5.66602 43.5 -9.99902s28.667 -9.33301 42 -15s25 -11.834 35 -18.501c-1.33301 -29.333 -4.16602 -55.333 -8.49902 -78s-8.16602 -39.667 -11.499 -51
c-10.667 0 -20.167 0.833008 -28.5 2.5s-14.5 3.16699 -18.5 4.5l-19 94c-6.66699 2 -15.834 4 -27.501 6s-23.167 3.66699 -34.5 5s-20 2 -26 2c-10 0 -22.833 -2.16699 -38.5 -6.5s-31.167 -9.16602 -46.5 -14.499s-27.666 -10.333 -36.999 -15
c-2.66699 -10 -5.33398 -22.667 -8.00098 -38s-4.83398 -31.166 -6.50098 -47.499s-2.5 -31.166 -2.5 -44.499c0 -22 1 -43.167 3 -63.5s4.33301 -37.333 7 -51s5.33398 -22.5 8.00098 -26.5c2.66699 -2 8.83398 -6.16699 18.501 -12.5s21 -12.833 34 -19.5
s25.5 -12.5 37.5 -17.5s21.667 -7.5 29 -7.5c9.33301 0 21.666 1.5 36.999 4.5s31.333 6.33301 48 10s31.5 7.33398 44.5 11.001s21.5 5.83398 25.5 6.50098c2.66699 -2 5.16699 -5.33301 7.5 -10s3.5 -10.334 3.5 -17.001c-8.66699 -8 -19.167 -16.667 -31.5 -26
s-26.166 -18.166 -41.499 -26.499s-31.833 -15.333 -49.5 -21s-36.167 -8.5 -55.5 -8.5zM248 -123.006l-0.000976562 712.001c10.667 7.33301 22.5 13 35.5 17s26.167 6 39.5 6c-2.66699 -22 -5.16699 -46.833 -7.5 -74.5s-3.5 -51.834 -3.5 -72.501v-578
c-6.66699 -2.66699 -15.667 -5 -27 -7s-23.666 -3 -36.999 -3z" />
    <glyph glyph-name="sterling" unicode="&#xa3;" horiz-adv-x="540" 
d="M101 0c-4.66699 0 -10.499 3.5 -17.499 10.5s-13.333 15.333 -19 25s-8.5 17.834 -8.5 24.501l54 29c6 8.66699 12.333 21.834 19 39.501s12.834 37.334 18.501 59.001s10.167 42.167 13.5 61.5h-98c0 16 1.16699 28 3.5 36s4.83301 12.667 7.5 14h40.5
c13.667 0 27.167 0.333008 40.5 1c-13.333 22 -25.166 45.167 -35.499 69.5s-18.333 47.833 -24 70.5s-8.5 41.667 -8.5 57c8 8.66699 20 17.667 36 27s33.667 18.166 53 26.499s38.666 15 57.999 20s36 7.5 50 7.5c19.333 0 40.333 -3 63 -9s43.334 -13 62.001 -21
s31.667 -15 39 -21c0 -14.667 -1.5 -30.834 -4.5 -48.501s-6.33301 -34 -10 -49s-6.83398 -25.833 -9.50098 -32.5c-12.667 0 -23.5 1.16699 -32.5 3.5s-15.167 4.83301 -18.5 7.5l-22 88c-14.667 5.33301 -29.334 9 -44.001 11s-28.667 3 -42 3
c-12.667 0 -24.834 -0.666992 -36.501 -2s-21.834 -3 -30.501 -5s-14.667 -3.66699 -18 -5c0 -13.333 2.5 -31.333 7.5 -54s11.833 -46.5 20.5 -71.5s19 -48.167 31 -69.5c20 1.33301 36.833 2.5 50.5 3.5l40.5 3c13.333 1 29.666 2.5 48.999 4.5l11 -9
c-0.666992 -12.667 -2.16699 -24.167 -4.5 -34.5s-4.5 -17.5 -6.5 -21.5h-138c-4.66699 -32.667 -10 -62.5 -16 -89.5s-12 -50.5 -18 -70.5l204 -11l43 115c11.333 0 21.833 -1.33301 31.5 -4s16.834 -5.66699 21.501 -9c-0.666992 -18.667 -2.66699 -41 -6 -67
s-7 -47.333 -11 -64c-7.33301 -6.66699 -17.666 -13.834 -30.999 -21.501s-26.5 -14.167 -39.5 -19.5s-23.167 -8 -30.5 -8c-6 0 -16 1.16699 -30 3.5l-48.5 8.5l-55.5 10.5c-18.667 3.66699 -36 6.66699 -52 9s-28.333 3.83301 -37 4.5
c-4.66699 -2.66699 -11.5 -7 -20.5 -13s-17.667 -11.333 -26 -16s-14.5 -7 -18.5 -7z" />
    <glyph glyph-name="currency" unicode="&#xa4;" horiz-adv-x="610" 
d="M83 46c-8 6 -16.832 13.999 -26.499 23.999s-17.167 18.333 -22.5 25l90 76c-5.33301 14 -9.33301 31.667 -12 53s-4 42.333 -4 63c0 22 1.5 43.167 4.5 63.5s7.16699 38.5 12.5 54.5l-91 83c6 7.33301 13.667 15 23 23s20.333 15.667 33 23l38 -43.5
c14 -16.333 30.333 -33.833 49 -52.5c23.333 13.333 49.666 25.333 78.999 36s56.666 16 81.999 16c4.66699 0 12.834 -1.83301 24.501 -5.5s25.167 -8.66699 40.5 -15s29.666 -13.166 42.999 -20.499l77 84c13.333 -8 24.5 -15.833 33.5 -23.5s15.833 -14.167 20.5 -19.5
c-17.333 -13.333 -34.333 -27.5 -51 -42.5l-37 -33.5c3.33301 -8 6 -21.667 8 -41s3 -39.666 3 -60.999c0 -26.667 -1.33301 -51.834 -4 -75.501s-6.66699 -44.5 -12 -62.5l93 -80c-3.33301 -6 -8.66602 -12.5 -15.999 -19.5s-14.333 -13.167 -21 -18.5
s-10.667 -8.66602 -12 -9.99902l-86 90c-20 -14 -43 -26.833 -69 -38.5s-52.667 -17.5 -80 -17.5c-10 0 -22.833 2.66699 -38.5 8s-31.5 12.166 -47.5 20.499s-30.333 16.833 -43 25.5zM304.001 151.999c7.33301 0 16.3311 1.33301 26.998 4s21.334 5.66699 32.001 9
s20.167 6.83301 28.5 10.5s13.833 6.5 16.5 8.5c4 10 6.66699 23.333 8 40s2 32.334 2 47.001c0 16 -0.5 31.5 -1.5 46.5s-2.33301 27.833 -4 38.5s-3.5 18 -5.5 22s-9.16699 9.16699 -21.5 15.5s-26.333 12 -42 17s-29.167 7.5 -40.5 7.5
c-4.66699 0 -11.667 -0.833008 -21 -2.5s-19.333 -3.83398 -30 -6.50098s-20.667 -5.5 -30 -8.5s-16.333 -5.5 -21 -7.5c-2.66699 -8 -4.83398 -20.167 -6.50098 -36.5s-2.5 -32.833 -2.5 -49.5c0 -20 1 -40.333 3 -61s5 -35.667 9 -45
c1.33301 -3.33301 5.83301 -7.66602 13.5 -12.999s16.834 -10.833 27.501 -16.5s21.334 -10.334 32.001 -14.001s19.667 -5.5 27 -5.5z" />
    <glyph glyph-name="yen" unicode="&#xa5;" horiz-adv-x="583" 
d="M339 0c-5.33301 0 -16.502 1.16113 -33.502 3.49414s-35.833 5.33301 -56.5 9s-40.167 7.5 -58.5 11.5s-31.833 7.33301 -40.5 10c0 5.33301 1.16699 10.333 3.5 15s4.5 8.33398 6.5 11.001l41 5c16 2 26.333 10.333 31 25s7 38.334 7 71.001v43h-168
c0 14 1.16699 25.333 3.5 34s5.16602 13.667 8.49902 15h67c26 0 53 0.333008 81 1l-30 48h-130c0 15.333 1.33301 27.166 4 35.499s5.33398 13.5 8.00098 15.5h89l-85 140c-5.33301 9.33301 -10.333 15.666 -15 18.999s-12.667 5 -24 5h-31
c-0.666992 1.33301 -2.33398 4 -5.00098 8s-4.33398 8.33301 -5.00098 13c3.33301 3.33301 8.5 7.16602 15.5 11.499s14.167 8 21.5 11s12.666 4.5 15.999 4.5h197c2.66699 -4 5 -9 7 -15s3 -12 3 -18l-45 -10c-9.33301 -2 -18 -4.66699 -26 -8s-12.5 -9.33301 -13.5 -18
s3.5 -22 13.5 -40l95 -164h3l33.5 72c13 27.333 26.667 54.5 41 81.5s28.5 51.333 42.5 73s26.667 37.167 38 46.5h115c2.66699 -3.33301 5.16699 -8 7.5 -14s3.5 -12.333 3.5 -19l-37 -11c-19.333 -5.33301 -38 -16.5 -56 -33.5s-35 -37 -51 -60s-31.333 -46.833 -46 -71.5
c24.667 0.666992 46.834 1.33398 66.501 2.00098s32.834 1.33398 39.501 2.00098l11 -9c-0.666992 -12 -2 -22.167 -4 -30.5s-4.66699 -14.5 -8 -18.5h-130l-23 -49c22.667 0.666992 43.334 1.33398 62.001 2.00098s34.834 1.33398 48.501 2.00098
s24.834 1.33398 33.501 2.00098l10 -9c-0.666992 -14.667 -2.16699 -25.167 -4.5 -31.5s-4.83301 -11.166 -7.5 -14.499h-149v-82c0 -12 -1.66699 -22.833 -5 -32.5s-6.66602 -16.834 -9.99902 -21.501l96 -9c1.33301 -2 2.83301 -5.16699 4.5 -9.5
s2.5 -9.16602 2.5 -14.499c-4.66699 -6 -12 -11.667 -22 -17s-20.333 -9.66602 -31 -12.999s-19.334 -5 -26.001 -5z" />
    <glyph glyph-name="brokenbar" unicode="&#xa6;" horiz-adv-x="429" 
d="M179 360l0.000976562 417c6.66699 5.33301 17.5 10.5 32.5 15.5s31.833 7.5 50.5 7.5c-2.66699 -15.333 -5.33398 -43.333 -8.00098 -84s-4 -94 -4 -160v-186c-12 -3.33301 -23.833 -5.83301 -35.5 -7.5s-23.5 -2.5 -35.5 -2.5zM179.001 -200v419
c12 3.33301 24 5.83301 36 7.5s23.667 2.5 35 2.5v-419c-4.66699 -2 -13.5 -4.16699 -26.5 -6.5s-27.833 -3.5 -44.5 -3.5z" />
    <glyph glyph-name="section" unicode="&#xa7;" horiz-adv-x="591" 
d="M268 -200c-15.333 0 -33.1719 2.16211 -53.5049 6.49512s-41 10 -62 17s-40.5 14.833 -58.5 23.5s-32.667 17.334 -44 26.001c0.666992 20 2.33398 41 5.00098 63s5.83398 42.5 9.50098 61.5l9.50098 47.5c8 0.666992 15 1.5 21 2.5s15.667 0.833008 29 -0.5l26 -142
c12.667 -5.33301 27.667 -10.666 45 -15.999s35 -9.83301 53 -13.5s34 -5.5 48 -5.5c12.667 0 27.167 1.5 43.5 4.5s32.333 6.66699 48 11s28.5 8.83301 38.5 13.5c6.66699 11.333 11.834 26.5 15.501 45.5s5.5 37.5 5.5 55.5c0 13.333 -0.5 24 -1.5 32
s-3.16699 16.333 -6.5 25c-6 2.66699 -18.667 7.33398 -38 14.001l-69 23l-83.5 27.5c-29 9.66699 -56.333 19.334 -82 29.001s-46.834 18.167 -63.501 25.5c-9.33301 7.33301 -18 16.833 -26 28.5s-14.5 24 -19.5 37s-7.83301 24.833 -8.5 35.5
c4 15.333 9.16699 30.666 15.5 45.999s12.833 29.333 19.5 42s12.334 22.334 17.001 29.001l-25 13c-8 4 -14.667 9.33301 -20 16c-1.33301 6 -2.5 11.667 -3.5 17s-1.66699 11 -2 17s-0.5 13 -0.5 21c0 18 1.16699 36.833 3.5 56.5s5.66602 38 9.99902 55
s9.16602 30.833 14.499 41.5c11.333 10 26.166 20.167 44.499 30.5s38.333 19.833 60 28.5s43 15.834 64 21.501s39.833 8.5 56.5 8.5c24 0 49 -3 75 -9s50.5 -13.667 73.5 -23s41.833 -19 56.5 -29c-0.666992 -17.333 -2.5 -36.833 -5.5 -58.5s-6.5 -42.167 -10.5 -61.5
s-7.66699 -35 -11 -47c-9.33301 0 -18.666 1 -27.999 3s-16.666 4.33301 -21.999 7l-20 126c-18.667 6.66699 -38.834 12.334 -60.501 17.001s-45.5 7 -71.5 7c-10.667 0 -22.167 -0.666992 -34.5 -2s-25 -3.16602 -38 -5.49902s-25.833 -5.16602 -38.5 -8.49902
c-5.33301 -9.33301 -9.66602 -20.666 -12.999 -33.999s-5.66602 -27.333 -6.99902 -42s-2 -29 -2 -43c0 -10.667 0.5 -19.167 1.5 -25.5s1.83301 -13.166 2.5 -20.499c5.33301 -2.66699 17.5 -6.83398 36.5 -12.501l67 -20l80.5 -24c28 -8.33301 54 -16.5 78 -24.5
s43.333 -15.333 58 -22c10 -8 19.833 -20.167 29.5 -36.5s18.167 -33 25.5 -50s11.333 -31.167 12 -42.5c-6 -18.667 -14.167 -37.334 -24.5 -56.001s-19.833 -34.334 -28.5 -47.001c13.333 -6 24 -11.833 32 -17.5s14.333 -11.834 19 -18.501
c2 -6.66699 3.5 -13.667 4.5 -21s1.66699 -15.333 2 -24s0.5 -18.667 0.5 -30c0 -22.667 -2.16699 -45 -6.5 -67s-10.5 -42.667 -18.5 -62c-8 -8.66699 -21 -18.334 -39 -29.001s-39 -21.167 -63 -31.5s-48.667 -18.833 -74 -25.5s-49.666 -10 -72.999 -10zM421.994 163.995
c6 14.667 11.3311 28.833 15.998 42.5s8.33398 26.667 11.001 39s4.33398 22.833 5.00098 31.5l-296 94c-1.33301 -6 -3.66602 -14.833 -6.99902 -26.5s-6.33301 -25 -9 -40s-4.33398 -30.5 -5.00098 -46.5z" />
    <glyph glyph-name="dieresis" unicode="&#xa8;" horiz-adv-x="419" 
d="M302 577c-4.66699 0 -10.5 2.83301 -17.5 8.5s-13.833 12.5 -20.5 20.5s-12.167 16.167 -16.5 24.5s-6.5 14.833 -6.5 19.5c0 5.33301 3.16699 11.166 9.5 17.499s13.833 12.5 22.5 18.5s17.334 11 26.001 15s15.334 6 20.001 6c5.33301 0 11.166 -2.83301 17.499 -8.5
s12.666 -12.667 18.999 -21s11.5 -16.666 15.5 -24.999s6 -15.166 6 -20.499c0 -6 -4.66699 -13.333 -14 -22s-19.833 -16.334 -31.5 -23.001s-21.5 -10 -29.5 -10zM103 577c-4.66699 0 -10.332 2.66797 -16.999 8.00098s-13.334 12.166 -20.001 20.499
s-12.334 16.5 -17.001 24.5s-7 14.667 -7 20s3.16699 11.166 9.5 17.499s13.833 12.5 22.5 18.5s17.5 11 26.5 15s15.833 6 20.5 6s10.334 -2.83301 17.001 -8.5s13.167 -12.667 19.5 -21s11.5 -16.666 15.5 -24.999s6 -15.166 6 -20.499c0 -6 -4.66699 -13.333 -14 -22
s-20 -16.334 -32 -23.001s-22 -10 -30 -10z" />
    <glyph glyph-name="copyright" unicode="&#xa9;" horiz-adv-x="612" 
d="M294 225c-20 0 -41.1631 3.33398 -63.4961 10.001s-43.333 14.5 -63 23.5s-36.334 17.667 -50.001 26s-22.167 14.5 -25.5 18.5c-5.33301 6 -10.833 16.167 -16.5 30.5s-10.334 31 -14.001 50s-5.5 38.5 -5.5 58.5c0 48.667 4.33301 89.334 13 122.001s19 60.667 31 84
c15.333 10 36.166 21 62.499 33s55.333 22.5 87 31.5s63.5 13.5 95.5 13.5c13.333 0 29.333 -2.66699 48 -8s37.667 -12 57 -20s36.666 -16.167 51.999 -24.5s26 -15.833 32 -22.5c4 -4.66699 7.5 -12.834 10.5 -24.501s5.33301 -25.167 7 -40.5
s2.83398 -30.5 3.50098 -45.5s1 -28.167 1 -39.5c0 -34.667 -3 -68.834 -9 -102.501s-12.667 -61.167 -20 -82.5c-8.66699 -8 -21.334 -17.167 -38.001 -27.5s-35.667 -20.333 -57 -30s-43.833 -17.667 -67.5 -24s-47.167 -9.5 -70.5 -9.5zM313.004 333.001
c-13.333 0 -27.3311 3.16504 -41.998 9.49805s-27.5 13.333 -38.5 21s-17.833 12.834 -20.5 15.501c-2 3.33301 -4.16699 9.33301 -6.5 18s-4.33301 18.834 -6 30.501s-2.5 23.5 -2.5 35.5c0 21.333 1.33301 40.166 4 56.499s6 32.833 10 49.5
c6 4.66699 15.333 10.167 28 16.5s27.167 12 43.5 17s32.5 7.5 48.5 7.5c7.33301 0 16.833 -2.83301 28.5 -8.5s22.167 -11.5 31.5 -17.5s14 -10.333 14 -13c0 -4.66699 -1.33301 -11.667 -4 -21s-5.66699 -18.333 -9 -27s-6.33301 -14.334 -9 -17.001
c-4 0 -7.83301 0.5 -11.5 1.5s-6.5 1.83301 -8.5 2.5l-15 57c-26.667 0 -47.5 -1.33301 -62.5 -4s-24.5 -5 -28.5 -7c-2.66699 -6 -4.66699 -17 -6 -33s-2 -28.667 -2 -38c0 -18.667 1.5 -35.667 4.5 -51s5.16699 -24 6.5 -26c2 -2 6.5 -5.66699 13.5 -11
s14.833 -10.166 23.5 -14.499s16 -6.5 22 -6.5s14.167 0.833008 24.5 2.5s20.166 3.66699 29.499 6l18 4.5c1.33301 -1.33301 3.16602 -3.66602 5.49902 -6.99902s3.5 -7.33301 3.5 -12c-10.667 -8.66699 -23 -17 -37 -25s-30.667 -12 -50 -12zM307.006 271.999
c10 0 22.8301 1.83398 38.4971 5.50098s31.834 8 48.501 13s32 10.333 46 16s25 10.5 33 14.5c7.33301 16 12.833 38.5 16.5 67.5s5.5 58.5 5.5 88.5c0 29.333 -1.5 57.833 -4.5 85.5s-7.5 46.834 -13.5 57.501c-2 3.33301 -8.66699 8 -20 14s-25.333 12.167 -42 18.5
s-34.167 11.666 -52.5 15.999s-35.833 6.5 -52.5 6.5c-10 0 -22.5 -1.33301 -37.5 -4s-30.667 -5.83398 -47 -9.50098s-31.5 -7.5 -45.5 -11.5s-24.667 -7.66699 -32 -11c-5.33301 -10.667 -10.833 -25.334 -16.5 -44.001s-10.167 -38.334 -13.5 -59.001s-5 -39.667 -5 -57
c0 -28 2.83301 -55.167 8.5 -81.5s11.834 -46.166 18.501 -59.499c9.33301 -9.33301 24 -19.166 44 -29.499s41.333 -19 64 -26s42.334 -10.5 59.001 -10.5z" />
    <glyph glyph-name="ordfeminine" unicode="&#xaa;" horiz-adv-x="466" 
d="M189 346c-8.66699 0 -19.1699 1.83008 -31.5029 5.49707s-24.666 8.16699 -36.999 13.5s-23 10.5 -32 15.5s-14.833 9.16699 -17.5 12.5c-4 5.33301 -7.66699 15.333 -11 30s-5 30.667 -5 48c0 6 0.166992 12 0.5 18s1.16602 12 2.49902 18
c0 2.66699 4.83301 8.33398 14.5 17.001s20.667 17.167 33 25.5s22.5 13.5 30.5 15.5c6.66699 2 18.834 3.33301 36.501 4s37.334 1.83398 59.001 3.50098s41.167 4.16699 58.5 7.5v94c-14.667 8 -30.5 14.333 -47.5 19s-35.167 7 -54.5 7h-19.5
c-7 0 -14.167 -0.333008 -21.5 -1l-14 -70c-3.33301 -1.33301 -8.16602 -2.66602 -14.499 -3.99902s-13.5 -2 -21.5 -2c-6 6 -12.5 15.833 -19.5 29.5s-11.833 28.167 -14.5 43.5c14 14.667 31 27.167 51 37.5s41.167 18.166 63.5 23.499s43.5 8 63.5 8c8 0 19 -2.5 33 -7.5
s28.333 -11.5 43 -19.5s27.167 -16 37.5 -24s15.5 -15 15.5 -21v-284l66 -9c2 -2 3.66699 -5.83301 5 -11.5s2 -10.5 2 -14.5c-4.66699 -6.66699 -14.334 -13 -29.001 -19s-26.667 -9 -36 -9c-14 0 -28.167 4.33301 -42.5 13s-25.166 19.334 -32.499 32.001
c-16.667 -12 -34.667 -22.5 -54 -31.5s-39.333 -13.5 -60 -13.5zM201.997 409.997c6.66699 0 15.3311 1.33301 25.998 4s21.667 6 33 10s21 7.66699 29 11v99c-19.333 -6.66699 -39.333 -11.167 -60 -13.5l-56.5 -6.5c-17 -2 -30.167 -6 -39.5 -12
c0 -8.66699 0.666992 -19 2 -31s4 -23.333 8 -34c2.66699 -4 9.83398 -9.5 21.501 -16.5s23.834 -10.5 36.501 -10.5z" />
    <glyph glyph-name="guillemotleft" unicode="&#xab;" horiz-adv-x="566" 
d="M290 39l-80.5 62.5029l-78 65.5c-24.333 21.333 -44 40.166 -59 56.499s-22.5 28.166 -22.5 35.499s7.5 19.166 22.5 35.499s34.667 35.166 59 56.499l78 66l80.5 63c4 -1.33301 8.5 -4.66602 13.5 -9.99902s9.5 -13.333 13.5 -24l-187 -221l1 70l186 -223
c-4.66699 -8.66699 -9.5 -16 -14.5 -22s-9.16699 -9.66699 -12.5 -11zM484 39.0029l-80.5 62.5029l-78 65.5c-24.333 21.333 -44 40.166 -59 56.499s-22.5 28.166 -22.5 35.499s7.5 19.166 22.5 35.499s34.667 35.166 59 56.499l78 66l80.5 63
c4 -1.33301 8.5 -4.66602 13.5 -9.99902s9.5 -13.333 13.5 -24l-187 -221l1 70l186 -223c-4.66699 -8.66699 -9.5 -16 -14.5 -22s-9.16699 -9.66699 -12.5 -11z" />
    <glyph glyph-name="logicalnot" unicode="&#xac;" horiz-adv-x="633" 
d="M525 172l0.00195312 165h-499c0 16.667 1.16699 30 3.5 40s5.16602 15.333 8.49902 16c75.333 0 143.666 0.5 204.999 1.5s115 2.16699 161 3.5s84 2.83301 114 4.5s51.333 3.5 64 5.5l15 -19c-0.666992 -48.667 -2 -89.167 -4 -121.5s-4.33301 -59.166 -7 -80.499
c-5.33301 -2.66699 -13 -5.83398 -23 -9.50098s-22.667 -5.5 -38 -5.5z" />
    <glyph glyph-name="uni00AD" unicode="&#xad;" horiz-adv-x="342" 
d="M30 270c0 14 1.16895 25.333 3.50195 34s5.16602 14.667 8.49902 18c32 0 64.667 0.833008 98 2.5s64.166 3.66699 92.499 6s50.5 4.5 66.5 6.5l16 -18c0 -9.33301 -1 -18.5 -3 -27.5s-4.66699 -16.167 -8 -21.5h-274z" />
    <glyph glyph-name="registered" unicode="&#xae;" horiz-adv-x="612" 
d="M294 225c-20 0 -41.1631 3.33398 -63.4961 10.001s-43.333 14.5 -63 23.5s-36.334 17.667 -50.001 26s-22.167 14.5 -25.5 18.5c-5.33301 6 -10.833 16.167 -16.5 30.5s-10.334 31 -14.001 50s-5.5 38.5 -5.5 58.5c0 48.667 4.33301 89.334 13 122.001s19 60.667 31 84
c15.333 10 36.166 21 62.499 33s55.333 22.5 87 31.5s63.5 13.5 95.5 13.5c13.333 0 29.333 -2.66699 48 -8s37.667 -12 57 -20s36.666 -16.167 51.999 -24.5s26 -15.833 32 -22.5c4 -4.66699 7.5 -12.834 10.5 -24.501s5.33301 -25.167 7 -40.5
s2.83398 -30.5 3.50098 -45.5s1 -28.167 1 -39.5c0 -34.667 -3 -68.834 -9 -102.501s-12.667 -61.167 -20 -82.5c-8.66699 -8 -21.334 -17.167 -38.001 -27.5s-35.667 -20.333 -57 -30s-43.833 -17.667 -67.5 -24s-47.167 -9.5 -70.5 -9.5zM307.004 272.001
c10 0 22.8301 1.83496 38.4971 5.50195s31.834 8 48.501 13s32 10.333 46 16s25 10.5 33 14.5c7.33301 16 12.833 38.5 16.5 67.5s5.5 58.5 5.5 88.5c0 20 -0.666992 39.5 -2 58.5s-3.33301 36.167 -6 51.5s-6 26.333 -10 33c-2 3.33301 -8.66699 8 -20 14
s-25.333 12.167 -42 18.5s-34.167 11.666 -52.5 15.999s-35.833 6.5 -52.5 6.5c-10 0 -22.5 -1.33301 -37.5 -4s-30.667 -5.83398 -47 -9.50098s-31.5 -7.5 -45.5 -11.5s-24.667 -7.66699 -32 -11c-5.33301 -10.667 -10.833 -25.334 -16.5 -44.001
s-10.167 -38.334 -13.5 -59.001s-5 -39.667 -5 -57c0 -28 2.83301 -55.167 8.5 -81.5s11.834 -46.166 18.501 -59.499c9.33301 -9.33301 24 -19.166 44 -29.499s41.333 -19 64 -26s42.334 -10.5 59.001 -10.5zM273.001 341.003c-4 0 -10.335 0.830078 -19.002 2.49707
s-18 3.66699 -28 6s-19 4.66602 -27 6.99902s-13.667 3.83301 -17 4.5c0 1.33301 0.5 3.5 1.5 6.5s1.83301 5.83301 2.5 8.5h15c8 0 13.5 2.5 16.5 7.5s4.5 14.833 4.5 29.5v148c0 9.33301 0.666992 15.833 2 19.5s2.33301 5.83398 3 6.50098h-39
c-2 2.66699 -3.33301 5 -4 7s-1 3.33301 -1 4c2 2.66699 6.5 5.83398 13.5 9.50098s11.833 5.5 14.5 5.5h131c6 -0.666992 15.5 -4 28.5 -10s21.167 -11.333 24.5 -16c2 -2.66699 4 -8.33398 6 -17.001s3 -17 3 -25c0 -6.66699 -1.16699 -15.167 -3.5 -25.5
s-5.16602 -18.166 -8.49902 -23.499c-4.66699 -4.66699 -11.667 -9.5 -21 -14.5s-18.333 -8.5 -27 -10.5v-3c4 -2 7.83301 -4.66699 11.5 -8s7.5 -9 11.5 -17l13 -26c7.33301 -14.667 14.666 -25.667 21.999 -33s17 -11 29 -11h12c1.33301 -1.33301 2.5 -3.33301 3.5 -6
s1.5 -5.66699 1.5 -9c-5.33301 -5.33301 -12.666 -9.5 -21.999 -12.5s-17.666 -4.5 -24.999 -4.5c-8 0 -17.667 2.5 -29 7.5s-21.666 17.5 -30.999 37.5l-30 68c-2 4.66699 -4.33301 7.83398 -7 9.50098s-6 2.5 -10 2.5h-24v-68c0 -6.66699 -0.666992 -12.167 -2 -16.5
s-2.66602 -7.16602 -3.99902 -8.49902l47 -6c0.666992 -2 1.16699 -4.33301 1.5 -7s0.5 -4.66699 0.5 -6c-2.66699 -3.33301 -8.33398 -6.33301 -17.001 -9s-16.334 -4 -23.001 -4zM269.999 493c13.333 0 26.665 0.5 39.998 1.5s25.666 2.83301 36.999 5.5l4.5 16
c1.66699 6 2.5 13 2.5 21c0 9.33301 -0.833008 17.833 -2.5 25.5s-5.16699 14.5 -10.5 20.5c-9.33301 1.33301 -17.666 2.33301 -24.999 3s-14.666 1 -21.999 1c-9.33301 0 -15.666 -1.83301 -18.999 -5.5s-5 -10.167 -5 -19.5v-69z" />
    <glyph glyph-name="macron" unicode="&#xaf;" horiz-adv-x="328" 
d="M0 580c0 15.333 1.33105 28.499 3.99805 39.499s5.33398 17.833 8.00098 20.5c21.333 0 46.833 0.5 76.5 1.5s59.834 2.33301 90.501 4s58.334 3.33398 83.001 5.00098s43 2.83398 55 3.50098l11 -9c-0.666992 -14.667 -2.33398 -27.834 -5.00098 -39.501
s-5 -20.167 -7 -25.5h-316z" />
    <glyph glyph-name="degree" unicode="&#xb0;" horiz-adv-x="326" 
d="M163 352c-18.667 0 -36.834 4.16699 -54.501 12.5s-32.334 20.833 -44.001 37.5s-17.5 37.667 -17.5 63s5.83301 46.5 17.5 63.5s26.334 29.667 44.001 38s35.834 12.5 54.501 12.5s36.834 -4.16699 54.501 -12.5s32.334 -21 44.001 -38s17.5 -38.167 17.5 -63.5
s-5.83301 -46.333 -17.5 -63s-26.334 -29.167 -44.001 -37.5s-35.834 -12.5 -54.501 -12.5zM163 404c21.333 0 36 4.33301 44 13s12 24.667 12 48s-4 39.5 -12 48.5s-22.667 13.5 -44 13.5s-36 -4.33301 -44 -13s-12 -25 -12 -49c0 -23.333 4 -39.333 12 -48
s22.667 -13 44 -13z" />
    <glyph glyph-name="plusminus" unicode="&#xb1;" horiz-adv-x="516" 
d="M225 57v420c2 3.33301 8.66699 6.33301 20 9s27.333 4 48 4v-423c-4 -2 -11.833 -4.16699 -23.5 -6.5s-26.5 -3.5 -44.5 -3.5zM53 248c0 16 1.50098 28.332 4.50098 36.999s5.83301 14 8.5 16c44 0 89.833 0.5 137.5 1.5s93.5 2.5 137.5 4.5s81.667 4 113 6l11 -10
c-0.666992 -14.667 -2.33398 -26.667 -5.00098 -36s-5 -15.666 -7 -18.999h-400zM53.001 -58.001c0 16 1.50098 28.332 4.50098 36.999s5.83301 14 8.5 16c44 0 89.833 0.5 137.5 1.5s93.5 2.5 137.5 4.5s81.667 4 113 6l11 -10
c-0.666992 -14.667 -2.33398 -26.667 -5.00098 -36s-5 -15.666 -7 -18.999h-400z" />
    <glyph glyph-name="uni00B2" unicode="&#xb2;" horiz-adv-x="426" 
d="M82 343c-10.667 2.66699 -20.8311 8.33203 -30.498 16.999s-15.167 18.667 -16.5 30c30 21.333 58.333 46.5 85 75.5s50.167 58.167 70.5 87.5s36.333 56 48 80s17.5 42 17.5 54c-14.667 4.66699 -34.334 8.5 -59.001 11.5s-46.334 4.5 -65.001 4.5l-17 -95
c-4.66699 -1.33301 -10.834 -2.33301 -18.501 -3s-13.834 -1 -18.501 -1c-6.66699 13.333 -13.167 29.5 -19.5 48.5s-10.5 37.167 -12.5 54.5c8.66699 10 20.167 18.833 34.5 26.5s29.833 14.167 46.5 19.5s33.167 9.5 49.5 12.5s30.5 4.5 42.5 4.5
c10.667 0 23.167 -2.66699 37.5 -8s28.5 -12 42.5 -20s25.5 -16 34.5 -24s13.5 -14.667 13.5 -20c0 -16.667 -7.33301 -40.5 -22 -71.5s-35.167 -64.167 -61.5 -99.5s-57.5 -68.666 -93.5 -99.999l136 -15l33 98c6.66699 0 14.667 -1 24 -3s16 -4.33301 20 -7
c0 -12.667 -0.5 -26.834 -1.5 -42.501s-2.16699 -30.667 -3.5 -45s-2.66602 -26.166 -3.99902 -35.499c-5.33301 -4 -13.166 -8.66699 -23.499 -14s-21 -10 -32 -14s-20.167 -6 -27.5 -6l-162 38z" />
    <glyph glyph-name="uni00B3" unicode="&#xb3;" horiz-adv-x="348" 
d="M117 346c-6 0 -14.8359 1.99707 -26.5029 5.99707s-23 8.83301 -34 14.5s-18.5 10.5 -22.5 14.5c1.33301 7.33301 3 13.833 5 19.5s4 9.83398 6 12.501c9.33301 -1.33301 20.333 -2.5 33 -3.5s24.667 -1.5 36 -1.5c18 0 36.167 1 54.5 3s32.5 4.33301 42.5 7
c3.33301 2 6.5 7.16699 9.5 15.5s5.5 17.833 7.5 28.5s3 20.667 3 30c0 6 -3.16699 10.5 -9.5 13.5s-17.5 6.83301 -33.5 11.5l-70 21c0 6.66699 0.833008 14 2.5 22s4.83398 15 9.50098 21l61 -5c4.66699 8 9.83398 20 15.501 36s10.667 31.833 15 47.5
s6.5 25.834 6.5 30.501c-14.667 4 -33.667 7.33301 -57 10s-44.666 4 -63.999 4l-17 -95c-4.66699 -1.33301 -11.167 -2.33301 -19.5 -3s-14.5 -1 -18.5 -1c-6.66699 12.667 -13 28.167 -19 46.5s-10.333 36.833 -13 55.5c12.667 13.333 29.167 24.666 49.5 33.999
s41.5 16.5 63.5 21.5s41.333 7.5 58 7.5c10 0 22.167 -2.5 36.5 -7.5s28.333 -11.333 42 -19s25 -15.5 34 -23.5s13.5 -14.667 13.5 -20c0 -9.33301 -2.66699 -20.666 -8 -33.999s-12.166 -26.833 -20.499 -40.5s-16.333 -26.167 -24 -37.5s-14.167 -19.666 -19.5 -24.999
v-2c14 -4 26.167 -9.33301 36.5 -16s18.333 -13.834 24 -21.501s8.5 -15.5 8.5 -23.5c0 -16.667 -2.66699 -33.5 -8 -50.5s-11.5 -31.667 -18.5 -44s-13.167 -20.5 -18.5 -24.5c-7.33301 -5.33301 -19.833 -10.666 -37.5 -15.999s-36.834 -9.83301 -57.501 -13.5
s-39.667 -5.5 -57 -5.5z" />
    <glyph glyph-name="acute" unicode="&#xb4;" horiz-adv-x="217" 
d="M33 565c-6.66699 2.66699 -12.999 6.33496 -18.999 11.002s-10.667 9 -14 13c22 33.333 43.667 62.666 65 87.999s40.166 45.333 56.499 60s27.5 22 33.5 22c5.33301 0 12.333 -3.33301 21 -10s17 -14.834 25 -24.501s13.333 -19.167 16 -28.5z" />
    <glyph glyph-name="uni00B5" unicode="&#xb5;" horiz-adv-x="599" 
d="M193 -200c-30.667 0 -52.9971 11.165 -66.9971 33.498s-22.833 55.833 -26.5 100.5s-5.5 101 -5.5 169l69 -39c0 -23.333 1.16699 -47.166 3.5 -71.499s6.66602 -47.166 12.999 -68.499s15.166 -39 26.499 -53s26 -22.333 44 -25
c1.33301 -1.33301 3.16602 -4.16602 5.49902 -8.49902s3.83301 -8.83301 4.5 -13.5c-10 -8.66699 -21.333 -14.834 -34 -18.501s-23.667 -5.5 -33 -5.5zM246.003 -4.00195c-16 0 -32.8281 3.83398 -50.4951 11.501s-34.167 17.167 -49.5 28.5s-27.833 22.333 -37.5 33
s-14.5 19.334 -14.5 26.001v299c0 5.33301 -1 10.333 -3 15s-6 8 -12 10l-61 22c1.33301 9.33301 3 16.333 5 21s4.33301 8 7 10c11.333 6.66699 26.5 13 45.5 19s34.5 9 46.5 9c19.333 0 36.166 -7.33301 50.499 -22s21.5 -32.334 21.5 -53.001v-302l25.5 -20.5
c9.66699 -7.66699 19.667 -14.5 30 -20.5s19.166 -9 26.499 -9c8 0 19 1.83301 33 5.5s28.667 8.5 44 14.5l42 17v284c0 5.33301 -1.16699 10.333 -3.5 15s-6.5 8 -12.5 10l-72 25c0.666992 7.33301 2 13.5 4 18.5s4 8.16699 6 9.5c7.33301 4 17.666 8.16699 30.999 12.5
s27.166 8 41.499 11s25.5 4.5 33.5 4.5c19.333 0 36.166 -7.33301 50.499 -22s21.5 -32.334 21.5 -53.001v-354l75 -9c1.33301 -2 3 -5.33301 5 -10s3 -10 3 -16c-4 -6 -11 -11.667 -21 -17s-20.667 -9.83301 -32 -13.5s-21 -5.5 -29 -5.5c-18 0 -35.667 5 -53 15
s-29.666 22 -36.999 36c-14 -8.66699 -30.667 -17.167 -50 -25.5s-38.833 -15.333 -58.5 -21s-36.834 -8.5 -51.501 -8.5z" />
    <glyph glyph-name="paragraph" unicode="&#xb6;" horiz-adv-x="734" 
d="M274 -200c-8.66699 0 -19.499 1.50195 -32.499 4.50195s-25.667 7 -38 12s-22.5 10.167 -30.5 15.5c0 5.33301 1 10.333 3 15s3.66699 7.66699 5 9c30.667 9.33301 61.167 21.333 91.5 36s55.166 31.334 74.499 50.001v307
c-18.667 -0.666992 -36.334 -1.16699 -53.001 -1.5s-31 -0.5 -43 -0.5c-18 0 -36.667 3.5 -56 10.5s-37.5 15.333 -54.5 25s-31.167 19.167 -42.5 28.5s-18.666 16 -21.999 20c-7.33301 10.667 -13.833 28.667 -19.5 54s-8.5 53 -8.5 83c0 27.333 2 53.666 6 78.999
s10 47.333 18 66c8 7.33301 20 16.166 36 26.499s34.5 20.333 55.5 30s43.5 17.834 67.5 24.501s47.333 10 70 10h371c3.33301 -2.66699 6.33301 -7.33398 9 -14.001s4 -13.667 4 -21l-44 -13c-13.333 -4 -23.833 -8.83301 -31.5 -14.5s-13 -14 -16 -25
s-4.5 -26.5 -4.5 -46.5v-750c-4.66699 -6 -14.167 -10.833 -28.5 -14.5s-29.5 -5.5 -45.5 -5.5v772c0 29.333 2.5 49.166 7.5 59.499s8.5 16.833 10.5 19.5h-112v-721c-7.33301 -16 -17.333 -31.667 -30 -47s-26.334 -29.333 -41.001 -42s-28.667 -22.667 -42 -30
s-24.666 -11 -33.999 -11z" />
    <glyph glyph-name="periodcentered" unicode="&#xb7;" horiz-adv-x="252" 
d="M118 193c-5.33301 0 -12 3.33105 -20 9.99805s-16 14.834 -24 24.501s-14.667 19.334 -20 29.001s-8 17.5 -8 23.5s3.5 12.667 10.5 20s15.833 14.666 26.5 21.999s21 13.333 31 18s18 7 24 7s12.833 -3.33301 20.5 -10s15.167 -15 22.5 -25s13.333 -19.833 18 -29.5
s7 -17.5 7 -23.5c0 -7.33301 -5.33301 -16.166 -16 -26.499s-23 -19.5 -37 -27.5s-25.667 -12 -35 -12z" />
    <glyph glyph-name="cedilla" unicode="&#xb8;" horiz-adv-x="192" 
d="M66 -200c-6 0 -13.833 1.33496 -23.5 4.00195s-18.5 5.83398 -26.5 9.50098s-13.333 7.16699 -16 10.5c0 5.33301 0.666992 9.66602 2 12.999s2.33301 5.66602 3 6.99902c22.667 0 42.667 0.333008 60 1s33.333 2.66699 48 6c3.33301 5.33301 5.83301 12.666 7.5 21.999
s2.5 17.333 2.5 24c-4.66699 3.33301 -12.667 7.16602 -24 11.499s-23.5 8.5 -36.5 12.5s-24.5 6.66699 -34.5 8c-2.66699 4 -5.5 9.33301 -8.5 16s-4.5 13.334 -4.5 20.001l18.5 34c5 9.33301 12.5 22 22.5 38h39l-21 -74c18 -2.66699 36.167 -7.33398 54.5 -14.001
s33.5 -13.667 45.5 -21s18 -13.666 18 -18.999c0 -10.667 -2 -23.667 -6 -39s-9.66699 -27.333 -17 -36c-10.667 -6.66699 -23 -12.667 -37 -18s-27 -9.33301 -39 -12s-21 -4 -27 -4z" />
    <glyph glyph-name="uni00B9" unicode="&#xb9;" horiz-adv-x="333" 
d="M216 346c-3.33301 0 -12.4961 0.830078 -27.4961 2.49707s-32 3.83398 -51 6.50098s-36.667 5.5 -53 8.5s-27.5 5.5 -33.5 7.5c0 4 0.666992 8.5 2 13.5s2.66602 8.83301 3.99902 11.5l41 7c9.33301 1.33301 16.333 4.16602 21 8.49902s7 14.5 7 30.5v176
c0 12 0.833008 24.333 2.5 37s3.5 22.334 5.5 29.001h-85c0 6.66699 0.5 14.334 1.5 23.001s2.83301 15.334 5.5 20.001c23.333 2.66699 46.166 6.66699 68.499 12s42.166 14.333 59.499 27c7.33301 0 14.833 -1.33301 22.5 -4s13.5 -6 17.5 -10
c-2 -10 -4.33301 -25.5 -7 -46.5s-4 -41.833 -4 -62.5v-201c0 -8.66699 -0.833008 -16.5 -2.5 -23.5s-3.5 -12.167 -5.5 -15.5l72 -7c1.33301 -2.66699 2.33301 -5.83398 3 -9.50098s1 -8.16699 1 -13.5c-6.66699 -5.33301 -17.334 -11.166 -32.001 -17.499
s-25.667 -9.5 -33 -9.5z" />
    <glyph glyph-name="ordmasculine" unicode="&#xba;" horiz-adv-x="421" 
d="M201 346c-14.667 0 -29.999 2.99902 -45.999 8.99902s-31.167 13.167 -45.5 21.5s-26.333 16.333 -36 24s-16.167 13.167 -19.5 16.5c-4 4.66699 -7.66699 15 -11 31s-6.16602 34 -8.49902 54s-3.5 38.333 -3.5 55c0 32 1.33301 57.667 4 77s5.33398 37.333 8.00098 54
c11.333 7.33301 27.666 17 48.999 29s45 22.833 71 32.5s50.667 14.5 74 14.5c10 0 21.833 -2.5 35.5 -7.5s27.5 -11 41.5 -18s26.333 -14 37 -21s18 -12.833 22 -17.5c3.33301 -4 6 -12.333 8 -25s3.66699 -27.334 5 -44.001s2.33301 -32.667 3 -48s1 -27.333 1 -36
c0 -27.333 -1.16699 -50.166 -3.5 -68.499s-5.16602 -36.166 -8.49902 -53.499c-8.66699 -8.66699 -22.334 -19.167 -41.001 -31.5s-39.834 -23.333 -63.501 -33s-47.834 -14.5 -72.501 -14.5zM212.001 410.999c9.33301 0 19.999 1.83398 31.999 5.50098
s23.5 7.66699 34.5 12s18.5 7.5 22.5 9.5c2.66699 6.66699 4.66699 15 6 25s2.33301 20.5 3 31.5s1 21.833 1 32.5c0 19.333 -0.666992 38 -2 56s-3 33.5 -5 46.5s-4 20.833 -6 23.5c-2 3.33301 -8 8.5 -18 15.5s-21.167 13.333 -33.5 19s-23.833 8.5 -34.5 8.5
c-5.33301 0 -14.166 -1.33301 -26.499 -4s-24.5 -5.66699 -36.5 -9s-20.333 -6 -25 -8c-1.33301 -6 -3 -14.667 -5 -26s-3.66699 -23.333 -5 -36s-2 -24.667 -2 -36c0 -27.333 1.83301 -52.333 5.5 -75s7.16699 -36.334 10.5 -41.001c2 -2.66699 8.16699 -8 18.5 -16
s21.833 -15.667 34.5 -23s23 -11 31 -11z" />
    <glyph glyph-name="guillemotright" unicode="&#xbb;" horiz-adv-x="566" 
d="M82 39c-4 1.33301 -8.5 4.66309 -13.5 9.99609s-9.5 13.333 -13.5 24l187 221l-1 -70l-186 223c5.33301 9.33301 10.5 16.833 15.5 22.5s8.83301 9.16699 11.5 10.5l80.5 -62.5l78 -65.5c24.333 -21.333 44 -40.166 59 -56.499s22.5 -28.166 22.5 -35.499
s-7.5 -19.166 -22.5 -35.499s-34.667 -35.166 -59 -56.499l-78 -66zM276 38.9971c-4 1.33301 -8.5 4.66309 -13.5 9.99609s-9.5 13.333 -13.5 24l187 221l-1 -70l-186 223c5.33301 9.33301 10.5 16.833 15.5 22.5s8.83301 9.16699 11.5 10.5l80.5 -62.5l78 -65.5
c24.333 -21.333 44 -40.166 59 -56.499s22.5 -28.166 22.5 -35.499s-7.5 -19.166 -22.5 -35.499s-34.667 -35.166 -59 -56.499l-78 -66z" />
    <glyph glyph-name="onequarter" unicode="&#xbc;" horiz-adv-x="897" 
d="M216 286c-3.33301 0 -12.4961 0.830078 -27.4961 2.49707s-32 3.83398 -51 6.50098s-36.667 5.5 -53 8.5s-27.5 5.5 -33.5 7.5c0 4 0.666992 8.5 2 13.5s2.66602 8.83301 3.99902 11.5l41 7c9.33301 1.33301 16.333 4.16602 21 8.49902s7 14.5 7 30.5v176
c0 12 0.833008 24.333 2.5 37s3.5 22.334 5.5 29.001h-85c0 6.66699 0.5 14.334 1.5 23.001s2.83301 15.334 5.5 20.001c23.333 2.66699 46.166 6.66699 68.499 12s42.166 14.333 59.499 27c7.33301 0 14.833 -1.33301 22.5 -4s13.5 -6 17.5 -10
c-2 -10 -4.33301 -25.5 -7 -46.5s-4 -41.833 -4 -62.5v-201c0 -8.66699 -0.833008 -16.5 -2.5 -23.5s-3.5 -12.167 -5.5 -15.5l72 -7c1.33301 -2.66699 2.33301 -5.83398 3 -9.50098s1 -8.16699 1 -13.5c-6.66699 -5.33301 -17.334 -11.166 -32.001 -17.499
s-25.667 -9.5 -33 -9.5zM308.004 -97.0029c-14.667 0 -27.5 2.33301 -38.5 7s-19.833 9.33398 -26.5 14.001l229 589l40 106.5c11.333 31.667 20.833 59.167 28.5 82.5s13.167 41.333 16.5 54c17.333 -2.66699 32 -7.33398 44 -14.001s20.333 -13 25 -19zM729.004 -3.00293
c-0.666992 0 -3 0.834961 -7 2.50195s-7.33301 3.16699 -10 4.5c2 5.33301 4.5 14.5 7.5 27.5s4.5 25.833 4.5 38.5v34h-176c-4 2 -9.33301 7.16699 -16 15.5s-11 18.5 -13 30.5l191 257c8 3.33301 19.667 6.16602 35 8.49902s30.333 3.5 45 3.5l19 -9
c-1.33301 -6.66699 -2.5 -16.5 -3.5 -29.5s-1.83301 -26.833 -2.5 -41.5s-1 -28 -1 -40v-140l65 3l7 -10c-0.666992 -6.66699 -2.16699 -14.834 -4.5 -24.501s-4.83301 -17.167 -7.5 -22.5h-60v-96c-4 -1.33301 -10.5 -3 -19.5 -5s-18.5 -3.66699 -28.5 -5
s-18.333 -2 -25 -2zM590.004 158.999h132v124c0 8 0.666992 16 2 24s2.83301 15.333 4.5 22s3.16699 11.667 4.5 15l-4 3z" />
    <glyph glyph-name="onehalf" unicode="&#xbd;" horiz-adv-x="962" 
d="M216 286c-3.33301 0 -12.4961 0.830078 -27.4961 2.49707s-32 3.83398 -51 6.50098s-36.667 5.5 -53 8.5s-27.5 5.5 -33.5 7.5c0 4 0.666992 8.5 2 13.5s2.66602 8.83301 3.99902 11.5l41 7c9.33301 1.33301 16.333 4.16602 21 8.49902s7 14.5 7 30.5v176
c0 12 0.833008 24.333 2.5 37s3.5 22.334 5.5 29.001h-85c0 6.66699 0.5 14.334 1.5 23.001s2.83301 15.334 5.5 20.001c23.333 2.66699 46.166 6.66699 68.499 12s42.166 14.333 59.499 27c7.33301 0 14.833 -1.33301 22.5 -4s13.5 -6 17.5 -10
c-2 -10 -4.33301 -25.5 -7 -46.5s-4 -41.833 -4 -62.5v-201c0 -8.66699 -0.833008 -16.5 -2.5 -23.5s-3.5 -12.167 -5.5 -15.5l72 -7c1.33301 -2.66699 2.33301 -5.83398 3 -9.50098s1 -8.16699 1 -13.5c-6.66699 -5.33301 -17.334 -11.166 -32.001 -17.499
s-25.667 -9.5 -33 -9.5zM308.004 -97.0029c-14.667 0 -27.5 2.33301 -38.5 7s-19.833 9.33398 -26.5 14.001l229 589l40 106.5c11.333 31.667 20.833 59.167 28.5 82.5s13.167 41.333 16.5 54c17.333 -2.66699 32 -7.33398 44 -14.001s20.333 -13 25 -19zM618.004 -7.00293
c-10.667 2.66699 -20.8311 8.33203 -30.498 16.999s-15.167 18.667 -16.5 30c30 21.333 58.333 46.5 85 75.5s50.167 58.167 70.5 87.5s36.333 56 48 80s17.5 42 17.5 54c-14.667 4.66699 -34.334 8.5 -59.001 11.5s-46.334 4.5 -65.001 4.5l-17 -95
c-4.66699 -1.33301 -10.834 -2.33301 -18.501 -3s-13.834 -1 -18.501 -1c-6.66699 13.333 -13.167 29.5 -19.5 48.5s-10.5 37.167 -12.5 54.5c8.66699 10 20.167 18.833 34.5 26.5s29.833 14.167 46.5 19.5s33.167 9.5 49.5 12.5s30.5 4.5 42.5 4.5
c10.667 0 23.167 -2.66699 37.5 -8s28.5 -12 42.5 -20s25.5 -16 34.5 -24s13.5 -14.667 13.5 -20c0 -16.667 -7.33301 -40.5 -22 -71.5s-35.167 -64.167 -61.5 -99.5s-57.5 -68.666 -93.5 -99.999l136 -15l33 98c6.66699 0 14.667 -1 24 -3s16 -4.33301 20 -7
c0 -12.667 -0.5 -26.834 -1.5 -42.501s-2.16699 -30.667 -3.5 -45s-2.66602 -26.166 -3.99902 -35.499c-5.33301 -4 -13.166 -8.66699 -23.499 -14s-21 -10 -32 -14s-20.167 -6 -27.5 -6l-162 38z" />
    <glyph glyph-name="threequarters" unicode="&#xbe;" horiz-adv-x="912" 
d="M117 286c-6 0 -14.8359 1.99707 -26.5029 5.99707s-23 8.83301 -34 14.5s-18.5 10.5 -22.5 14.5c1.33301 7.33301 3 13.833 5 19.5s4 9.83398 6 12.501c9.33301 -1.33301 20.333 -2.5 33 -3.5s24.667 -1.5 36 -1.5c18 0 36.167 1 54.5 3s32.5 4.33301 42.5 7
c3.33301 2 6.5 7.16699 9.5 15.5s5.5 17.833 7.5 28.5s3 20.667 3 30c0 6 -3.16699 10.5 -9.5 13.5s-17.5 6.83301 -33.5 11.5l-70 21c0 6.66699 0.833008 14 2.5 22s4.83398 15 9.50098 21l61 -5c4.66699 8 9.83398 20 15.501 36s10.667 31.833 15 47.5
s6.5 25.834 6.5 30.501c-14.667 4 -33.667 7.33301 -57 10s-44.666 4 -63.999 4l-17 -95c-4.66699 -1.33301 -11.167 -2.33301 -19.5 -3s-14.5 -1 -18.5 -1c-6.66699 12.667 -13 28.167 -19 46.5s-10.333 36.833 -13 55.5c12.667 13.333 29.167 24.666 49.5 33.999
s41.5 16.5 63.5 21.5s41.333 7.5 58 7.5c10 0 22.167 -2.5 36.5 -7.5s28.333 -11.333 42 -19s25 -15.5 34 -23.5s13.5 -14.667 13.5 -20c0 -9.33301 -2.66699 -20.666 -8 -33.999s-12.166 -26.833 -20.499 -40.5s-16.333 -26.167 -24 -37.5s-14.167 -19.666 -19.5 -24.999
v-2c14 -4 26.167 -9.33301 36.5 -16s18.333 -13.834 24 -21.501s8.5 -15.5 8.5 -23.5c0 -16.667 -2.66699 -33.5 -8 -50.5s-11.5 -31.667 -18.5 -44s-13.167 -20.5 -18.5 -24.5c-7.33301 -5.33301 -19.833 -10.666 -37.5 -15.999s-36.834 -9.83301 -57.501 -13.5
s-39.667 -5.5 -57 -5.5zM322.997 -97.0029c-14.667 0 -27.5 2.33301 -38.5 7s-19.833 9.33398 -26.5 14.001l229 589l40 106.5c11.333 31.667 20.833 59.167 28.5 82.5s13.167 41.333 16.5 54c17.333 -2.66699 32 -7.33398 44 -14.001s20.333 -13 25 -19zM743.997 -3.00293
c-0.666992 0 -3 0.834961 -7 2.50195s-7.33301 3.16699 -10 4.5c2 5.33301 4.5 14.5 7.5 27.5s4.5 25.833 4.5 38.5v34h-176c-4 2 -9.33301 7.16699 -16 15.5s-11 18.5 -13 30.5l191 257c8 3.33301 19.667 6.16602 35 8.49902s30.333 3.5 45 3.5l19 -9
c-1.33301 -6.66699 -2.5 -16.5 -3.5 -29.5s-1.83301 -26.833 -2.5 -41.5s-1 -28 -1 -40v-140l65 3l7 -10c-0.666992 -6.66699 -2.16699 -14.834 -4.5 -24.501s-4.83301 -17.167 -7.5 -22.5h-60v-96c-4 -1.33301 -10.5 -3 -19.5 -5s-18.5 -3.66699 -28.5 -5
s-18.333 -2 -25 -2zM604.997 158.999h132v124c0 8 0.666992 16 2 24s2.83301 15.333 4.5 22s3.16699 11.667 4.5 15l-4 3z" />
    <glyph glyph-name="questiondown" unicode="&#xbf;" horiz-adv-x="519" 
d="M258 -282c-18 0 -39.168 3.66504 -63.501 10.998s-48.333 16.5 -72 27.5s-43.834 22.167 -60.501 33.5c-2.66699 13.333 -5 29.333 -7 48s-3 38 -3 58c0 25.333 1.5 50.333 4.5 75s6.83301 44.334 11.5 59.001c7.33301 12 20.5 24 39.5 36s39.333 23.167 61 33.5l58 27
c17 7.66699 27.5 13.167 31.5 16.5c1.33301 6.66699 2.33301 15.667 3 27s1 21 1 29c0 10.667 -0.333008 21.834 -1 33.501s-1.66699 22.834 -3 33.501c4 2.66699 10.5 6 19.5 10s18.833 6.66699 29.5 8c9.33301 -14.667 17 -32.5 23 -53.5s10.667 -42.5 14 -64.5
s5 -43 5 -63c-9.33301 -10 -22.666 -19.833 -39.999 -29.5s-35.833 -18.834 -55.5 -27.501l-54 -23c-16.333 -6.66699 -28.166 -11.667 -35.499 -15c-3.33301 -12.667 -6 -29 -8 -49s-3 -41.667 -3 -65c0 -15.333 0.5 -29.5 1.5 -42.5s2.83301 -24.833 5.5 -35.5
c8.66699 -3.33301 18.334 -6.16602 29.001 -8.49902s22 -4.16602 34 -5.49902s24 -2 36 -2s24.333 0.666992 37 2s25 3.16602 37 5.49902s23 5.5 33 9.5l19 122c5.33301 3.33301 14 6.16602 26 8.49902s22 3.5 30 3.5c3.33301 -10 7.16602 -25.167 11.499 -45.5
s8 -42 11 -65s4.5 -43.167 4.5 -60.5c-15.333 -9.33301 -34.5 -18.833 -57.5 -28.5s-47.667 -17.667 -74 -24s-52.5 -9.5 -78.5 -9.5zM262.999 352.998c-6 0 -12.833 3.33398 -20.5 10.001s-15.167 15 -22.5 25s-13.333 19.833 -18 29.5s-7 17.5 -7 23.5
c0 5.33301 3.16699 11.833 9.5 19.5s14.333 15 24 22s19.5 12.833 29.5 17.5s18.333 7 25 7c5.33301 0 12 -3.33301 20 -10s16 -14.834 24 -24.501s14.667 -19.334 20 -29.001s8 -17.5 8 -23.5s-3.5 -12.667 -10.5 -20s-15.833 -14.666 -26.5 -21.999s-21 -13.333 -31 -18
s-18 -7 -24 -7z" />
    <glyph glyph-name="Agrave" unicode="&#xc0;" horiz-adv-x="795" 
d="M246 0c-3.33301 0 -11.3369 0.663086 -24.0039 1.99609s-28 3.33301 -46 6l-55.5 8c-19 2.66699 -36.833 5.66699 -53.5 9s-30 6.33301 -40 9c0 6 1.33301 11.667 4 17s5.33398 9.33301 8.00098 12h9c8.66699 0 17.5 2.83301 26.5 8.5s18.167 15.334 27.5 29.001
s18.833 32.334 28.5 56.001s19.834 53.834 30.501 90.501l114 397c6 6 15.167 13.167 27.5 21.5s26 16.666 41 24.999s29.333 15.333 43 21s24.167 8.5 31.5 8.5c9.33301 0 21.5 -3 36.5 -9s30.333 -13.5 46 -22.5s28.167 -18.167 37.5 -27.5l135 -572
c2 -6.66699 4.5 -12.334 7.5 -17.001s9.5 -7.33398 19.5 -8.00098l63 -4c2 -2.66699 4 -5 6 -7s3.33301 -8.33301 4 -19c-5.33301 -4.66699 -12.5 -9.66699 -21.5 -15s-18.667 -9.83301 -29 -13.5s-19.833 -5.5 -28.5 -5.5c-6 0 -16.667 1 -32 3s-32.833 4.66699 -52.5 8
s-39.167 6.83301 -58.5 10.5s-36.666 7.33398 -51.999 11.001s-26.333 6.5 -33 8.5c0 6.66699 1.66699 12.334 5 17.001s5.33301 7.33398 6 8.00098h34c10.667 0 19.667 0.666992 27 2s12.333 6 15 14s1.66699 21.667 -3 41l-36 163h-257l-40 -142
c-4 -14 -8.83301 -26.167 -14.5 -36.5s-11.667 -18.5 -18 -24.5s-13.5 -10 -21.5 -12l153 -12c0.666992 -2 2 -5.16699 4 -9.5s3 -9.83301 3 -16.5c-5.33301 -5.33301 -12.666 -10.666 -21.999 -15.999s-19 -9.5 -29 -12.5s-18.667 -4.5 -26 -4.5zM272.996 343.996
c34.667 0 66.832 0.666016 96.499 1.99902s55.5 2.83301 77.5 4.5s38.667 3.5 50 5.5l-58 257c-14.667 10 -29.167 17.833 -43.5 23.5s-28.166 9.83398 -41.499 12.501zM460.994 768.995l-193.001 133.999c3.33301 9.33301 9 19 17 29s16.5 18.5 25.5 25.5
s16.167 10.5 21.5 10.5c6.66699 0 18.334 -7.16699 35.001 -21.5s36.5 -34.5 59.5 -60.5s46.833 -56.667 71.5 -92c-3.33301 -4.66699 -8.83301 -9.66699 -16.5 -15s-14.5 -8.66602 -20.5 -9.99902z" />
    <glyph glyph-name="Aacute" unicode="&#xc1;" horiz-adv-x="795" 
d="M246 0c-3.33301 0 -11.3369 0.663086 -24.0039 1.99609s-28 3.33301 -46 6l-55.5 8c-19 2.66699 -36.833 5.66699 -53.5 9s-30 6.33301 -40 9c0 6 1.33301 11.667 4 17s5.33398 9.33301 8.00098 12h9c8.66699 0 17.5 2.83301 26.5 8.5s18.167 15.334 27.5 29.001
s18.833 32.334 28.5 56.001s19.834 53.834 30.501 90.501l114 397c6 6 15.167 13.167 27.5 21.5s26 16.666 41 24.999s29.333 15.333 43 21s24.167 8.5 31.5 8.5c9.33301 0 21.5 -3 36.5 -9s30.333 -13.5 46 -22.5s28.167 -18.167 37.5 -27.5l135 -572
c2 -6.66699 4.5 -12.334 7.5 -17.001s9.5 -7.33398 19.5 -8.00098l63 -4c2 -2.66699 4 -5 6 -7s3.33301 -8.33301 4 -19c-5.33301 -4.66699 -12.5 -9.66699 -21.5 -15s-18.667 -9.83301 -29 -13.5s-19.833 -5.5 -28.5 -5.5c-6 0 -16.667 1 -32 3s-32.833 4.66699 -52.5 8
s-39.167 6.83301 -58.5 10.5s-36.666 7.33398 -51.999 11.001s-26.333 6.5 -33 8.5c0 6.66699 1.66699 12.334 5 17.001s5.33301 7.33398 6 8.00098h34c10.667 0 19.667 0.666992 27 2s12.333 6 15 14s1.66699 21.667 -3 41l-36 163h-257l-40 -142
c-4 -14 -8.83301 -26.167 -14.5 -36.5s-11.667 -18.5 -18 -24.5s-13.5 -10 -21.5 -12l153 -12c0.666992 -2 2 -5.16699 4 -9.5s3 -9.83301 3 -16.5c-5.33301 -5.33301 -12.666 -10.666 -21.999 -15.999s-19 -9.5 -29 -12.5s-18.667 -4.5 -26 -4.5zM272.996 343.996
c34.667 0 66.832 0.666016 96.499 1.99902s55.5 2.83301 77.5 4.5s38.667 3.5 50 5.5l-58 257c-14.667 10 -29.167 17.833 -43.5 23.5s-28.166 9.83398 -41.499 12.501zM327.994 768.995c-8.66699 2.66699 -16.166 6.66797 -22.499 12.001s-10.833 9.66602 -13.5 12.999
c24 34.667 47.333 65 70 91s42.5 46.333 59.5 61s28.833 22 35.5 22c5.33301 0 12.5 -3.33301 21.5 -10s17.667 -15 26 -25s14.166 -20 17.499 -30z" />
    <glyph glyph-name="Acircumflex" unicode="&#xc2;" horiz-adv-x="795" 
d="M246 0c-3.33301 0 -11.3369 0.663086 -24.0039 1.99609s-28 3.33301 -46 6l-55.5 8c-19 2.66699 -36.833 5.66699 -53.5 9s-30 6.33301 -40 9c0 6 1.33301 11.667 4 17s5.33398 9.33301 8.00098 12h9c8.66699 0 17.5 2.83301 26.5 8.5s18.167 15.334 27.5 29.001
s18.833 32.334 28.5 56.001s19.834 53.834 30.501 90.501l114 397c6 6 15.167 13.167 27.5 21.5s26 16.666 41 24.999s29.333 15.333 43 21s24.167 8.5 31.5 8.5c9.33301 0 21.5 -3 36.5 -9s30.333 -13.5 46 -22.5s28.167 -18.167 37.5 -27.5l135 -572
c2 -6.66699 4.5 -12.334 7.5 -17.001s9.5 -7.33398 19.5 -8.00098l63 -4c2 -2.66699 4 -5 6 -7s3.33301 -8.33301 4 -19c-5.33301 -4.66699 -12.5 -9.66699 -21.5 -15s-18.667 -9.83301 -29 -13.5s-19.833 -5.5 -28.5 -5.5c-6 0 -16.667 1 -32 3s-32.833 4.66699 -52.5 8
s-39.167 6.83301 -58.5 10.5s-36.666 7.33398 -51.999 11.001s-26.333 6.5 -33 8.5c0 6.66699 1.66699 12.334 5 17.001s5.33301 7.33398 6 8.00098h34c10.667 0 19.667 0.666992 27 2s12.333 6 15 14s1.66699 21.667 -3 41l-36 163h-257l-40 -142
c-4 -14 -8.83301 -26.167 -14.5 -36.5s-11.667 -18.5 -18 -24.5s-13.5 -10 -21.5 -12l153 -12c0.666992 -2 2 -5.16699 4 -9.5s3 -9.83301 3 -16.5c-5.33301 -5.33301 -12.666 -10.666 -21.999 -15.999s-19 -9.5 -29 -12.5s-18.667 -4.5 -26 -4.5zM272.996 343.996
c34.667 0 66.832 0.666016 96.499 1.99902s55.5 2.83301 77.5 4.5s38.667 3.5 50 5.5l-58 257c-14.667 10 -29.167 17.833 -43.5 23.5s-28.166 9.83398 -41.499 12.501zM273.994 768.995c-6.66699 2.66699 -12.832 6.33203 -18.499 10.999s-9.5 9.33398 -11.5 14.001
l68.5 92c19.667 26 36.667 46.167 51 60.5s25.833 21.5 34.5 21.5c9.33301 0 21.166 -7.5 35.499 -22.5s31.333 -35.667 51 -62l66.5 -89.5c-2.66699 -3.33301 -6.5 -7.83301 -11.5 -13.5s-11.5 -9.5 -19.5 -11.5l-123 102z" />
    <glyph glyph-name="Atilde" unicode="&#xc3;" horiz-adv-x="795" 
d="M246 0c-3.33301 0 -11.3369 0.663086 -24.0039 1.99609s-28 3.33301 -46 6l-55.5 8c-19 2.66699 -36.833 5.66699 -53.5 9s-30 6.33301 -40 9c0 6 1.33301 11.667 4 17s5.33398 9.33301 8.00098 12h9c8.66699 0 17.5 2.83301 26.5 8.5s18.167 15.334 27.5 29.001
s18.833 32.334 28.5 56.001s19.834 53.834 30.501 90.501l114 397c6 6 15.167 13.167 27.5 21.5s26 16.666 41 24.999s29.333 15.333 43 21s24.167 8.5 31.5 8.5c9.33301 0 21.5 -3 36.5 -9s30.333 -13.5 46 -22.5s28.167 -18.167 37.5 -27.5l135 -572
c2 -6.66699 4.5 -12.334 7.5 -17.001s9.5 -7.33398 19.5 -8.00098l63 -4c2 -2.66699 4 -5 6 -7s3.33301 -8.33301 4 -19c-5.33301 -4.66699 -12.5 -9.66699 -21.5 -15s-18.667 -9.83301 -29 -13.5s-19.833 -5.5 -28.5 -5.5c-6 0 -16.667 1 -32 3s-32.833 4.66699 -52.5 8
s-39.167 6.83301 -58.5 10.5s-36.666 7.33398 -51.999 11.001s-26.333 6.5 -33 8.5c0 6.66699 1.66699 12.334 5 17.001s5.33301 7.33398 6 8.00098h34c10.667 0 19.667 0.666992 27 2s12.333 6 15 14s1.66699 21.667 -3 41l-36 163h-257l-40 -142
c-4 -14 -8.83301 -26.167 -14.5 -36.5s-11.667 -18.5 -18 -24.5s-13.5 -10 -21.5 -12l153 -12c0.666992 -2 2 -5.16699 4 -9.5s3 -9.83301 3 -16.5c-5.33301 -5.33301 -12.666 -10.666 -21.999 -15.999s-19 -9.5 -29 -12.5s-18.667 -4.5 -26 -4.5zM272.996 343.996
c34.667 0 66.832 0.666016 96.499 1.99902s55.5 2.83301 77.5 4.5s38.667 3.5 50 5.5l-58 257c-14.667 10 -29.167 17.833 -43.5 23.5s-28.166 9.83398 -41.499 12.501zM490.994 777.995c-8.66699 0 -23.835 3.33496 -45.502 10.002s-45.5 14.834 -71.5 24.501l-72 27.5
l-74 -53c-4 1.33301 -8.16699 3.66602 -12.5 6.99902s-7.83301 8 -10.5 14c8.66699 14.667 18.667 30 30 46s22.833 29.5 34.5 40.5s21.834 16.5 30.501 16.5s24 -3.16699 46 -9.5s46.5 -13.833 73.5 -22.5s51.833 -17.334 74.5 -26.001l69 63
c6.66699 -2.66699 12.334 -5.66699 17.001 -9s8 -6.66602 10 -9.99902c-8.66699 -16.667 -19.167 -34.334 -31.5 -53.001s-24.5 -34.334 -36.5 -47.001s-22.333 -19 -31 -19z" />
    <glyph glyph-name="Adieresis" unicode="&#xc4;" horiz-adv-x="795" 
d="M246 0c-3.33301 0 -11.3369 0.663086 -24.0039 1.99609s-28 3.33301 -46 6l-55.5 8c-19 2.66699 -36.833 5.66699 -53.5 9s-30 6.33301 -40 9c0 6 1.33301 11.667 4 17s5.33398 9.33301 8.00098 12h9c8.66699 0 17.5 2.83301 26.5 8.5s18.167 15.334 27.5 29.001
s18.833 32.334 28.5 56.001s19.834 53.834 30.501 90.501l114 397c6 6 15.167 13.167 27.5 21.5s26 16.666 41 24.999s29.333 15.333 43 21s24.167 8.5 31.5 8.5c9.33301 0 21.5 -3 36.5 -9s30.333 -13.5 46 -22.5s28.167 -18.167 37.5 -27.5l135 -572
c2 -6.66699 4.5 -12.334 7.5 -17.001s9.5 -7.33398 19.5 -8.00098l63 -4c2 -2.66699 4 -5 6 -7s3.33301 -8.33301 4 -19c-5.33301 -4.66699 -12.5 -9.66699 -21.5 -15s-18.667 -9.83301 -29 -13.5s-19.833 -5.5 -28.5 -5.5c-6 0 -16.667 1 -32 3s-32.833 4.66699 -52.5 8
s-39.167 6.83301 -58.5 10.5s-36.666 7.33398 -51.999 11.001s-26.333 6.5 -33 8.5c0 6.66699 1.66699 12.334 5 17.001s5.33301 7.33398 6 8.00098h34c10.667 0 19.667 0.666992 27 2s12.333 6 15 14s1.66699 21.667 -3 41l-36 163h-257l-40 -142
c-4 -14 -8.83301 -26.167 -14.5 -36.5s-11.667 -18.5 -18 -24.5s-13.5 -10 -21.5 -12l153 -12c0.666992 -2 2 -5.16699 4 -9.5s3 -9.83301 3 -16.5c-5.33301 -5.33301 -12.666 -10.666 -21.999 -15.999s-19 -9.5 -29 -12.5s-18.667 -4.5 -26 -4.5zM272.996 343.996
c34.667 0 66.832 0.666016 96.499 1.99902s55.5 2.83301 77.5 4.5s38.667 3.5 50 5.5l-58 257c-14.667 10 -29.167 17.833 -43.5 23.5s-28.166 9.83398 -41.499 12.501zM496.994 778.995c-4.66699 0 -10.668 2.83301 -18.001 8.5s-14.666 12.834 -21.999 21.501
s-13.333 17.167 -18 25.5s-7 15.166 -7 20.499s3.16699 11.333 9.5 18s14.333 13.167 24 19.5s19 11.5 28 15.5s16.167 6 21.5 6s11.5 -3 18.5 -9s13.833 -13.333 20.5 -22s12.167 -17.334 16.5 -26.001s6.5 -15.667 6.5 -21c0 -4.66699 -3 -10.167 -9 -16.5
s-13.333 -12.666 -22 -18.999s-17.5 -11.5 -26.5 -15.5s-16.5 -6 -22.5 -6zM283.993 778.995c-4.66699 0 -10.665 2.83398 -17.998 8.50098s-14.5 12.834 -21.5 21.501s-13 17.167 -18 25.5s-7.5 15.166 -7.5 20.499s3.33301 11.333 10 18s14.667 13.167 24 19.5
s18.666 11.5 27.999 15.5s16.666 6 21.999 6s11.333 -2.83301 18 -8.5s13.5 -12.834 20.5 -21.501s12.667 -17.334 17 -26.001s6.5 -16 6.5 -22c0 -4.66699 -3 -10.167 -9 -16.5s-13.333 -12.666 -22 -18.999s-17.667 -11.5 -27 -15.5s-17 -6 -23 -6z" />
    <glyph glyph-name="Aring" unicode="&#xc5;" horiz-adv-x="795" 
d="M246 0c-3.33301 0 -11.3369 0.663086 -24.0039 1.99609s-28 3.33301 -46 6l-55.5 8c-19 2.66699 -36.833 5.66699 -53.5 9s-30 6.33301 -40 9c0 6 1.33301 11.667 4 17s5.33398 9.33301 8.00098 12h9c8.66699 0 17.5 2.83301 26.5 8.5s18.167 15.334 27.5 29.001
s18.833 32.334 28.5 56.001s19.834 53.834 30.501 90.501l114 397c6 6 15.167 13.167 27.5 21.5s26 16.666 41 24.999s29.333 15.333 43 21s24.167 8.5 31.5 8.5c9.33301 0 21.5 -3 36.5 -9s30.333 -13.5 46 -22.5s28.167 -18.167 37.5 -27.5l135 -572
c2 -6.66699 4.5 -12.334 7.5 -17.001s9.5 -7.33398 19.5 -8.00098l63 -4c2 -2.66699 4 -5 6 -7s3.33301 -8.33301 4 -19c-5.33301 -4.66699 -12.5 -9.66699 -21.5 -15s-18.667 -9.83301 -29 -13.5s-19.833 -5.5 -28.5 -5.5c-6 0 -16.667 1 -32 3s-32.833 4.66699 -52.5 8
s-39.167 6.83301 -58.5 10.5s-36.666 7.33398 -51.999 11.001s-26.333 6.5 -33 8.5c0 6.66699 1.66699 12.334 5 17.001s5.33301 7.33398 6 8.00098h34c10.667 0 19.667 0.666992 27 2s12.333 6 15 14s1.66699 21.667 -3 41l-36 163h-257l-40 -142
c-4 -14 -8.83301 -26.167 -14.5 -36.5s-11.667 -18.5 -18 -24.5s-13.5 -10 -21.5 -12l153 -12c0.666992 -2 2 -5.16699 4 -9.5s3 -9.83301 3 -16.5c-5.33301 -5.33301 -12.666 -10.666 -21.999 -15.999s-19 -9.5 -29 -12.5s-18.667 -4.5 -26 -4.5zM272.996 343.996
c34.667 0 66.832 0.666016 96.499 1.99902s55.5 2.83301 77.5 4.5s38.667 3.5 50 5.5l-58 257c-14.667 10 -29.167 17.833 -43.5 23.5s-28.166 9.83398 -41.499 12.501zM397.994 767.995c-29.333 0 -53.833 9 -73.5 27s-29.5 40.667 -29.5 68s9.83301 50.166 29.5 68.499
s44.167 27.5 73.5 27.5c30 0 54.833 -9.16699 74.5 -27.5s29.5 -41.166 29.5 -68.499s-9.83301 -50 -29.5 -68s-44.5 -27 -74.5 -27zM397.994 817.995c15.333 0 27.5 4 36.5 12s13.5 19 13.5 33c0 14.667 -4.5 26 -13.5 34s-21.167 12 -36.5 12
c-14.667 0 -26.5 -4 -35.5 -12s-13.5 -19.333 -13.5 -34c0 -14 4.5 -25 13.5 -33s20.833 -12 35.5 -12z" />
    <glyph glyph-name="AE" unicode="&#xc6;" horiz-adv-x="1015" 
d="M225 0c-4.66699 0 -15.3369 1.16699 -32.0039 3.5s-35.667 5.16602 -57 8.49902s-41.833 7 -61.5 11s-35.5 7.66699 -47.5 11c0 5.33301 1.16699 10.833 3.5 16.5s4.5 9.83398 6.5 12.501h14c7.33301 0 14.666 1.66699 21.999 5s15.333 10.5 24 21.5s18 28.167 28 51.5
s20.667 55 32 95l116 400c5.33301 5.33301 13.5 11.833 24.5 19.5s23 15.167 36 22.5s25.5 13.5 37.5 18.5s21.333 7.5 28 7.5h426c17.333 -5.33301 35.333 -13.166 54 -23.499s33 -21.166 43 -32.499c-2.66699 -39.333 -7 -73.833 -13 -103.5s-11.333 -51.167 -16 -64.5
c-12 0 -23.5 1 -34.5 3s-19.167 4.33301 -24.5 7l-25 141c-8.66699 2 -20.334 4 -35.001 6s-31 3.83301 -49 5.5s-36.5 3.16699 -55.5 4.5s-37.5 2 -55.5 2c-23.333 0 -40.333 -1.33301 -51 -4s-16.5 -8.33398 -17.5 -17.001s0.5 -22.667 4.5 -42l47 -204
c36 4 68.667 7.83301 98 11.5s55.333 7.5 78 11.5s41 7.66699 55 11l10 -11c-0.666992 -14.667 -2.16699 -28.5 -4.5 -41.5s-4.83301 -22.167 -7.5 -27.5l-213 -20l37 -160c5.33301 -22.667 6.83301 -40.834 4.5 -54.501s-6.83301 -23.5 -13.5 -29.5h220l55 169
c12.667 0 24.334 -1.66699 35.001 -5s18.667 -7.33301 24 -12c0 -18.667 -0.5 -39.334 -1.5 -62.001s-2.5 -44.334 -4.5 -65.001s-4 -37.667 -6 -51c-5.33301 -5.33301 -13.5 -11.666 -24.5 -18.999s-22.167 -13.666 -33.5 -18.999s-20.666 -8 -27.999 -8
c-16 0 -35.667 0.5 -59 1.5s-48.666 2.33301 -75.999 4s-55 3.66699 -83 6s-54.833 4.83301 -80.5 7.5s-48.667 5.33398 -69 8.00098s-36.5 5 -48.5 7c0 6 1.16699 11.5 3.5 16.5s4.5 8.5 6.5 10.5l24 4c10.667 2 20.334 4.66699 29.001 8s14.834 9.66602 18.501 18.999
s3.16699 23.666 -1.5 42.999l-39 171l-255 -23l-40 -141c-4.66699 -16.667 -10.167 -30.167 -16.5 -40.5s-12.333 -18 -18 -23s-10.167 -8.16699 -13.5 -9.5l136 -11c2 -2 4 -5 6 -9s3 -9.33301 3 -16c-5.33301 -5.33301 -12.833 -10.666 -22.5 -15.999
s-19.667 -9.5 -30 -12.5s-19.166 -4.5 -26.499 -4.5zM261.997 344c19.333 2 37.333 3.66797 54 5.00098s33.334 2.83301 50.001 4.5s34.667 3.66699 54 6s41.333 5.16602 66 8.49902l-60 269c-20 0 -37.333 -1.5 -52 -4.5s-26.334 -6.16699 -35.001 -9.5z" />
    <glyph glyph-name="Ccedilla" unicode="&#xc7;" horiz-adv-x="684" 
d="M367 0c-20.667 0 -43.8281 3.66602 -69.4951 10.999s-50.834 16.5 -75.501 27.5s-46.334 22.167 -65.001 33.5s-31.667 21.333 -39 30c-16 18 -28.333 46.333 -37 85s-13 82.334 -13 131.001c0 40 2.16699 79.333 6.5 118s9.83301 73.5 16.5 104.5
s13.334 54.167 20.001 69.5c15.333 13.333 34.666 26.333 57.999 39s48.666 24.5 75.999 35.5s54.666 19.667 81.999 26s53 9.5 77 9.5c27.333 0 54.833 -3.16699 82.5 -9.5s53.167 -14.5 76.5 -24.5s42.333 -20.333 57 -31c-2 -41.333 -5.83301 -77.5 -11.5 -108.5
s-10.5 -53.5 -14.5 -67.5c-17.333 0.666992 -31 2.16699 -41 4.5s-17.333 4.5 -22 6.5l-23 125c-9.33301 4.66699 -21.666 9.16699 -36.999 13.5s-30.5 8 -45.5 11s-27.833 4.5 -38.5 4.5c-14.667 0 -32.167 -1.66699 -52.5 -5s-40.5 -7.83301 -60.5 -13.5
s-37 -12.167 -51 -19.5c-8 -18.667 -14.833 -41.667 -20.5 -69s-9.83398 -56.333 -12.501 -87s-4 -60.334 -4 -89.001c0 -29.333 1.33301 -57.666 4 -84.999s6.66699 -52.166 12 -74.499s11.333 -40.833 18 -55.5c6 -6 16 -13 30 -21s29.5 -15.5 46.5 -22.5
s34 -12.833 51 -17.5s31.833 -7 44.5 -7c12 0 25 0.666992 39 2s27.333 3.16602 40 5.49902s22.667 5.16602 30 8.49902l54 152c13.333 0 25.666 -1.83301 36.999 -5.5s20 -7.16699 26 -10.5c0 -16.667 -0.833008 -35 -2.5 -55l-5 -59
c-1.66699 -19.333 -3.5 -36.333 -5.5 -51c-12.667 -8 -30.667 -17.167 -54 -27.5s-50.5 -19.166 -81.5 -26.499s-65.167 -11 -102.5 -11zM372.006 -200.001c-6 0 -13.833 1.33496 -23.5 4.00195s-18.5 5.83398 -26.5 9.50098s-13.333 7.16699 -16 10.5
c0 5.33301 0.666992 9.66602 2 12.999s2.33301 5.66602 3 6.99902c22.667 0 42.667 0.333008 60 1s33.333 2.66699 48 6c3.33301 5.33301 5.83301 12.666 7.5 21.999s2.5 17.333 2.5 24c-4.66699 3.33301 -12.667 7.16602 -24 11.499s-23.5 8.5 -36.5 12.5
s-24.5 6.66699 -34.5 8c-2.66699 4 -5.5 9.33301 -8.5 16s-4.5 13.334 -4.5 20.001l18.5 34c5 9.33301 12.5 22 22.5 38h39l-21 -74c18 -2.66699 36.167 -7.33398 54.5 -14.001s33.5 -13.667 45.5 -21s18 -13.666 18 -18.999c0 -10.667 -2 -23.667 -6 -39
s-9.66699 -27.333 -17 -36c-10.667 -6.66699 -23 -12.667 -37 -18s-27 -9.33301 -39 -12s-21 -4 -27 -4z" />
    <glyph glyph-name="Egrave" unicode="&#xc8;" horiz-adv-x="692" 
d="M530 0c-16.667 0 -38 0.495117 -64 1.49512s-54.667 2.33301 -86 4s-63.166 3.66699 -95.499 6l-93.5 7c-30 2.33301 -57 4.83301 -81 7.5s-42.667 5.33398 -56 8.00098c0 5.33301 1 10.5 3 15.5s4.33301 8.83301 7 11.5l29 4c13.333 2 23.5 5.66699 30.5 11s12 15 15 29
s4.5 34.333 4.5 61v402c0 18.667 1.16699 33.667 3.5 45s5.16602 19.833 8.49902 25.5s5.66602 8.83398 6.99902 9.50098h-97c-2.66699 2.66699 -5.16699 6 -7.5 10s-3.83301 8.33301 -4.5 13c4 4.66699 10.167 9.5 18.5 14.5s16.833 9.33301 25.5 13s15 5.5 19 5.5h411
c18 -6 35.667 -14 53 -24s31.333 -20.667 42 -32c-2.66699 -40 -7.16699 -74.667 -13.5 -104s-11.833 -50.666 -16.5 -63.999c-13.333 0 -25.166 1.16699 -35.499 3.5s-18.166 4.5 -23.499 6.5l-25 141c-12.667 2.66699 -29 5.16699 -49 7.5s-42.333 4.5 -67 6.5
s-50 3 -76 3c-17.333 0 -30.5 -3.83301 -39.5 -11.5s-14.833 -17.667 -17.5 -30s-4 -25.166 -4 -38.499v-176c30.667 0.666992 59 1.5 85 2.5s50.167 2.5 72.5 4.5s42.5 4 60.5 6l11 -11c-1.33301 -14.667 -3.16602 -27.834 -5.49902 -39.501s-4.5 -20.167 -6.5 -25.5h-217
v-189c0 -16 -2 -30 -6 -42s-8 -20.667 -12 -26h273l58 169c13.333 0 25.5 -2 36.5 -6s18.167 -7.66699 21.5 -11c0 -20 -0.666992 -41.167 -2 -63.5s-3 -43.666 -5 -63.999s-4.33301 -37.166 -7 -50.499c-5.33301 -6 -13.333 -12.5 -24 -19.5s-21.334 -13.167 -32.001 -18.5
s-19.334 -8 -26.001 -8zM427 768.995l-193.001 133.999c3.33301 9.33301 9 19 17 29s16.5 18.5 25.5 25.5s16.167 10.5 21.5 10.5c6.66699 0 18.334 -7.16699 35.001 -21.5s36.5 -34.5 59.5 -60.5s46.833 -56.667 71.5 -92c-3.33301 -4.66699 -8.83301 -9.66699 -16.5 -15
s-14.5 -8.66602 -20.5 -9.99902z" />
    <glyph glyph-name="Eacute" unicode="&#xc9;" horiz-adv-x="692" 
d="M530 0c-16.667 0 -38 0.495117 -64 1.49512s-54.667 2.33301 -86 4s-63.166 3.66699 -95.499 6l-93.5 7c-30 2.33301 -57 4.83301 -81 7.5s-42.667 5.33398 -56 8.00098c0 5.33301 1 10.5 3 15.5s4.33301 8.83301 7 11.5l29 4c13.333 2 23.5 5.66699 30.5 11s12 15 15 29
s4.5 34.333 4.5 61v402c0 18.667 1.16699 33.667 3.5 45s5.16602 19.833 8.49902 25.5s5.66602 8.83398 6.99902 9.50098h-97c-2.66699 2.66699 -5.16699 6 -7.5 10s-3.83301 8.33301 -4.5 13c4 4.66699 10.167 9.5 18.5 14.5s16.833 9.33301 25.5 13s15 5.5 19 5.5h411
c18 -6 35.667 -14 53 -24s31.333 -20.667 42 -32c-2.66699 -40 -7.16699 -74.667 -13.5 -104s-11.833 -50.666 -16.5 -63.999c-13.333 0 -25.166 1.16699 -35.499 3.5s-18.166 4.5 -23.499 6.5l-25 141c-12.667 2.66699 -29 5.16699 -49 7.5s-42.333 4.5 -67 6.5
s-50 3 -76 3c-17.333 0 -30.5 -3.83301 -39.5 -11.5s-14.833 -17.667 -17.5 -30s-4 -25.166 -4 -38.499v-176c30.667 0.666992 59 1.5 85 2.5s50.167 2.5 72.5 4.5s42.5 4 60.5 6l11 -11c-1.33301 -14.667 -3.16602 -27.834 -5.49902 -39.501s-4.5 -20.167 -6.5 -25.5h-217
v-189c0 -16 -2 -30 -6 -42s-8 -20.667 -12 -26h273l58 169c13.333 0 25.5 -2 36.5 -6s18.167 -7.66699 21.5 -11c0 -20 -0.666992 -41.167 -2 -63.5s-3 -43.666 -5 -63.999s-4.33301 -37.166 -7 -50.499c-5.33301 -6 -13.333 -12.5 -24 -19.5s-21.334 -13.167 -32.001 -18.5
s-19.334 -8 -26.001 -8zM294 768.995c-8.66699 2.66699 -16.166 6.66797 -22.499 12.001s-10.833 9.66602 -13.5 12.999c24 34.667 47.333 65 70 91s42.5 46.333 59.5 61s28.833 22 35.5 22c5.33301 0 12.5 -3.33301 21.5 -10s17.667 -15 26 -25s14.166 -20 17.499 -30z" />
    <glyph glyph-name="Ecircumflex" unicode="&#xca;" horiz-adv-x="692" 
d="M530 0c-16.667 0 -38 0.495117 -64 1.49512s-54.667 2.33301 -86 4s-63.166 3.66699 -95.499 6l-93.5 7c-30 2.33301 -57 4.83301 -81 7.5s-42.667 5.33398 -56 8.00098c0 5.33301 1 10.5 3 15.5s4.33301 8.83301 7 11.5l29 4c13.333 2 23.5 5.66699 30.5 11s12 15 15 29
s4.5 34.333 4.5 61v402c0 18.667 1.16699 33.667 3.5 45s5.16602 19.833 8.49902 25.5s5.66602 8.83398 6.99902 9.50098h-97c-2.66699 2.66699 -5.16699 6 -7.5 10s-3.83301 8.33301 -4.5 13c4 4.66699 10.167 9.5 18.5 14.5s16.833 9.33301 25.5 13s15 5.5 19 5.5h411
c18 -6 35.667 -14 53 -24s31.333 -20.667 42 -32c-2.66699 -40 -7.16699 -74.667 -13.5 -104s-11.833 -50.666 -16.5 -63.999c-13.333 0 -25.166 1.16699 -35.499 3.5s-18.166 4.5 -23.499 6.5l-25 141c-12.667 2.66699 -29 5.16699 -49 7.5s-42.333 4.5 -67 6.5
s-50 3 -76 3c-17.333 0 -30.5 -3.83301 -39.5 -11.5s-14.833 -17.667 -17.5 -30s-4 -25.166 -4 -38.499v-176c30.667 0.666992 59 1.5 85 2.5s50.167 2.5 72.5 4.5s42.5 4 60.5 6l11 -11c-1.33301 -14.667 -3.16602 -27.834 -5.49902 -39.501s-4.5 -20.167 -6.5 -25.5h-217
v-189c0 -16 -2 -30 -6 -42s-8 -20.667 -12 -26h273l58 169c13.333 0 25.5 -2 36.5 -6s18.167 -7.66699 21.5 -11c0 -20 -0.666992 -41.167 -2 -63.5s-3 -43.666 -5 -63.999s-4.33301 -37.166 -7 -50.499c-5.33301 -6 -13.333 -12.5 -24 -19.5s-21.334 -13.167 -32.001 -18.5
s-19.334 -8 -26.001 -8zM240 768.995c-6.66699 2.66699 -12.832 6.33203 -18.499 10.999s-9.5 9.33398 -11.5 14.001l68.5 92c19.667 26 36.667 46.167 51 60.5s25.833 21.5 34.5 21.5c9.33301 0 21.166 -7.5 35.499 -22.5s31.333 -35.667 51 -62l66.5 -89.5
c-2.66699 -3.33301 -6.5 -7.83301 -11.5 -13.5s-11.5 -9.5 -19.5 -11.5l-123 102z" />
    <glyph glyph-name="Edieresis" unicode="&#xcb;" horiz-adv-x="692" 
d="M530 0c-16.667 0 -38 0.495117 -64 1.49512s-54.667 2.33301 -86 4s-63.166 3.66699 -95.499 6l-93.5 7c-30 2.33301 -57 4.83301 -81 7.5s-42.667 5.33398 -56 8.00098c0 5.33301 1 10.5 3 15.5s4.33301 8.83301 7 11.5l29 4c13.333 2 23.5 5.66699 30.5 11s12 15 15 29
s4.5 34.333 4.5 61v402c0 18.667 1.16699 33.667 3.5 45s5.16602 19.833 8.49902 25.5s5.66602 8.83398 6.99902 9.50098h-97c-2.66699 2.66699 -5.16699 6 -7.5 10s-3.83301 8.33301 -4.5 13c4 4.66699 10.167 9.5 18.5 14.5s16.833 9.33301 25.5 13s15 5.5 19 5.5h411
c18 -6 35.667 -14 53 -24s31.333 -20.667 42 -32c-2.66699 -40 -7.16699 -74.667 -13.5 -104s-11.833 -50.666 -16.5 -63.999c-13.333 0 -25.166 1.16699 -35.499 3.5s-18.166 4.5 -23.499 6.5l-25 141c-12.667 2.66699 -29 5.16699 -49 7.5s-42.333 4.5 -67 6.5
s-50 3 -76 3c-17.333 0 -30.5 -3.83301 -39.5 -11.5s-14.833 -17.667 -17.5 -30s-4 -25.166 -4 -38.499v-176c30.667 0.666992 59 1.5 85 2.5s50.167 2.5 72.5 4.5s42.5 4 60.5 6l11 -11c-1.33301 -14.667 -3.16602 -27.834 -5.49902 -39.501s-4.5 -20.167 -6.5 -25.5h-217
v-189c0 -16 -2 -30 -6 -42s-8 -20.667 -12 -26h273l58 169c13.333 0 25.5 -2 36.5 -6s18.167 -7.66699 21.5 -11c0 -20 -0.666992 -41.167 -2 -63.5s-3 -43.666 -5 -63.999s-4.33301 -37.166 -7 -50.499c-5.33301 -6 -13.333 -12.5 -24 -19.5s-21.334 -13.167 -32.001 -18.5
s-19.334 -8 -26.001 -8zM463 778.995c-4.66699 0 -10.668 2.83301 -18.001 8.5s-14.666 12.834 -21.999 21.501s-13.333 17.167 -18 25.5s-7 15.166 -7 20.499s3.16699 11.333 9.5 18s14.333 13.167 24 19.5s19 11.5 28 15.5s16.167 6 21.5 6s11.5 -3 18.5 -9
s13.833 -13.333 20.5 -22s12.167 -17.334 16.5 -26.001s6.5 -15.667 6.5 -21c0 -4.66699 -3 -10.167 -9 -16.5s-13.333 -12.666 -22 -18.999s-17.5 -11.5 -26.5 -15.5s-16.5 -6 -22.5 -6zM249.999 778.995c-4.66699 0 -10.665 2.83398 -17.998 8.50098
s-14.5 12.834 -21.5 21.501s-13 17.167 -18 25.5s-7.5 15.166 -7.5 20.499s3.33301 11.333 10 18s14.667 13.167 24 19.5s18.666 11.5 27.999 15.5s16.666 6 21.999 6s11.333 -2.83301 18 -8.5s13.5 -12.834 20.5 -21.501s12.667 -17.334 17 -26.001s6.5 -16 6.5 -22
c0 -4.66699 -3 -10.167 -9 -16.5s-13.333 -12.666 -22 -18.999s-17.667 -11.5 -27 -15.5s-17 -6 -23 -6z" />
    <glyph glyph-name="Igrave" unicode="&#xcc;" horiz-adv-x="403" 
d="M267 0c-4.66699 0 -14.168 0.831055 -28.501 2.49805s-30.666 3.83398 -48.999 6.50098s-36.833 5.5 -55.5 8.5s-35.167 6 -49.5 9s-24.5 5.5 -30.5 7.5c0 5.33301 1 10.5 3 15.5s4.33301 8.83301 7 11.5l29 4c13.333 2 23.5 5.66699 30.5 11s12 15 15 29
s4.5 34.333 4.5 61v404c0 31.333 2.83301 52 8.5 62s9.16699 15.333 10.5 16h-97c-1.33301 2.66699 -3.33301 5.5 -6 8.5s-4.66699 7.83301 -6 14.5c4 4.66699 10.167 9.5 18.5 14.5s16.833 9.33301 25.5 13s15 5.5 19 5.5h221c3.33301 -3.33301 6.33301 -8.5 9 -15.5
s4 -14.5 4 -22.5l-44 -13c-14 -4 -24.667 -9.33301 -32 -16s-12.333 -15.5 -15 -26.5s-4 -25.5 -4 -43.5v-428c0 -16.667 -2 -31 -6 -43s-8 -20.333 -12 -25l104 -12c1.33301 -1.33301 2.83301 -4.66602 4.5 -9.99902s2.5 -10.333 2.5 -15c-10 -8.66699 -23 -16.5 -39 -23.5
s-30 -10.5 -42 -10.5zM264.999 768.998l-193.001 133.999c3.33301 9.33301 9 19 17 29s16.5 18.5 25.5 25.5s16.167 10.5 21.5 10.5c6.66699 0 18.334 -7.16699 35.001 -21.5s36.5 -34.5 59.5 -60.5s46.833 -56.667 71.5 -92c-3.33301 -4.66699 -8.83301 -9.66699 -16.5 -15
s-14.5 -8.66602 -20.5 -9.99902z" />
    <glyph glyph-name="Iacute" unicode="&#xcd;" horiz-adv-x="403" 
d="M267 0c-4.66699 0 -14.168 0.831055 -28.501 2.49805s-30.666 3.83398 -48.999 6.50098s-36.833 5.5 -55.5 8.5s-35.167 6 -49.5 9s-24.5 5.5 -30.5 7.5c0 5.33301 1 10.5 3 15.5s4.33301 8.83301 7 11.5l29 4c13.333 2 23.5 5.66699 30.5 11s12 15 15 29
s4.5 34.333 4.5 61v404c0 31.333 2.83301 52 8.5 62s9.16699 15.333 10.5 16h-97c-1.33301 2.66699 -3.33301 5.5 -6 8.5s-4.66699 7.83301 -6 14.5c4 4.66699 10.167 9.5 18.5 14.5s16.833 9.33301 25.5 13s15 5.5 19 5.5h221c3.33301 -3.33301 6.33301 -8.5 9 -15.5
s4 -14.5 4 -22.5l-44 -13c-14 -4 -24.667 -9.33301 -32 -16s-12.333 -15.5 -15 -26.5s-4 -25.5 -4 -43.5v-428c0 -16.667 -2 -31 -6 -43s-8 -20.333 -12 -25l104 -12c1.33301 -1.33301 2.83301 -4.66602 4.5 -9.99902s2.5 -10.333 2.5 -15c-10 -8.66699 -23 -16.5 -39 -23.5
s-30 -10.5 -42 -10.5zM131.999 768.998c-8.66699 2.66699 -16.166 6.66797 -22.499 12.001s-10.833 9.66602 -13.5 12.999c24 34.667 47.333 65 70 91s42.5 46.333 59.5 61s28.833 22 35.5 22c5.33301 0 12.5 -3.33301 21.5 -10s17.667 -15 26 -25s14.166 -20 17.499 -30z
" />
    <glyph glyph-name="Icircumflex" unicode="&#xce;" horiz-adv-x="403" 
d="M267 0c-4.66699 0 -14.168 0.831055 -28.501 2.49805s-30.666 3.83398 -48.999 6.50098s-36.833 5.5 -55.5 8.5s-35.167 6 -49.5 9s-24.5 5.5 -30.5 7.5c0 5.33301 1 10.5 3 15.5s4.33301 8.83301 7 11.5l29 4c13.333 2 23.5 5.66699 30.5 11s12 15 15 29
s4.5 34.333 4.5 61v404c0 31.333 2.83301 52 8.5 62s9.16699 15.333 10.5 16h-97c-1.33301 2.66699 -3.33301 5.5 -6 8.5s-4.66699 7.83301 -6 14.5c4 4.66699 10.167 9.5 18.5 14.5s16.833 9.33301 25.5 13s15 5.5 19 5.5h221c3.33301 -3.33301 6.33301 -8.5 9 -15.5
s4 -14.5 4 -22.5l-44 -13c-14 -4 -24.667 -9.33301 -32 -16s-12.333 -15.5 -15 -26.5s-4 -25.5 -4 -43.5v-428c0 -16.667 -2 -31 -6 -43s-8 -20.333 -12 -25l104 -12c1.33301 -1.33301 2.83301 -4.66602 4.5 -9.99902s2.5 -10.333 2.5 -15c-10 -8.66699 -23 -16.5 -39 -23.5
s-30 -10.5 -42 -10.5zM77.999 768.998c-6.66699 2.66699 -12.832 6.33203 -18.499 10.999s-9.5 9.33398 -11.5 14.001l68.5 92c19.667 26 36.667 46.167 51 60.5s25.833 21.5 34.5 21.5c9.33301 0 21.166 -7.5 35.499 -22.5s31.333 -35.667 51 -62l66.5 -89.5
c-2.66699 -3.33301 -6.5 -7.83301 -11.5 -13.5s-11.5 -9.5 -19.5 -11.5l-123 102z" />
    <glyph glyph-name="Idieresis" unicode="&#xcf;" horiz-adv-x="403" 
d="M267 0c-4.66699 0 -14.168 0.831055 -28.501 2.49805s-30.666 3.83398 -48.999 6.50098s-36.833 5.5 -55.5 8.5s-35.167 6 -49.5 9s-24.5 5.5 -30.5 7.5c0 5.33301 1 10.5 3 15.5s4.33301 8.83301 7 11.5l29 4c13.333 2 23.5 5.66699 30.5 11s12 15 15 29
s4.5 34.333 4.5 61v404c0 31.333 2.83301 52 8.5 62s9.16699 15.333 10.5 16h-97c-1.33301 2.66699 -3.33301 5.5 -6 8.5s-4.66699 7.83301 -6 14.5c4 4.66699 10.167 9.5 18.5 14.5s16.833 9.33301 25.5 13s15 5.5 19 5.5h221c3.33301 -3.33301 6.33301 -8.5 9 -15.5
s4 -14.5 4 -22.5l-44 -13c-14 -4 -24.667 -9.33301 -32 -16s-12.333 -15.5 -15 -26.5s-4 -25.5 -4 -43.5v-428c0 -16.667 -2 -31 -6 -43s-8 -20.333 -12 -25l104 -12c1.33301 -1.33301 2.83301 -4.66602 4.5 -9.99902s2.5 -10.333 2.5 -15c-10 -8.66699 -23 -16.5 -39 -23.5
s-30 -10.5 -42 -10.5zM300.999 778.998c-4.66699 0 -10.668 2.83301 -18.001 8.5s-14.666 12.834 -21.999 21.501s-13.333 17.167 -18 25.5s-7 15.166 -7 20.499s3.16699 11.333 9.5 18s14.333 13.167 24 19.5s19 11.5 28 15.5s16.167 6 21.5 6s11.5 -3 18.5 -9
s13.833 -13.333 20.5 -22s12.167 -17.334 16.5 -26.001s6.5 -15.667 6.5 -21c0 -4.66699 -3 -10.167 -9 -16.5s-13.333 -12.666 -22 -18.999s-17.5 -11.5 -26.5 -15.5s-16.5 -6 -22.5 -6zM87.998 778.998c-4.66699 0 -10.665 2.83398 -17.998 8.50098
s-14.5 12.834 -21.5 21.501s-13 17.167 -18 25.5s-7.5 15.166 -7.5 20.499s3.33301 11.333 10 18s14.667 13.167 24 19.5s18.666 11.5 27.999 15.5s16.666 6 21.999 6s11.333 -2.83301 18 -8.5s13.5 -12.834 20.5 -21.501s12.667 -17.334 17 -26.001s6.5 -16 6.5 -22
c0 -4.66699 -3 -10.167 -9 -16.5s-13.333 -12.666 -22 -18.999s-17.667 -11.5 -27 -15.5s-17 -6 -23 -6z" />
    <glyph glyph-name="Eth" unicode="&#xd0;" horiz-adv-x="780" 
d="M233 325l-92 2h-88c0 15.333 1.16699 26.833 3.5 34.5s4.83301 12.167 7.5 13.5l77 2l92 5c38.667 0 75.667 1.33301 111 4s67.333 5.66699 96 9l9 -8c-0.666992 -14.667 -2.16699 -27.5 -4.5 -38.5s-4.5 -18.833 -6.5 -23.5h-205zM490 0
c-20 0 -44.999 0.833008 -74.999 2.5s-62.167 3.66699 -96.5 6s-68.333 5 -102 8s-64.167 6 -91.5 9s-48.666 5.83301 -63.999 8.5c0 5.33301 1 10.5 3 15.5s4.33301 8.83301 7 11.5l29 4c13.333 2 23.5 5.66699 30.5 11s12 15 15 29s4.5 34.333 4.5 61v402
c0 18.667 1.16699 33.667 3.5 45s5.16602 19.833 8.49902 25.5s5.66602 8.83398 6.99902 9.50098h-97c-2.66699 2.66699 -5.16699 6 -7.5 10s-3.83301 8.33301 -4.5 13c4 4.66699 10.167 9.5 18.5 14.5s16.833 9.33301 25.5 13s15 5.5 19 5.5h395
c11.333 -2.66699 23.833 -6.83398 37.5 -12.501s27.667 -12.334 42 -20.001s27.5 -15.667 39.5 -24s21.333 -16.166 28 -23.499c18.667 -34.667 31.167 -73.167 37.5 -115.5s9.5 -83.5 9.5 -123.5c0 -40.667 -2.5 -79.5 -7.5 -116.5s-11.5 -70.333 -19.5 -100
s-17.333 -54.167 -28 -73.5c-10 -10 -22 -20.167 -36 -30.5s-28.833 -19.833 -44.5 -28.5s-31 -16.167 -46 -22.5s-28.5 -10.833 -40.5 -13.5zM244.001 72h280.001c11.333 9.33301 21.333 23.5 30 42.5s16.167 41.167 22.5 66.5s11 52.833 14 82.5s4.5 59.834 4.5 90.501
c0 31.333 -1 61 -3 89s-5.5 54 -10.5 78s-11.833 45.167 -20.5 63.5s-19.334 33.166 -32.001 44.499c-12.667 3.33301 -30.5 6.33301 -53.5 9s-47.833 5 -74.5 7s-52.667 3 -78 3c-24.667 0 -41 -7.33301 -49 -22s-12 -34 -12 -58v-428c0 -16 -2 -30 -6 -42
s-8 -20.667 -12 -26z" />
    <glyph glyph-name="Ntilde" unicode="&#xd1;" horiz-adv-x="827" 
d="M251 0c-6 0 -17.667 1.16406 -35 3.49707s-36.833 5.33301 -58.5 9s-42 7.5 -61 11.5s-33.167 7.33301 -42.5 10c0 5.33301 1 10.5 3 15.5s4.33301 8.83301 7 11.5l28 4c14 2 24.5 6.33301 31.5 13s11.833 17.5 14.5 32.5s4 36.167 4 63.5v395
c0 24 2.16699 42.5 6.5 55.5s8.5 20.833 12.5 23.5h-96c-2.66699 2.66699 -5.16699 6 -7.5 10s-3.83301 8.33301 -4.5 13c4 4.66699 10.167 9.5 18.5 14.5s16.833 9.33301 25.5 13s15 5.5 19 5.5h157l361 -553c-2.66699 14 -4.83398 31.833 -6.50098 53.5
s-2.5 51.167 -2.5 88.5v272c0 23.333 2 41.833 6 55.5s8 21.834 12 24.501h-100c-0.666992 2 -2.5 4.66699 -5.5 8s-5.16699 8.33301 -6.5 15c4 4.66699 10.333 9.83398 19 15.501s17.334 10.5 26.001 14.5s14.667 6 18 6h184c3.33301 -4 6.33301 -9.33301 9 -16
s4 -14 4 -22l-43 -13c-14.667 -4 -25.5 -9.33301 -32.5 -16s-11.667 -16 -14 -28s-3.5 -28.667 -3.5 -50v-368c0 -36.667 1 -70.167 3 -100.5s4.33301 -50.5 7 -60.5c-8 -6.66699 -18.5 -12.167 -31.5 -16.5s-26.333 -7.5 -40 -9.5s-25.834 -3.33301 -36.501 -4l-327 500
c-14.667 23.333 -26 44.333 -34 63s-12.667 32.334 -14 41.001h-6c-0.666992 -2 -1.5 -7.66699 -2.5 -17s-1.5 -25 -1.5 -47v-400c0 -15.333 -1.83301 -29 -5.5 -41s-7.5 -20.333 -11.5 -25l131 -15c1.33301 -1.33301 2.83301 -4.5 4.5 -9.5s2.5 -10.167 2.5 -15.5
c-7.33301 -6.66699 -16.166 -12.5 -26.499 -17.5s-20.833 -9 -31.5 -12s-19.667 -4.5 -27 -4.5zM514 777.997c-8.66699 0 -23.835 3.33496 -45.502 10.002s-45.5 14.834 -71.5 24.501l-72 27.5l-74 -53c-4 1.33301 -8.16699 3.66602 -12.5 6.99902s-7.83301 8 -10.5 14
c8.66699 14.667 18.667 30 30 46s22.833 29.5 34.5 40.5s21.834 16.5 30.501 16.5s24 -3.16699 46 -9.5s46.5 -13.833 73.5 -22.5s51.833 -17.334 74.5 -26.001l69 63c6.66699 -2.66699 12.334 -5.66699 17.001 -9s8 -6.66602 10 -9.99902
c-8.66699 -16.667 -19.167 -34.334 -31.5 -53.001s-24.5 -34.334 -36.5 -47.001s-22.333 -19 -31 -19z" />
    <glyph glyph-name="Ograve" unicode="&#xd2;" horiz-adv-x="766" 
d="M365 0c-20.667 0 -43.4932 3.50293 -68.4932 10.5029s-49.5 15.833 -73.5 26.5s-45.5 22 -64.5 34s-32.833 23 -41.5 33c-16 19.333 -28.167 48.166 -36.5 86.499s-12.5 81.166 -12.5 128.499c0 39.333 2.16699 78 6.5 116s9.83301 72.5 16.5 103.5
s13.667 54.833 21 71.5c15.333 12 34.166 24.333 56.499 37s47.166 24.667 74.499 36s55.666 20.333 84.999 27s58.666 10 87.999 10c17.333 0 37.5 -2.83301 60.5 -8.5s46.333 -13 70 -22s45 -19 64 -30s33.5 -22.167 43.5 -33.5c10 -15.333 18.167 -35 24.5 -59
s11.166 -50.333 14.499 -79s5 -58.334 5 -89.001c0 -38 -2.16699 -75.833 -6.5 -113.5s-10 -72 -17 -103s-14.833 -56.167 -23.5 -75.5c-15.333 -13.333 -37.833 -28.5 -67.5 -45.5s-63.334 -31.5 -101.001 -43.5s-76.834 -18 -117.501 -18zM388.007 75.0029
c18 0 37.332 2.50195 57.999 7.50195s39.834 11.167 57.501 18.5s30.167 13.666 37.5 18.999c8 18.667 14.833 41 20.5 67s10 54.5 13 85.5s4.5 63.167 4.5 96.5c0 42.667 -2.33301 82 -7 118s-10.667 66 -18 90c-3.33301 4.66699 -11.333 10.667 -24 18
s-27.5 14.666 -44.5 21.999s-34.333 13.5 -52 18.5s-33.167 7.5 -46.5 7.5c-16 0 -34.5 -1.83301 -55.5 -5.5s-41.333 -8.33398 -61 -14.001s-36.167 -11.5 -49.5 -17.5c-7.33301 -18.667 -13.833 -41.167 -19.5 -67.5s-9.83398 -54.666 -12.501 -84.999
s-4 -61.166 -4 -92.499c0 -40.667 2.66699 -80.334 8 -119.001s14.333 -71.334 27 -98.001c6 -6.66699 16 -14 30 -22s29.5 -15.667 46.5 -23s33.833 -13.166 50.5 -17.499s30.334 -6.5 41.001 -6.5zM447.006 769.005l-193.001 133.999c3.33301 9.33301 9 19 17 29
s16.5 18.5 25.5 25.5s16.167 10.5 21.5 10.5c6.66699 0 18.334 -7.16699 35.001 -21.5s36.5 -34.5 59.5 -60.5s46.833 -56.667 71.5 -92c-3.33301 -4.66699 -8.83301 -9.66699 -16.5 -15s-14.5 -8.66602 -20.5 -9.99902z" />
    <glyph glyph-name="Oacute" unicode="&#xd3;" horiz-adv-x="766" 
d="M365 0c-20.667 0 -43.4932 3.50293 -68.4932 10.5029s-49.5 15.833 -73.5 26.5s-45.5 22 -64.5 34s-32.833 23 -41.5 33c-16 19.333 -28.167 48.166 -36.5 86.499s-12.5 81.166 -12.5 128.499c0 39.333 2.16699 78 6.5 116s9.83301 72.5 16.5 103.5
s13.667 54.833 21 71.5c15.333 12 34.166 24.333 56.499 37s47.166 24.667 74.499 36s55.666 20.333 84.999 27s58.666 10 87.999 10c17.333 0 37.5 -2.83301 60.5 -8.5s46.333 -13 70 -22s45 -19 64 -30s33.5 -22.167 43.5 -33.5c10 -15.333 18.167 -35 24.5 -59
s11.166 -50.333 14.499 -79s5 -58.334 5 -89.001c0 -38 -2.16699 -75.833 -6.5 -113.5s-10 -72 -17 -103s-14.833 -56.167 -23.5 -75.5c-15.333 -13.333 -37.833 -28.5 -67.5 -45.5s-63.334 -31.5 -101.001 -43.5s-76.834 -18 -117.501 -18zM388.007 75.0029
c18 0 37.332 2.50195 57.999 7.50195s39.834 11.167 57.501 18.5s30.167 13.666 37.5 18.999c8 18.667 14.833 41 20.5 67s10 54.5 13 85.5s4.5 63.167 4.5 96.5c0 42.667 -2.33301 82 -7 118s-10.667 66 -18 90c-3.33301 4.66699 -11.333 10.667 -24 18
s-27.5 14.666 -44.5 21.999s-34.333 13.5 -52 18.5s-33.167 7.5 -46.5 7.5c-16 0 -34.5 -1.83301 -55.5 -5.5s-41.333 -8.33398 -61 -14.001s-36.167 -11.5 -49.5 -17.5c-7.33301 -18.667 -13.833 -41.167 -19.5 -67.5s-9.83398 -54.666 -12.501 -84.999
s-4 -61.166 -4 -92.499c0 -40.667 2.66699 -80.334 8 -119.001s14.333 -71.334 27 -98.001c6 -6.66699 16 -14 30 -22s29.5 -15.667 46.5 -23s33.833 -13.166 50.5 -17.499s30.334 -6.5 41.001 -6.5zM314.006 769.005c-8.66699 2.66699 -16.166 6.66797 -22.499 12.001
s-10.833 9.66602 -13.5 12.999c24 34.667 47.333 65 70 91s42.5 46.333 59.5 61s28.833 22 35.5 22c5.33301 0 12.5 -3.33301 21.5 -10s17.667 -15 26 -25s14.166 -20 17.499 -30z" />
    <glyph glyph-name="Ocircumflex" unicode="&#xd4;" horiz-adv-x="766" 
d="M365 0c-20.667 0 -43.4932 3.50293 -68.4932 10.5029s-49.5 15.833 -73.5 26.5s-45.5 22 -64.5 34s-32.833 23 -41.5 33c-16 19.333 -28.167 48.166 -36.5 86.499s-12.5 81.166 -12.5 128.499c0 39.333 2.16699 78 6.5 116s9.83301 72.5 16.5 103.5
s13.667 54.833 21 71.5c15.333 12 34.166 24.333 56.499 37s47.166 24.667 74.499 36s55.666 20.333 84.999 27s58.666 10 87.999 10c17.333 0 37.5 -2.83301 60.5 -8.5s46.333 -13 70 -22s45 -19 64 -30s33.5 -22.167 43.5 -33.5c10 -15.333 18.167 -35 24.5 -59
s11.166 -50.333 14.499 -79s5 -58.334 5 -89.001c0 -38 -2.16699 -75.833 -6.5 -113.5s-10 -72 -17 -103s-14.833 -56.167 -23.5 -75.5c-15.333 -13.333 -37.833 -28.5 -67.5 -45.5s-63.334 -31.5 -101.001 -43.5s-76.834 -18 -117.501 -18zM388.007 75.0029
c18 0 37.332 2.50195 57.999 7.50195s39.834 11.167 57.501 18.5s30.167 13.666 37.5 18.999c8 18.667 14.833 41 20.5 67s10 54.5 13 85.5s4.5 63.167 4.5 96.5c0 42.667 -2.33301 82 -7 118s-10.667 66 -18 90c-3.33301 4.66699 -11.333 10.667 -24 18
s-27.5 14.666 -44.5 21.999s-34.333 13.5 -52 18.5s-33.167 7.5 -46.5 7.5c-16 0 -34.5 -1.83301 -55.5 -5.5s-41.333 -8.33398 -61 -14.001s-36.167 -11.5 -49.5 -17.5c-7.33301 -18.667 -13.833 -41.167 -19.5 -67.5s-9.83398 -54.666 -12.501 -84.999
s-4 -61.166 -4 -92.499c0 -40.667 2.66699 -80.334 8 -119.001s14.333 -71.334 27 -98.001c6 -6.66699 16 -14 30 -22s29.5 -15.667 46.5 -23s33.833 -13.166 50.5 -17.499s30.334 -6.5 41.001 -6.5zM260.006 769.005c-6.66699 2.66699 -12.832 6.33203 -18.499 10.999
s-9.5 9.33398 -11.5 14.001l68.5 92c19.667 26 36.667 46.167 51 60.5s25.833 21.5 34.5 21.5c9.33301 0 21.166 -7.5 35.499 -22.5s31.333 -35.667 51 -62l66.5 -89.5c-2.66699 -3.33301 -6.5 -7.83301 -11.5 -13.5s-11.5 -9.5 -19.5 -11.5l-123 102z" />
    <glyph glyph-name="Otilde" unicode="&#xd5;" horiz-adv-x="766" 
d="M365 0c-20.667 0 -43.4932 3.50293 -68.4932 10.5029s-49.5 15.833 -73.5 26.5s-45.5 22 -64.5 34s-32.833 23 -41.5 33c-16 19.333 -28.167 48.166 -36.5 86.499s-12.5 81.166 -12.5 128.499c0 39.333 2.16699 78 6.5 116s9.83301 72.5 16.5 103.5
s13.667 54.833 21 71.5c15.333 12 34.166 24.333 56.499 37s47.166 24.667 74.499 36s55.666 20.333 84.999 27s58.666 10 87.999 10c17.333 0 37.5 -2.83301 60.5 -8.5s46.333 -13 70 -22s45 -19 64 -30s33.5 -22.167 43.5 -33.5c10 -15.333 18.167 -35 24.5 -59
s11.166 -50.333 14.499 -79s5 -58.334 5 -89.001c0 -38 -2.16699 -75.833 -6.5 -113.5s-10 -72 -17 -103s-14.833 -56.167 -23.5 -75.5c-15.333 -13.333 -37.833 -28.5 -67.5 -45.5s-63.334 -31.5 -101.001 -43.5s-76.834 -18 -117.501 -18zM388.007 75.0029
c18 0 37.332 2.50195 57.999 7.50195s39.834 11.167 57.501 18.5s30.167 13.666 37.5 18.999c8 18.667 14.833 41 20.5 67s10 54.5 13 85.5s4.5 63.167 4.5 96.5c0 42.667 -2.33301 82 -7 118s-10.667 66 -18 90c-3.33301 4.66699 -11.333 10.667 -24 18
s-27.5 14.666 -44.5 21.999s-34.333 13.5 -52 18.5s-33.167 7.5 -46.5 7.5c-16 0 -34.5 -1.83301 -55.5 -5.5s-41.333 -8.33398 -61 -14.001s-36.167 -11.5 -49.5 -17.5c-7.33301 -18.667 -13.833 -41.167 -19.5 -67.5s-9.83398 -54.666 -12.501 -84.999
s-4 -61.166 -4 -92.499c0 -40.667 2.66699 -80.334 8 -119.001s14.333 -71.334 27 -98.001c6 -6.66699 16 -14 30 -22s29.5 -15.667 46.5 -23s33.833 -13.166 50.5 -17.499s30.334 -6.5 41.001 -6.5zM477.006 778.005c-8.66699 0 -23.835 3.33496 -45.502 10.002
s-45.5 14.834 -71.5 24.501l-72 27.5l-74 -53c-4 1.33301 -8.16699 3.66602 -12.5 6.99902s-7.83301 8 -10.5 14c8.66699 14.667 18.667 30 30 46s22.833 29.5 34.5 40.5s21.834 16.5 30.501 16.5s24 -3.16699 46 -9.5s46.5 -13.833 73.5 -22.5s51.833 -17.334 74.5 -26.001
l69 63c6.66699 -2.66699 12.334 -5.66699 17.001 -9s8 -6.66602 10 -9.99902c-8.66699 -16.667 -19.167 -34.334 -31.5 -53.001s-24.5 -34.334 -36.5 -47.001s-22.333 -19 -31 -19z" />
    </font>
</defs>
</svg>
